<?xml version="1.0" encoding="UTF-8"?>
<svg version="1.1" xmlns="http://www.w3.org/2000/svg" width="1080" height="1145">
<path d="M0 0 C0.79807571 0.00091644 1.59615143 0.00183289 2.41841125 0.0027771 C4.09158338 0.00877659 5.76474662 0.02441146 7.43774414 0.04931641 C9.992103 0.08599237 12.54501365 0.09033393 15.09960938 0.08984375 C16.73308539 0.09967089 18.36655165 0.11132613 20 0.125 C21.13764046 0.12833847 21.13764046 0.12833847 22.29826355 0.13174438 C29.12542536 0.25365369 33.36223351 2.3238771 39.05078125 5.8984375 C40.015 6.49527344 40.97921875 7.09210937 41.97265625 7.70703125 C44.30078125 9.4609375 44.30078125 9.4609375 45.30078125 12.4609375 C46.29078125 12.7909375 47.28078125 13.1209375 48.30078125 13.4609375 C48.30078125 14.1209375 48.30078125 14.7809375 48.30078125 15.4609375 C49.14962891 15.75097656 49.14962891 15.75097656 50.015625 16.046875 C53.25421122 18.05092323 54.90052794 20.9158435 56.86328125 24.0859375 C57.45979492 25.03436523 57.45979492 25.03436523 58.06835938 26.00195312 C63.43689809 34.71131293 65.42391353 42.6735276 65.43017578 52.953125 C65.4319281 53.67944122 65.43368042 54.40575745 65.43548584 55.15408325 C65.43987313 57.54805928 65.43697242 59.94196075 65.43359375 62.3359375 C65.43426884 64.02343764 65.43524058 65.71093769 65.43649292 67.3984375 C65.43796666 70.94239219 65.43583003 74.48632168 65.43115234 78.03027344 C65.42552434 82.50594125 65.42878785 86.98154874 65.43458939 91.45721436 C65.46939227 122.98288189 65.46939227 122.98288189 64.85546875 136.8359375 C64.81672638 137.71507812 64.77798401 138.59421875 64.73806763 139.5 C64.43591245 145.19067511 64.43591245 145.19067511 63.30078125 147.4609375 C62.83263829 150.68307773 62.43289513 153.90563024 62.05078125 157.13867188 C61.40266386 162.35905489 61.40266386 162.35905489 60.30078125 163.4609375 C60.06305751 167.25697063 59.90439086 171.04649946 59.78320312 174.84765625 C59.73196289 176.04455078 59.73196289 176.04455078 59.6796875 177.265625 C59.65463135 177.99765137 59.6295752 178.72967773 59.60375977 179.48388672 C59.30078125 181.4609375 59.30078125 181.4609375 57.30078125 184.4609375 C57.05592035 186.62016545 56.89856801 188.79007132 56.80078125 190.9609375 C56.52300347 197.12760417 56.52300347 197.12760417 54.30078125 200.4609375 C54.02473512 203.35799892 53.83646872 206.18342013 53.73828125 209.0859375 C53.42132076 217.34039799 53.42132076 217.34039799 52.30078125 218.4609375 C52.01396665 221.72516085 51.8519052 224.98958241 51.6796875 228.26171875 C51.31804986 231.31513348 50.63780122 232.78689756 49.30078125 235.4609375 C48.93422795 238.79740562 48.79674386 242.11236098 48.64453125 245.46484375 C48.30078125 248.4609375 48.30078125 248.4609375 46.30078125 251.4609375 C46.04919378 254.29415545 45.88179228 257.0606687 45.80078125 259.8984375 C45.55120203 268.59700749 45.55120203 268.59700749 43.30078125 272.4609375 C41.60818273 279.18708066 41.00816291 286.02068602 40.64453125 292.9296875 C40.30078125 295.4609375 40.30078125 295.4609375 38.30078125 298.4609375 C37.67493093 300.47398198 37.67493093 300.47398198 37.23828125 302.5859375 C36.30078125 306.4609375 36.30078125 306.4609375 35.30078125 307.4609375 C35.05328125 309.1934375 35.05328125 309.1934375 34.80078125 310.9609375 C34.30078125 314.4609375 34.30078125 314.4609375 33.30078125 315.4609375 C32.92991944 317.45431971 32.60340414 319.45606082 32.30078125 321.4609375 C31.41189236 327.34982639 31.41189236 327.34982639 30.30078125 328.4609375 C30.01515362 331.20386946 29.85238852 333.94702588 29.6796875 336.69921875 C29.30078125 339.4609375 29.30078125 339.4609375 28.296875 341.44140625 C26.9638202 344.14410951 26.94793262 346.45904964 26.80078125 349.4609375 C26.3052255 357.20725627 25.32477199 364.82964115 23.30078125 372.3359375 C21.96513021 377.29993191 21.42492848 382.39520599 20.765625 387.484375 C20.30078125 390.4609375 20.30078125 390.4609375 19.30078125 392.4609375 C19.11636591 395.13056914 18.97543864 397.78828106 18.86328125 400.4609375 C18.48221653 408.01330751 17.82848455 415.2372872 15.23828125 422.3984375 C13.82977185 426.99956822 13.62429879 431.67628342 13.30078125 436.4609375 C12.31078125 436.7909375 11.32078125 437.1209375 10.30078125 437.4609375 C10.30078125 444.3909375 10.30078125 451.3209375 10.30078125 458.4609375 C9.31078125 458.7909375 8.32078125 459.1209375 7.30078125 459.4609375 C7.30601807 460.02603027 7.31125488 460.59112305 7.31665039 461.17333984 C7.33740547 463.7275278 7.35043665 466.28169803 7.36328125 468.8359375 C7.37166016 469.72539062 7.38003906 470.61484375 7.38867188 471.53125 C7.39189453 472.38203125 7.39511719 473.2328125 7.3984375 474.109375 C7.40367432 474.89489746 7.40891113 475.68041992 7.41430664 476.48974609 C7.30078125 478.4609375 7.30078125 478.4609375 6.30078125 480.4609375 C6.0686253 483.81430116 5.90637598 487.16081773 5.78320312 490.51953125 C5.59310537 494.41474181 5.04160733 497.03389949 3.30078125 500.4609375 C3.05802568 502.95469922 2.89934857 505.45732765 2.80078125 507.9609375 C2.5226688 515.02499372 2.5226688 515.02499372 1.3046875 517.41796875 C-0.28600324 520.65505535 -0.13257304 524.10480526 -0.26171875 527.6484375 C-0.57798244 535.33970119 -0.57798244 535.33970119 -1.69921875 536.4609375 C-1.98628951 539.43189202 -2.14784493 542.40316006 -2.3203125 545.3828125 C-2.69921875 548.4609375 -2.69921875 548.4609375 -3.703125 550.90625 C-5.3812653 555.21018629 -5.16203706 559.70659049 -5.35546875 564.28125 C-5.69921875 567.4609375 -5.69921875 567.4609375 -7.69921875 570.4609375 C-8.0873171 573.35559369 -8.0873171 573.35559369 -8.19921875 576.5859375 C-8.62411495 583.2948248 -9.76115937 589.35361581 -11.69921875 595.7734375 C-12.88394581 600.14211853 -13.56289884 604.51156685 -14.234375 608.984375 C-14.69921875 611.4609375 -14.69921875 611.4609375 -15.69921875 612.4609375 C-15.98228109 615.00849854 -16.14737661 617.55603772 -16.3203125 620.11328125 C-16.69921875 622.4609375 -16.69921875 622.4609375 -18.69921875 624.4609375 C-19.12276998 626.59686732 -19.12276998 626.59686732 -19.26171875 628.9609375 C-19.60462416 633.27174831 -19.60462416 633.27174831 -20.69921875 635.4609375 C-21.25996648 638.82980474 -21.72506327 642.20778161 -22.19921875 645.58984375 C-22.69921875 648.4609375 -22.69921875 648.4609375 -23.69921875 649.4609375 C-23.98530891 652.75778605 -24.14812022 656.05474875 -24.3203125 659.359375 C-24.69921875 662.4609375 -24.69921875 662.4609375 -26.69921875 665.4609375 C-26.96797512 667.66086077 -27.14639282 669.87266113 -27.26171875 672.0859375 C-27.60120241 678.36292116 -27.60120241 678.36292116 -28.69921875 679.4609375 C-28.98400997 682.23652173 -29.14764894 685.01221595 -29.3203125 687.796875 C-29.69921875 690.4609375 -29.69921875 690.4609375 -31.69921875 693.4609375 C-32.07551429 696.81766479 -32.2050203 700.15353732 -32.35546875 703.52734375 C-32.69921875 706.4609375 -32.69921875 706.4609375 -34.69921875 708.4609375 C-35.09969319 710.78368927 -35.43892915 713.11833107 -35.69921875 715.4609375 C-36.68921875 715.7909375 -37.67921875 716.1209375 -38.69921875 716.4609375 C-38.63734375 717.3271875 -38.57546875 718.1934375 -38.51171875 719.0859375 C-38.72844073 722.98693308 -39.79527807 725.07615408 -41.69921875 728.4609375 C-42.34890625 729.8221875 -42.34890625 729.8221875 -43.01171875 731.2109375 C-44.91349399 734.87361575 -47.0245045 738.36937313 -49.16796875 741.89453125 C-50.53237348 744.18130143 -51.81431788 746.49064905 -53.07421875 748.8359375 C-56.24161954 754.58265489 -59.70586033 760.25105929 -63.69921875 765.4609375 C-64.35921875 765.4609375 -65.01921875 765.4609375 -65.69921875 765.4609375 C-66.10720703 766.34458984 -66.10720703 766.34458984 -66.5234375 767.24609375 C-69.5708744 772.98661441 -75.5625336 780.41537578 -81.69921875 782.4609375 C-81.69921875 783.1209375 -81.69921875 783.7809375 -81.69921875 784.4609375 C-82.68921875 784.4609375 -83.67921875 784.4609375 -84.69921875 784.4609375 C-84.69921875 785.4509375 -84.69921875 786.4409375 -84.69921875 787.4609375 C-90.04805596 792.4609375 -90.04805596 792.4609375 -92.69921875 792.4609375 C-93.02921875 793.4509375 -93.35921875 794.4409375 -93.69921875 795.4609375 C-95.01921875 795.4609375 -96.33921875 795.4609375 -97.69921875 795.4609375 C-98.02921875 796.4509375 -98.35921875 797.4409375 -98.69921875 798.4609375 C-99.35921875 798.4609375 -100.01921875 798.4609375 -100.69921875 798.4609375 C-100.69921875 799.1209375 -100.69921875 799.7809375 -100.69921875 800.4609375 C-103.35150687 801.53618944 -105.98290329 802.55549901 -108.69921875 803.4609375 C-109.02921875 804.4509375 -109.35921875 805.4409375 -109.69921875 806.4609375 C-111.34682255 807.17341482 -113.01685404 807.83494133 -114.69921875 808.4609375 C-115.37984375 808.9971875 -116.06046875 809.5334375 -116.76171875 810.0859375 C-118.69921875 811.4609375 -118.69921875 811.4609375 -122.69921875 811.4609375 C-123.02921875 812.4509375 -123.35921875 813.4409375 -123.69921875 814.4609375 C-125.01921875 814.4609375 -126.33921875 814.4609375 -127.69921875 814.4609375 C-127.69921875 815.1209375 -127.69921875 815.7809375 -127.69921875 816.4609375 C-128.25351562 816.72648438 -128.8078125 816.99203125 -129.37890625 817.265625 C-130.10335937 817.61882813 -130.8278125 817.97203125 -131.57421875 818.3359375 C-132.29351563 818.68398438 -133.0128125 819.03203125 -133.75390625 819.390625 C-135.85056894 820.42651293 -135.85056894 820.42651293 -137.69921875 822.4609375 C-139.01921875 822.4609375 -140.33921875 822.4609375 -141.69921875 822.4609375 C-142.02921875 823.4509375 -142.35921875 824.4409375 -142.69921875 825.4609375 C-144.01921875 825.4609375 -145.33921875 825.4609375 -146.69921875 825.4609375 C-146.69921875 826.1209375 -146.69921875 826.7809375 -146.69921875 827.4609375 C-149.69609337 829.13326754 -152.69716293 830.79792816 -155.69921875 832.4609375 C-156.64667969 832.98816406 -157.59414063 833.51539063 -158.5703125 834.05859375 C-159.52035156 834.58324219 -160.47039063 835.10789062 -161.44921875 835.6484375 C-162.3309375 836.13699219 -163.21265625 836.62554688 -164.12109375 837.12890625 C-166.60387187 838.41167495 -169.09844601 839.44474153 -171.69921875 840.4609375 C-173.18421875 841.234375 -173.18421875 841.234375 -174.69921875 842.0234375 C-177.44283301 843.338086 -179.70892059 844.02118777 -182.69921875 844.4609375 C-182.69921875 845.1209375 -182.69921875 845.7809375 -182.69921875 846.4609375 C-184.34921875 846.7909375 -185.99921875 847.1209375 -187.69921875 847.4609375 C-187.69921875 848.1209375 -187.69921875 848.7809375 -187.69921875 849.4609375 C-188.42625 849.73292969 -189.15328125 850.00492188 -189.90234375 850.28515625 C-192.60713473 851.4222262 -194.95784351 852.73057603 -197.44921875 854.2734375 C-202.13380594 857.13277072 -206.88937296 859.81974148 -211.69921875 862.4609375 C-213.26185152 863.33570036 -214.82435242 864.21069884 -216.38671875 865.0859375 C-218.78416994 866.4210698 -221.1705574 867.69159258 -223.63671875 868.8984375 C-227.24216773 870.73795228 -230.66116292 872.82025619 -234.12109375 874.91796875 C-238.58933823 877.59214537 -243.15905127 880.08115363 -247.734375 882.56640625 C-251.3648908 884.55470743 -254.94160786 886.5979624 -258.4609375 888.77734375 C-259.12786621 889.18758789 -259.79479492 889.59783203 -260.48193359 890.02050781 C-261.81642855 890.84425428 -263.14636129 891.67544631 -264.47119141 892.51464844 C-267.91785085 894.63746711 -269.54736866 895.4609375 -273.69921875 895.4609375 C-273.69921875 896.1209375 -273.69921875 896.7809375 -273.69921875 897.4609375 C-275.27996439 898.27846053 -276.86393098 899.08975747 -278.44921875 899.8984375 C-279.3309375 900.35089844 -280.21265625 900.80335938 -281.12109375 901.26953125 C-283.34120441 902.29549148 -285.31366494 902.97602353 -287.69921875 903.4609375 C-287.69921875 904.1209375 -287.69921875 904.7809375 -287.69921875 905.4609375 C-288.30507813 905.75226562 -288.9109375 906.04359375 -289.53515625 906.34375 C-295.80104361 909.40921489 -301.7593466 912.80990844 -307.69921875 916.4609375 C-313.31862937 919.87241329 -318.95953452 923.2097454 -324.73046875 926.359375 C-326.35927234 927.27072939 -327.94285017 928.26238886 -329.51171875 929.2734375 C-331.69921875 930.4609375 -331.69921875 930.4609375 -335.69921875 930.4609375 C-336.02921875 931.4509375 -336.35921875 932.4409375 -336.69921875 933.4609375 C-339.03813798 935.08518696 -341.29579482 936.30405042 -343.94921875 937.3359375 C-350.79019231 940.13451759 -357.07203129 944.2473688 -363.33984375 948.12890625 C-365.69921875 949.4609375 -365.69921875 949.4609375 -368.18359375 950.44921875 C-370.89939929 951.54144489 -373.21874829 952.91064346 -375.69921875 954.4609375 C-380.56052228 957.49925221 -385.03171301 959.48936509 -390.69921875 960.4609375 C-390.69921875 961.1209375 -390.69921875 961.7809375 -390.69921875 962.4609375 C-391.76462891 962.98494141 -391.76462891 962.98494141 -392.8515625 963.51953125 C-393.77066406 963.97457031 -394.68976562 964.42960938 -395.63671875 964.8984375 C-396.55324219 965.35089844 -397.46976563 965.80335938 -398.4140625 966.26953125 C-400.60450779 967.26619144 -400.60450779 967.26619144 -401.69921875 968.4609375 C-403.3653899 968.50157582 -405.0330997 968.5036585 -406.69921875 968.4609375 C-407.02921875 969.4509375 -407.35921875 970.4409375 -407.69921875 971.4609375 C-409.7734375 972.5234375 -409.7734375 972.5234375 -412.38671875 973.4609375 C-415.38504796 974.57570092 -418.15385473 975.69254451 -421.01171875 977.1484375 C-423.61693283 978.42075135 -425.84358858 979.04099189 -428.69921875 979.4609375 C-428.69921875 980.1209375 -428.69921875 980.7809375 -428.69921875 981.4609375 C-429.49585938 981.78707031 -430.2925 982.11320313 -431.11328125 982.44921875 C-437.35185641 985.02206179 -443.43989528 987.62271786 -449.32421875 990.94140625 C-450.77828125 991.75544922 -450.77828125 991.75544922 -452.26171875 992.5859375 C-453.17050781 993.10414063 -454.07929687 993.62234375 -455.015625 994.15625 C-457.69921875 995.4609375 -457.69921875 995.4609375 -460.4765625 996.015625 C-461.57677734 996.23605469 -461.57677734 996.23605469 -462.69921875 996.4609375 C-463.02921875 997.1209375 -463.35921875 997.7809375 -463.69921875 998.4609375 C-465.7734375 999.42578125 -465.7734375 999.42578125 -468.38671875 1000.3984375 C-472.28592772 1001.89387276 -475.97814093 1003.55905328 -479.69921875 1005.4609375 C-482.03255208 1006.4609375 -484.36588542 1007.4609375 -486.69921875 1008.4609375 C-489.66454135 1009.88429235 -492.48377818 1011.32431665 -495.26171875 1013.0859375 C-497.78636228 1014.51009539 -499.88254871 1014.91325166 -502.69921875 1015.4609375 C-503.02921875 1016.1209375 -503.35921875 1016.7809375 -503.69921875 1017.4609375 C-505.73828125 1018.390625 -505.73828125 1018.390625 -508.32421875 1019.3359375 C-511.54030685 1020.56548331 -514.54760973 1021.83233658 -517.51171875 1023.5859375 C-520.25098046 1025.19726792 -522.76612239 1026.28769896 -525.69921875 1027.4609375 C-527.7076924 1028.44380758 -529.70741466 1029.44471092 -531.69921875 1030.4609375 C-535.32185248 1032.30922002 -538.9262077 1033.95173308 -542.69921875 1035.4609375 C-544.7076924 1036.44380758 -546.70741466 1037.44471092 -548.69921875 1038.4609375 C-552.32185248 1040.30922002 -555.9262077 1041.95173308 -559.69921875 1043.4609375 C-561.70823142 1044.44270534 -563.70791788 1045.44372521 -565.69921875 1046.4609375 C-567.719534 1047.48279579 -569.74036625 1048.50363256 -571.76171875 1049.5234375 C-572.76332031 1050.03003906 -573.76492188 1050.53664063 -574.796875 1051.05859375 C-577.39926274 1052.31600586 -580.00936239 1053.40858223 -582.69921875 1054.4609375 C-585.68302043 1055.8906758 -588.49722326 1057.32791608 -591.26171875 1059.1484375 C-593.98924309 1060.61710445 -595.64913304 1060.72237342 -598.69921875 1060.4609375 C-598.69921875 1061.1209375 -598.69921875 1061.7809375 -598.69921875 1062.4609375 C-599.66859375 1062.8528125 -600.63796875 1063.2446875 -601.63671875 1063.6484375 C-607.40251695 1066.12282863 -612.83823747 1069.13677775 -617.94921875 1072.7734375 C-620.8827685 1074.5735703 -622.33015299 1074.85729818 -625.69921875 1074.4609375 C-625.69921875 1075.1209375 -625.69921875 1075.7809375 -625.69921875 1076.4609375 C-629.46957189 1079.20301251 -633.25727479 1080.20238671 -637.69921875 1081.4609375 C-639.24926733 1082.15073575 -640.79077606 1082.85997211 -642.32421875 1083.5859375 C-645.59795397 1085.09689222 -648.02987619 1085.93440106 -651.69921875 1085.4609375 C-651.69921875 1086.1209375 -651.69921875 1086.7809375 -651.69921875 1087.4609375 C-652.93671875 1087.8321875 -652.93671875 1087.8321875 -654.19921875 1088.2109375 C-656.79539502 1089.13814331 -658.97355442 1090.07213597 -661.38671875 1091.3359375 C-665.46162549 1093.43560319 -669.65801115 1094.94023716 -673.9765625 1096.4609375 C-676.44295879 1097.3668162 -678.81147666 1098.36744559 -681.19921875 1099.4609375 C-685.42897913 1101.39389251 -689.75044511 1102.96231487 -694.12890625 1104.5234375 C-697.38538912 1105.71121241 -700.52908314 1107.05876214 -703.69921875 1108.4609375 C-708.36588542 1110.4609375 -713.03255208 1112.4609375 -717.69921875 1114.4609375 C-718.87484375 1114.9765625 -720.05046875 1115.4921875 -721.26171875 1116.0234375 C-724.38533726 1117.32967797 -727.48289124 1118.40944581 -730.69921875 1119.4609375 C-732.53423054 1120.1229702 -734.36740794 1120.79009868 -736.19921875 1121.4609375 C-737.15441406 1121.80769531 -738.10960937 1122.15445312 -739.09375 1122.51171875 C-741.02756784 1123.21624309 -742.9580576 1123.92991668 -744.88671875 1124.6484375 C-747.30179891 1125.34612732 -749.40393238 1125.69556722 -751.88671875 1125.9609375 C-755.76181586 1126.18359426 -755.76181586 1126.18359426 -758.69921875 1128.4609375 C-761.03255208 1128.79427083 -763.36588542 1129.12760417 -765.69921875 1129.4609375 C-766.68921875 1130.1209375 -767.67921875 1130.7809375 -768.69921875 1131.4609375 C-772.46972545 1132.71777307 -776.07166176 1133.55260432 -780.01171875 1133.9609375 C-783.72779582 1134.08572434 -783.72779582 1134.08572434 -785.69921875 1136.4609375 C-787.70410713 1136.7155265 -789.71119948 1136.96650615 -791.7265625 1137.1171875 C-794.01354236 1137.37897826 -794.01354236 1137.37897826 -796.69921875 1139.4609375 C-798.72568995 1139.71826718 -800.75291888 1139.97276879 -802.78515625 1140.1796875 C-805.05642079 1140.51342433 -806.66907156 1141.41311959 -808.69921875 1142.4609375 C-811.02928786 1142.81637177 -813.36248891 1143.1523128 -815.69921875 1143.4609375 C-816.02921875 1143.7909375 -816.35921875 1144.1209375 -816.69921875 1144.4609375 C-827.51158551 1145.95536011 -838.57671329 1145.62450163 -849.46484375 1145.62890625 C-851.35284448 1145.63212734 -853.24084498 1145.63549202 -855.12884521 1145.63899231 C-859.06213968 1145.64494128 -862.9954123 1145.64683633 -866.92871094 1145.64624023 C-871.95072233 1145.64613823 -876.97259358 1145.65984915 -881.99457169 1145.67701244 C-885.88434486 1145.68815954 -889.77408426 1145.6901587 -893.66387177 1145.68963051 C-895.5153019 1145.69080427 -897.36673308 1145.69519181 -899.21814728 1145.70296288 C-901.80861674 1145.71282892 -904.39878281 1145.70986008 -906.98925781 1145.70385742 C-907.74064026 1145.70947693 -908.49202271 1145.71509644 -909.26617432 1145.72088623 C-927.2848283 1145.61550585 -946.70984727 1136.78318114 -959.69921875 1124.4609375 C-959.69921875 1123.8009375 -959.69921875 1123.1409375 -959.69921875 1122.4609375 C-960.27285156 1122.20957031 -960.84648438 1121.95820312 -961.4375 1121.69921875 C-970.44496481 1116.76767066 -976.23357506 1106.84512879 -981.69921875 1098.4609375 C-982.49392578 1097.27371094 -982.49392578 1097.27371094 -983.3046875 1096.0625 C-985.77285204 1092.28425399 -987.44996366 1088.83333031 -988.69921875 1084.4609375 C-989.05113281 1083.47867187 -989.05113281 1083.47867187 -989.41015625 1082.4765625 C-991.27942269 1077.25742253 -992.40274897 1072.12285188 -993.26953125 1066.6484375 C-993.48192349 1064.4923807 -993.48192349 1064.4923807 -994.69921875 1063.4609375 C-994.79716406 1062.09013867 -994.82719956 1060.7143807 -994.82861328 1059.34008789 C-994.83176544 1058.46570572 -994.8349176 1057.59132355 -994.83816528 1056.69044495 C-994.83614105 1055.73943405 -994.83411682 1054.78842316 -994.83203125 1053.80859375 C-994.83346634 1052.35289223 -994.83346634 1052.35289223 -994.83493042 1050.86778259 C-994.8356124 1048.81069881 -994.83375689 1046.75361288 -994.82958984 1044.6965332 C-994.82424759 1041.54047828 -994.82953128 1038.38456605 -994.8359375 1035.22851562 C-994.83527661 1033.23437468 -994.83399522 1031.24023383 -994.83203125 1029.24609375 C-994.83405548 1028.29710709 -994.83607971 1027.34812042 -994.83816528 1026.37037659 C-994.83501312 1025.49284225 -994.83186096 1024.61530792 -994.82861328 1023.71118164 C-994.82781769 1022.9369838 -994.82702209 1022.16278595 -994.82620239 1021.36512756 C-994.69921875 1019.4609375 -994.69921875 1019.4609375 -993.69921875 1017.4609375 C-993.22968121 1014.02377595 -992.8306339 1010.58630727 -992.44921875 1007.13867188 C-991.80096592 1001.56268467 -991.80096592 1001.56268467 -990.69921875 1000.4609375 C-990.41262204 996.90349901 -990.25013805 993.34594597 -990.078125 989.78125 C-989.69921875 986.4609375 -989.69921875 986.4609375 -987.69921875 983.4609375 C-987.32832607 980.6244514 -987.19467643 977.81292839 -987.04296875 974.95703125 C-986.69921875 972.4609375 -986.69921875 972.4609375 -984.69921875 970.4609375 C-984.27368714 967.83117226 -984.27368714 967.83117226 -984.13671875 964.8984375 C-983.79644097 959.55815972 -983.79644097 959.55815972 -982.69921875 958.4609375 C-982.41312859 955.16408895 -982.25031728 951.86712625 -982.078125 948.5625 C-981.69921875 945.4609375 -981.69921875 945.4609375 -979.69921875 942.4609375 C-979.32039014 940.47698862 -979.32039014 940.47698862 -979.19921875 938.3984375 C-978.69921875 934.4609375 -978.69921875 934.4609375 -976.69921875 932.4609375 C-976.32869882 930.1364036 -976.32869882 930.1364036 -976.28515625 927.453125 C-976.24648438 926.46699219 -976.2078125 925.48085938 -976.16796875 924.46484375 C-976.13703125 923.43230469 -976.10609375 922.39976562 -976.07421875 921.3359375 C-976.03554688 920.29566406 -975.996875 919.25539063 -975.95703125 918.18359375 C-975.86257109 915.60955439 -975.77700661 913.03552595 -975.69921875 910.4609375 C-976.35921875 910.4609375 -977.01921875 910.4609375 -977.69921875 910.4609375 C-979.65023613 907.77828861 -981.37522846 905.16609283 -982.76171875 902.1484375 C-983.64994716 900.10195879 -983.64994716 900.10195879 -986.69921875 899.4609375 C-986.69921875 898.8009375 -986.69921875 898.1409375 -986.69921875 897.4609375 C-987.25609375 897.2753125 -987.81296875 897.0896875 -988.38671875 896.8984375 C-991.28581569 895.09629616 -992.62089946 892.95263161 -994.453125 890.1171875 C-995.77307226 888.17235885 -995.77307226 888.17235885 -998.69921875 886.4609375 C-998.69921875 885.8009375 -998.69921875 885.1409375 -998.69921875 884.4609375 C-999.27671875 884.2134375 -999.85421875 883.9659375 -1000.44921875 883.7109375 C-1003.02861854 882.27793762 -1004.76043467 880.67669074 -1006.69921875 878.4609375 C-1006.69921875 877.8009375 -1006.69921875 877.1409375 -1006.69921875 876.4609375 C-1007.35921875 876.4609375 -1008.01921875 876.4609375 -1008.69921875 876.4609375 C-1015.79253195 866.9112214 -1015.42923364 858.09930555 -1015.07421875 846.7734375 C-1015.04405984 845.08924077 -1015.01669456 843.40499158 -1014.9921875 841.72070312 C-1014.92670788 837.63279747 -1014.82352604 833.54745996 -1014.69921875 829.4609375 C-1012.94763246 829.36768785 -1011.19460561 829.30124833 -1009.44140625 829.24609375 C-1008.4654248 829.20621338 -1007.48944336 829.16633301 -1006.48388672 829.12524414 C-1003.13617141 829.52881319 -1002.0645097 830.44345335 -999.82421875 832.8984375 C-997.08645407 836.55312575 -995.05714302 840.49395058 -992.96484375 844.5390625 C-991.10761443 847.35929962 -988.82385037 848.37094973 -985.69921875 849.4609375 C-985.69921875 850.1209375 -985.69921875 850.7809375 -985.69921875 851.4609375 C-983.71921875 851.4609375 -981.73921875 851.4609375 -979.69921875 851.4609375 C-979.36921875 850.4709375 -979.03921875 849.4809375 -978.69921875 848.4609375 C-976.70804467 847.76835521 -974.70710515 847.10346115 -972.69921875 846.4609375 C-970.99000286 844.9197063 -970.99000286 844.9197063 -969.69921875 843.4609375 C-969.03921875 843.4609375 -968.37921875 843.4609375 -967.69921875 843.4609375 C-967.69921875 842.4709375 -967.69921875 841.4809375 -967.69921875 840.4609375 C-967.03921875 840.1309375 -966.37921875 839.8009375 -965.69921875 839.4609375 C-962.71757955 834.38641693 -960.44548666 829.07394149 -958.69921875 823.4609375 C-955.89487092 815.94018651 -955.89487092 815.94018651 -951.69921875 813.4609375 C-946.71151923 812.62463139 -941.45890557 812.50640213 -937.07421875 815.2734375 C-934.69921875 817.4609375 -934.69921875 817.4609375 -933.69921875 820.4609375 C-932.0472283 821.81028831 -932.0472283 821.81028831 -930.01171875 822.9609375 C-929.34785156 823.363125 -928.68398438 823.7653125 -928 824.1796875 C-927.24074219 824.6025 -926.48148438 825.0253125 -925.69921875 825.4609375 C-924.80203125 825.9971875 -923.90484375 826.5334375 -922.98046875 827.0859375 C-918.82423625 828.82759683 -915.3493478 828.99678004 -910.88671875 828.9609375 C-910.08790283 828.95666748 -909.28908691 828.95239746 -908.46606445 828.94799805 C-899.03665684 828.67561647 -894.15097863 825.06631071 -887.69921875 818.4609375 C-881.36795243 813.56334699 -874.92813569 808.94152714 -867.69921875 805.4609375 C-867.69921875 804.4709375 -867.69921875 803.4809375 -867.69921875 802.4609375 C-867.03921875 802.1309375 -866.37921875 801.8009375 -865.69921875 801.4609375 C-864.56571341 799.44423923 -864.56571341 799.44423923 -863.69921875 797.4609375 C-863.03921875 797.4609375 -862.37921875 797.4609375 -861.69921875 797.4609375 C-861.36921875 796.4709375 -861.03921875 795.4809375 -860.69921875 794.4609375 C-852.13249717 792.91892762 -852.13249717 792.91892762 -847.69921875 794.4609375 C-846.21309572 796.14071962 -845.03891781 797.85366654 -843.875 799.76953125 C-842.64187972 801.76391553 -842.64187972 801.76391553 -839.69921875 803.4609375 C-839.69921875 804.1209375 -839.69921875 804.7809375 -839.69921875 805.4609375 C-838.49265625 805.43 -838.49265625 805.43 -837.26171875 805.3984375 C-834.69921875 805.4609375 -834.69921875 805.4609375 -833.69921875 806.4609375 C-831.78463593 806.56065536 -829.86639558 806.59174339 -827.94921875 806.59375 C-826.78390625 806.59503906 -825.61859375 806.59632813 -824.41796875 806.59765625 C-823.19078125 806.59378906 -821.96359375 806.58992187 -820.69921875 806.5859375 C-819.47203125 806.58980469 -818.24484375 806.59367188 -816.98046875 806.59765625 C-815.81515625 806.59636719 -814.64984375 806.59507812 -813.44921875 806.59375 C-812.3715625 806.59262207 -811.29390625 806.59149414 -810.18359375 806.59033203 C-807.75701878 806.74186121 -807.75701878 806.74186121 -806.69921875 805.4609375 C-804.67122085 805.2356044 -802.64247001 805.01326565 -800.609375 804.83984375 C-798.46632395 804.59871523 -798.46632395 804.59871523 -796.69921875 802.4609375 C-794.69921875 801.79427083 -792.69921875 801.12760417 -790.69921875 800.4609375 C-784.67294825 798.02973824 -780.01376521 794.47823899 -775.09375 790.265625 C-772.69271732 788.45603756 -770.5291701 787.43608947 -767.69921875 786.4609375 C-767.63734375 785.3884375 -767.57546875 784.3159375 -767.51171875 783.2109375 C-766.69921875 779.4609375 -766.69921875 779.4609375 -764.76171875 777.0234375 C-760.48953862 774.84375376 -756.42110207 774.74220836 -751.69921875 775.4609375 C-751.03921875 776.1209375 -750.37921875 776.7809375 -749.69921875 777.4609375 C-745.077325 779.97475376 -740.56448623 779.72557249 -735.44921875 779.6484375 C-734.62164063 779.64779297 -733.7940625 779.64714844 -732.94140625 779.64648438 C-729.00517133 780.00029586 -729.00517133 780.00029586 -725.69921875 778.4609375 C-723.67957676 778.38849697 -721.65754751 778.37716562 -719.63671875 778.3984375 C-718.53199219 778.40746094 -717.42726563 778.41648437 -716.2890625 778.42578125 C-715.00708984 778.44318359 -715.00708984 778.44318359 -713.69921875 778.4609375 C-713.36921875 777.4709375 -713.03921875 776.4809375 -712.69921875 775.4609375 C-710.71354167 775.265625 -708.72786458 775.0703125 -706.7421875 774.875 C-704.39933733 774.53428359 -704.39933733 774.53428359 -701.69921875 772.4609375 C-697.22010634 770.93972951 -693.42644881 770.23034091 -688.69921875 770.4609375 C-688.69921875 769.8009375 -688.69921875 769.1409375 -688.69921875 768.4609375 C-687.62671875 768.0896875 -686.55421875 767.7184375 -685.44921875 767.3359375 C-680.62488446 765.53863649 -676.10353853 763.21833943 -671.53125 760.86328125 C-667.29368913 758.764958 -663.3654271 757.26085893 -658.69921875 756.4609375 C-658.69921875 755.8009375 -658.69921875 755.1409375 -658.69921875 754.4609375 C-655.79372993 752.41924265 -654.29779829 751.4609375 -650.69921875 751.4609375 C-650.36921875 750.4709375 -650.03921875 749.4809375 -649.69921875 748.4609375 C-648.37921875 748.4609375 -647.05921875 748.4609375 -645.69921875 748.4609375 C-645.36921875 747.4709375 -645.03921875 746.4809375 -644.69921875 745.4609375 C-643.17578125 744.07421875 -643.17578125 744.07421875 -641.32421875 742.7734375 C-640.71835937 742.33644531 -640.1125 741.89945313 -639.48828125 741.44921875 C-637.69921875 740.4609375 -637.69921875 740.4609375 -634.69921875 740.4609375 C-634.36921875 739.4709375 -634.03921875 738.4809375 -633.69921875 737.4609375 C-633.03921875 737.4609375 -632.37921875 737.4609375 -631.69921875 737.4609375 C-631.69921875 736.8009375 -631.69921875 736.1409375 -631.69921875 735.4609375 C-630.01953125 733.953125 -630.01953125 733.953125 -627.82421875 732.3359375 C-627.10492187 731.79710937 -626.385625 731.25828125 -625.64453125 730.703125 C-623.69921875 729.4609375 -623.69921875 729.4609375 -621.69921875 729.4609375 C-621.36921875 728.4709375 -621.03921875 727.4809375 -620.69921875 726.4609375 C-620.03921875 726.4609375 -619.37921875 726.4609375 -618.69921875 726.4609375 C-618.69921875 725.8009375 -618.69921875 725.1409375 -618.69921875 724.4609375 C-618.03921875 724.1309375 -617.37921875 723.8009375 -616.69921875 723.4609375 C-616.41046875 722.6771875 -616.12171875 721.8934375 -615.82421875 721.0859375 C-614.48319783 717.9568887 -613.6538423 717.12321351 -610.69921875 715.4609375 C-607.1328125 715.1328125 -607.1328125 715.1328125 -603.13671875 715.2109375 C-602.12834961 715.21867188 -602.12834961 715.21867188 -601.09960938 715.2265625 C-598.04574515 715.27508467 -595.61448243 715.48918294 -592.69921875 716.4609375 C-590.77962871 715.92790335 -590.77962871 715.92790335 -588.82421875 715.0234375 C-585.63361029 713.72835658 -583.18823593 713.13384214 -579.69921875 713.4609375 C-579.69921875 712.8009375 -579.69921875 712.1409375 -579.69921875 711.4609375 C-578.89484375 711.1515625 -578.09046875 710.8421875 -577.26171875 710.5234375 C-572.01903276 707.93972144 -566.31663307 702.69576614 -563.69921875 697.4609375 C-563.03921875 697.4609375 -562.37921875 697.4609375 -561.69921875 697.4609375 C-561.69921875 696.4709375 -561.69921875 695.4809375 -561.69921875 694.4609375 C-560.36588542 693.12760417 -559.03255208 691.79427083 -557.69921875 690.4609375 C-553.73419223 685.09648985 -550.53922024 679.48174066 -547.69921875 673.4609375 C-546.69921875 671.4609375 -545.69921875 669.4609375 -544.69921875 667.4609375 C-544.03921875 667.4609375 -543.37921875 667.4609375 -542.69921875 667.4609375 C-542.59609375 666.7596875 -542.49296875 666.0584375 -542.38671875 665.3359375 C-541.69921875 662.4609375 -541.69921875 662.4609375 -540.19921875 659.7109375 C-538.57060716 656.18227905 -538.22963277 653.44081611 -538.0078125 649.609375 C-537.66226269 647.20364849 -536.83330756 645.59694688 -535.69921875 643.4609375 C-535.02733378 641.12910143 -534.36006458 638.79592608 -533.69921875 636.4609375 C-533.36921875 636.1309375 -533.03921875 635.8009375 -532.69921875 635.4609375 C-532.5805266 633.3617793 -532.53178061 631.25864586 -532.50976562 629.15625 C-532.50147232 628.49756424 -532.49317902 627.83887848 -532.4846344 627.16023254 C-532.46719223 625.72410526 -532.45203694 624.28794886 -532.43885803 622.85177612 C-532.41784407 620.57241404 -532.39081221 618.29319433 -532.36218262 616.01391602 C-532.30237809 611.16297846 -532.25040088 606.31197258 -532.19921875 601.4609375 C-532.1398126 595.86604696 -532.07715438 590.27122365 -532.00733948 584.67645264 C-531.98099073 582.44268956 -531.96002845 580.20891917 -531.93933105 577.97509766 C-531.81208596 566.6747902 -531.81208596 566.6747902 -531.11914062 561.15234375 C-530.44383898 557.52469552 -530.44383898 557.52469552 -531.69921875 554.4609375 C-531.81499147 552.40570284 -531.87767033 550.34729901 -531.91015625 548.2890625 C-531.93851563 547.06703125 -531.966875 545.845 -531.99609375 544.5859375 C-532.04785924 542.01836933 -532.09222299 539.45064044 -532.12890625 536.8828125 C-532.29371052 530.34557646 -532.50106033 525.22088608 -535.69921875 519.4609375 C-537.61298101 515.42077272 -538.09525608 511.76284465 -538.453125 507.3515625 C-538.50495043 505.45189889 -538.50495043 505.45189889 -539.69921875 504.4609375 C-540.07010836 502.65574824 -540.39663179 500.84132322 -540.69921875 499.0234375 C-541.30477394 495.11411212 -541.30477394 495.11411212 -542.69921875 491.4609375 C-542.97301316 488.96636621 -543.1447102 486.47201683 -543.3203125 483.96875 C-543.71066791 481.38516058 -544.50086692 479.7570162 -545.69921875 477.4609375 C-546.06321549 475.97259526 -546.37259651 474.47020742 -546.63671875 472.9609375 C-547.36589171 469.03729254 -548.25471776 465.19773742 -549.26171875 461.3359375 C-550.15972226 457.84719386 -550.89351452 454.48185369 -551.26171875 450.8984375 C-551.45472759 447.34536176 -551.45472759 447.34536176 -553.69921875 444.4609375 C-555.56095258 438.5993849 -556.85720829 432.59867173 -558.19921875 426.6015625 C-559.09075976 422.7150009 -560.17391574 419.15585256 -561.69921875 415.4609375 C-562.03255208 413.12760417 -562.36588542 410.79427083 -562.69921875 408.4609375 C-562.99699219 407.77257812 -563.29476563 407.08421875 -563.6015625 406.375 C-565.19838995 402.13573566 -565.92351742 397.77872323 -566.76171875 393.3359375 C-567.1050664 391.54133973 -567.45004878 389.74705374 -567.796875 387.953125 C-567.94648682 387.16276855 -568.09609863 386.37241211 -568.25024414 385.55810547 C-568.69651689 383.28467445 -568.69651689 383.28467445 -569.69921875 380.4609375 C-569.96591591 377.72623333 -570.14281095 374.99183242 -570.3203125 372.25 C-570.57642577 369.46427369 -570.57642577 369.46427369 -571.703125 367.0625 C-572.97951836 363.72886086 -573.05267836 360.77186899 -573.19921875 357.2109375 C-573.44706636 352.26411373 -573.98635909 347.6548282 -575.2265625 342.859375 C-576.1003571 338.425409 -576.21497165 333.90781634 -576.453125 329.40234375 C-576.51028496 326.52956798 -576.51028496 326.52956798 -577.69921875 324.4609375 C-577.88117756 322.02037888 -578.02722291 319.59229152 -578.13671875 317.1484375 C-578.30431643 311.96593623 -578.30431643 311.96593623 -579.70672607 307.04612732 C-580.76242555 304.29629994 -580.9525786 302.32978626 -580.95800781 299.39868164 C-580.96431213 298.41738785 -580.97061646 297.43609406 -580.97711182 296.42506409 C-580.97103912 294.85147377 -580.97103912 294.85147377 -580.96484375 293.24609375 C-580.9667572 292.15759628 -580.96867065 291.06909882 -580.97064209 289.94761658 C-580.9720013 287.64875049 -580.96832332 285.34987667 -580.95996094 283.05102539 C-580.94926827 279.53970003 -580.95986011 276.02888749 -580.97265625 272.51757812 C-580.97133441 270.28124887 -580.9687715 268.04491994 -580.96484375 265.80859375 C-580.96889221 264.76155777 -580.97294067 263.71452179 -580.97711182 262.63575745 C-580.94377335 257.42981792 -580.53071146 253.38176992 -578.69921875 248.4609375 C-578.35477168 245.21228809 -578.35477168 245.21228809 -578.3203125 241.8203125 C-578.28615234 240.58539063 -578.25199219 239.35046875 -578.21679688 238.078125 C-578.19037109 236.80195313 -578.16394531 235.52578125 -578.13671875 234.2109375 C-578.07698434 231.66396385 -578.01338639 229.1170769 -577.9453125 226.5703125 C-577.90942017 224.88373535 -577.90942017 224.88373535 -577.87280273 223.16308594 C-577.69921875 220.4609375 -577.69921875 220.4609375 -576.69921875 218.4609375 C-576.41979939 215.24983253 -576.25239352 212.03871827 -576.078125 208.8203125 C-575.69587365 205.43127995 -574.81335608 202.67252275 -573.69921875 199.4609375 C-573.30458891 197.36398288 -572.94951436 195.25915072 -572.63671875 193.1484375 C-571.80615517 187.56787392 -571.80615517 187.56787392 -570.69921875 186.4609375 C-570.49222312 184.96596908 -570.33242616 183.4642783 -570.19921875 181.9609375 C-569.81032986 177.57204861 -569.81032986 177.57204861 -568.69921875 176.4609375 C-568.37540367 174.40323988 -568.09034128 172.33938873 -567.82421875 170.2734375 C-567.10144958 165.43563215 -566.37861362 161.62888507 -563.69921875 157.4609375 C-563.36148437 156.90148437 -563.02375 156.34203125 -562.67578125 155.765625 C-558.30771097 148.99365027 -552.0870242 144.84045423 -544.8515625 141.515625 C-542.46467186 140.40257991 -542.46467186 140.40257991 -539.53125 138.37109375 C-535.23046737 135.9001028 -531.3170215 135.88742178 -526.44921875 136.0234375 C-525.18742798 136.04651978 -525.18742798 136.04651978 -523.90014648 136.07006836 C-510.14356071 136.49569381 -499.19961594 141.52213784 -488.69921875 150.4609375 C-487.35184902 152.11627745 -486.01587539 153.78106523 -484.69921875 155.4609375 C-484.03921875 155.7909375 -483.37921875 156.1209375 -482.69921875 156.4609375 C-481.79057905 158.1099503 -480.88331392 159.75974145 -479.984375 161.4140625 C-478.03784356 164.51431319 -475.58399149 167.09465741 -473.08984375 169.76171875 C-471.69921875 171.4609375 -471.69921875 171.4609375 -471.69921875 173.4609375 C-470.70921875 173.7909375 -469.71921875 174.1209375 -468.69921875 174.4609375 C-468.69921875 175.4509375 -468.69921875 176.4409375 -468.69921875 177.4609375 C-467.70921875 177.7909375 -466.71921875 178.1209375 -465.69921875 178.4609375 C-465.69921875 179.1209375 -465.69921875 179.7809375 -465.69921875 180.4609375 C-465.03921875 180.4609375 -464.37921875 180.4609375 -463.69921875 180.4609375 C-463.69921875 181.1209375 -463.69921875 181.7809375 -463.69921875 182.4609375 C-462.70921875 182.7909375 -461.71921875 183.1209375 -460.69921875 183.4609375 C-460.69921875 184.1209375 -460.69921875 184.7809375 -460.69921875 185.4609375 C-459.70921875 185.7909375 -458.71921875 186.1209375 -457.69921875 186.4609375 C-457.69921875 187.1209375 -457.69921875 187.7809375 -457.69921875 188.4609375 C-457.03921875 188.4609375 -456.37921875 188.4609375 -455.69921875 188.4609375 C-455.69921875 189.1209375 -455.69921875 189.7809375 -455.69921875 190.4609375 C-454.70921875 190.7909375 -453.71921875 191.1209375 -452.69921875 191.4609375 C-452.69921875 192.1209375 -452.69921875 192.7809375 -452.69921875 193.4609375 C-452.12945313 193.72261719 -451.5596875 193.98429688 -450.97265625 194.25390625 C-446.84064229 196.44770748 -443.33917842 199.54394046 -439.69921875 202.4609375 C-438.74982422 203.2034375 -438.74982422 203.2034375 -437.78125 203.9609375 C-436.38035462 205.07899177 -435.03316861 206.26380301 -433.69921875 207.4609375 C-433.69921875 208.1209375 -433.69921875 208.7809375 -433.69921875 209.4609375 C-432.70921875 209.7909375 -431.71921875 210.1209375 -430.69921875 210.4609375 C-430.69921875 211.1209375 -430.69921875 211.7809375 -430.69921875 212.4609375 C-430.15265625 212.53441406 -429.60609375 212.60789063 -429.04296875 212.68359375 C-425.79737315 213.76004962 -423.78539011 215.67816676 -421.19921875 217.8984375 C-416.77566449 221.68702321 -416.77566449 221.68702321 -411.69921875 224.4609375 C-411.69921875 225.1209375 -411.69921875 225.7809375 -411.69921875 226.4609375 C-411.03921875 226.4609375 -410.37921875 226.4609375 -409.69921875 226.4609375 C-409.69921875 227.1209375 -409.69921875 227.7809375 -409.69921875 228.4609375 C-409.14234375 228.5434375 -408.58546875 228.6259375 -408.01171875 228.7109375 C-405.69921875 229.4609375 -405.69921875 229.4609375 -403.38671875 231.3359375 C-400.30459014 233.77296942 -397.33425779 234.98227755 -393.69921875 236.4609375 C-389.17013503 238.54620313 -384.88879859 240.92064923 -380.63671875 243.5234375 C-375.52923106 246.62385434 -370.5965611 248.97014999 -364.82421875 250.5859375 C-361.69921875 251.4609375 -361.69921875 251.4609375 -360.69921875 252.4609375 C-359.22525136 252.66861979 -357.74430615 252.82809767 -356.26171875 252.9609375 C-351.91839683 253.35134846 -351.91839683 253.35134846 -349.69921875 254.4609375 C-348.13176288 254.5559902 -346.56032485 254.58888439 -344.98999023 254.59033203 C-344.01235214 254.59348419 -343.03471405 254.59663635 -342.02745056 254.59988403 C-340.43991722 254.59684769 -340.43991722 254.59684769 -338.8203125 254.59375 C-337.73790787 254.59470673 -336.65550323 254.59566345 -335.54029846 254.59664917 C-333.24960268 254.59733048 -330.95890498 254.59547961 -328.66821289 254.59130859 C-325.14790547 254.58595451 -321.62772534 254.59125794 -318.10742188 254.59765625 C-315.88671847 254.59699556 -313.66601514 254.59571459 -311.4453125 254.59375 C-310.38493271 254.59577423 -309.32455292 254.59779846 -308.23204041 254.59988403 C-307.25755447 254.59673187 -306.28306854 254.59357971 -305.27905273 254.59033203 C-304.41682602 254.58953644 -303.5545993 254.58874084 -302.66624451 254.58792114 C-300.69630486 254.67805183 -300.69630486 254.67805183 -299.69921875 253.4609375 C-296.83654308 253.38768582 -293.99849975 253.36855545 -291.13671875 253.3984375 C-290.33041016 253.40294922 -289.52410156 253.40746094 -288.69335938 253.41210938 C-286.69528119 253.42393232 -284.69724092 253.44186836 -282.69921875 253.4609375 C-282.36921875 252.4709375 -282.03921875 251.4809375 -281.69921875 250.4609375 C-280.879375 250.41195312 -280.05953125 250.36296875 -279.21484375 250.3125 C-277.59835937 250.20035156 -277.59835937 250.20035156 -275.94921875 250.0859375 C-274.34820313 249.98152344 -274.34820313 249.98152344 -272.71484375 249.875 C-269.78287298 249.63889302 -269.78287298 249.63889302 -267.703125 248.453125 C-264.93050472 247.08032665 -262.46392367 247.10557698 -259.38671875 246.9609375 C-250.75052789 246.3935263 -243.61193185 243.77011227 -235.69921875 240.4609375 C-234.96703125 240.16316406 -234.23484375 239.86539063 -233.48046875 239.55859375 C-224.23346591 235.65542045 -215.69536769 230.3445968 -207.5390625 224.52734375 C-205.69921875 223.4609375 -205.69921875 223.4609375 -202.69921875 223.4609375 C-202.69921875 222.8009375 -202.69921875 222.1409375 -202.69921875 221.4609375 C-201.99539063 221.20441406 -201.2915625 220.94789063 -200.56640625 220.68359375 C-193.60556924 217.98467914 -187.55828242 214.68901245 -181.42138672 210.49633789 C-178.51622048 208.52949924 -176.12053142 207.2032978 -172.69921875 206.4609375 C-172.36921875 205.8009375 -172.03921875 205.1409375 -171.69921875 204.4609375 C-170.70921875 204.4609375 -169.71921875 204.4609375 -168.69921875 204.4609375 C-168.69921875 203.8009375 -168.69921875 203.1409375 -168.69921875 202.4609375 C-167.04921875 202.1309375 -165.39921875 201.8009375 -163.69921875 201.4609375 C-163.69921875 200.8009375 -163.69921875 200.1409375 -163.69921875 199.4609375 C-160.74440383 196.71718079 -159.92449967 196.4609375 -155.69921875 196.4609375 C-155.36921875 195.4709375 -155.03921875 194.4809375 -154.69921875 193.4609375 C-153.05447115 192.74189122 -151.3832257 192.0825023 -149.69921875 191.4609375 C-148.111606 190.4579612 -146.54806115 189.41581144 -145.01171875 188.3359375 C-140.91931444 185.4609375 -140.91931444 185.4609375 -138.69921875 185.4609375 C-138.69921875 184.8009375 -138.69921875 184.1409375 -138.69921875 183.4609375 C-136.87109375 181.8046875 -136.87109375 181.8046875 -134.44921875 179.9609375 C-133.6603125 179.3525 -132.87140625 178.7440625 -132.05859375 178.1171875 C-129.98784196 176.66354717 -127.99332555 175.51328007 -125.69921875 174.4609375 C-125.69921875 173.8009375 -125.69921875 173.1409375 -125.69921875 172.4609375 C-124.08203564 171.0280657 -122.40298503 169.66469001 -120.69921875 168.3359375 C-116.2229644 164.77226145 -112.16879607 161.06570499 -108.2578125 156.89453125 C-106.69921875 155.4609375 -106.69921875 155.4609375 -104.69921875 155.4609375 C-104.69921875 154.8009375 -104.69921875 154.1409375 -104.69921875 153.4609375 C-103.98121094 152.89890625 -103.26320313 152.336875 -102.5234375 151.7578125 C-99.22456856 149.07491494 -96.99470023 146.12926298 -94.51171875 142.7109375 C-92.9557426 140.57061096 -91.37495939 138.51334904 -89.69921875 136.4609375 C-89.03921875 136.4609375 -88.37921875 136.4609375 -87.69921875 136.4609375 C-87.47234375 135.7390625 -87.24546875 135.0171875 -87.01171875 134.2734375 C-85.438561 130.90238517 -83.35274744 129.05128693 -80.69921875 126.4609375 C-79.97734375 125.3678125 -79.25546875 124.2746875 -78.51171875 123.1484375 C-77.91359375 122.2615625 -77.31546875 121.3746875 -76.69921875 120.4609375 C-76.03921875 120.4609375 -75.37921875 120.4609375 -74.69921875 120.4609375 C-74.36921875 118.8109375 -74.03921875 117.1609375 -73.69921875 115.4609375 C-73.03921875 115.4609375 -72.37921875 115.4609375 -71.69921875 115.4609375 C-71.59480469 114.91308594 -71.49039063 114.36523438 -71.3828125 113.80078125 C-70.54641689 110.93791855 -69.23273059 108.6165904 -67.76171875 106.0234375 C-65.79849129 102.55522977 -64.1589184 99.1645676 -62.69921875 95.4609375 C-61.2121425 92.4221295 -59.67424096 89.41198103 -58.13671875 86.3984375 C-56.67973719 83.5135414 -56.67973719 83.5135414 -55.57421875 80.6484375 C-54.69921875 78.4609375 -54.69921875 78.4609375 -53.69921875 77.4609375 C-53.46575879 75.52655499 -53.23373785 73.591979 -53.01171875 71.65625 C-52.45378522 67.73676697 -51.49836823 63.96521887 -49.63671875 60.4609375 C-48.27601666 57.55810638 -48.06406373 54.62292729 -47.69921875 51.4609375 C-46.21421875 50.9659375 -46.21421875 50.9659375 -44.69921875 50.4609375 C-44.78171875 49.6359375 -44.86421875 48.8109375 -44.94921875 47.9609375 C-44.55672173 42.46597922 -41.89959328 38.37264509 -39.01171875 33.7734375 C-37.61509715 31.31272326 -37.23438787 29.21323584 -36.69921875 26.4609375 C-36.03921875 26.1309375 -35.37921875 25.8009375 -34.69921875 25.4609375 C-34.41046875 24.7184375 -34.12171875 23.9759375 -33.82421875 23.2109375 C-32.54734268 20.08968487 -30.90374764 17.99948592 -28.69921875 15.4609375 C-28.18359375 14.8628125 -27.66796875 14.2646875 -27.13671875 13.6484375 C-25.69921875 12.4609375 -25.69921875 12.4609375 -22.69921875 12.4609375 C-22.69921875 11.4709375 -22.69921875 10.4809375 -22.69921875 9.4609375 C-16.0365752 2.96486004 -9.30765775 -0.17778945 0 0 Z " fill="#49BEBC" transform="translate(1014.69921875,-0.4609375)"/>
<path d="M0 0 C0.495 1.485 0.495 1.485 1 3 C0.34 3 -0.32 3 -1 3 C-1 3.66 -1 4.32 -1 5 C-3.64738916 6.4606285 -4.89448334 7 -8 7 C-8.06574219 7.62648437 -8.13148438 8.25296875 -8.19921875 8.8984375 C-9 11 -9 11 -11.14453125 11.9765625 C-12.02496094 12.19054687 -12.90539062 12.40453125 -13.8125 12.625 C-16.42456452 13.28090985 -18.73257342 13.86408668 -21.13671875 15.0859375 C-23 16 -23 16 -26 16 C-26 16.66 -26 17.32 -26 18 C-27.98 18 -29.96 18 -32 18 C-29.50407591 14.25611387 -28.2318316 14.30802068 -24 13 C-15.48640499 9.69571362 -7.58438161 5.0562544 0 0 Z " fill="#1C9898" transform="translate(803,227)"/>
<path d="M0 0 C0.99 0 1.98 0 3 0 C3.10841951 1.91541138 3.18578079 3.83259773 3.25 5.75 C3.29640625 6.81734375 3.3428125 7.8846875 3.390625 8.984375 C2.91735478 12.63802112 1.80844958 13.72228105 -1 16 C-1.66 15.01 -2.32 14.02 -3 13 C-2.690625 12.236875 -2.38125 11.47375 -2.0625 10.6875 C-0.7544821 7.37898414 -1.38859759 5.43913856 -2 2 C-1.34 1.34 -0.68 0.68 0 0 Z " fill="#2ABBBA" transform="translate(1052,283)"/>
<path d="M0 0 C0.66 0.33 1.32 0.66 2 1 C1.67 2.32 1.34 3.64 1 5 C-1.97 5.66 -4.94 6.32 -8 7 C-8.33 8.32 -8.66 9.64 -9 11 C-11.31 11.33 -13.62 11.66 -16 12 C-16 12.66 -16 13.32 -16 14 C-16.66 13.67 -17.32 13.34 -18 13 C-13.19812728 8.06474193 -8.87848342 4.82124067 -2.70703125 1.8671875 C-1.0155053 1.11889274 -1.0155053 1.11889274 0 0 Z " fill="#1C9492" transform="translate(473,139)"/>
<path d="M0 0 C0.66 0.66 1.32 1.32 2 2 C1.828125 4.5390625 1.828125 4.5390625 1.25 7.625 C1.05148437 8.69492187 0.85296875 9.76484375 0.6484375 10.8671875 C-0.12724713 14.61477229 -1.00513315 18.30478027 -2 22 C-2.99 22 -3.98 22 -5 22 C-4.67 20.68 -4.34 19.36 -4 18 C-3.34 18 -2.68 18 -2 18 C-2.37125 16.989375 -2.7425 15.97875 -3.125 14.9375 C-4.36654256 10.71280657 -3.49533261 8.07062767 -2 4 C-1.34 4 -0.68 4 0 4 C0 2.68 0 1.36 0 0 Z " fill="#19ADAD" transform="translate(1039,354)"/>
<path d="M0 0 C2.46855402 3.70283104 2 5.61885239 2 10 C2.350625 10.99 2.70125 11.98 3.0625 13 C4.20978821 16.67132226 3.74631375 19.26843127 3 23 C-0.40845782 17.88731328 -0.11919012 12.63415271 -0.0625 6.625 C-0.05347656 5.37976563 -0.04445313 4.13453125 -0.03515625 2.8515625 C-0.02355469 1.91054688 -0.01195312 0.96953125 0 0 Z " fill="#199795" transform="translate(439,326)"/>
<path d="M0 0 C0.33 0.66 0.66 1.32 1 2 C1.99 2.33 2.98 2.66 4 3 C3.44570312 3.48210938 2.89140625 3.96421875 2.3203125 4.4609375 C1.59585938 5.09257813 0.87140625 5.72421875 0.125 6.375 C-0.59429687 7.00148438 -1.31359375 7.62796875 -2.0546875 8.2734375 C-3.4076598 9.47426834 -4.7208345 10.7208345 -6 12 C-6.33 10.68 -6.66 9.36 -7 8 C-6.34 7.67 -5.68 7.34 -5 7 C-3.86649466 4.98330173 -3.86649466 4.98330173 -3 3 C-2.34 3 -1.68 3 -1 3 C-0.67 2.01 -0.34 1.02 0 0 Z " fill="#2DB4B0" transform="translate(154,794)"/>
<path d="M0 0 C1.125 1.6875 1.125 1.6875 2 4 C1.35891863 5.67667436 0.68528045 7.34089996 0 9 C-0.47468918 12.32282426 -0.75305276 15.65321502 -1 19 C-2.32 18.67 -3.64 18.34 -5 18 C-4.01 17.67 -3.02 17.34 -2 17 C-2.165 16.34 -2.33 15.68 -2.5 15 C-3.12183299 11.26900206 -3.06408926 7.78126622 -3 4 C-2.01 4 -1.02 4 0 4 C0 2.68 0 1.36 0 0 Z " fill="#27A5A5" transform="translate(1042,334)"/>
<path d="M0 0 C1.13115234 0.07831055 1.13115234 0.07831055 2.28515625 0.15820312 C4.1487937 0.28795004 6.01194996 0.42457488 7.875 0.5625 C5.875 2.5625 5.875 2.5625 4 2.72265625 C3.29875 2.69042969 2.5975 2.65820312 1.875 2.625 C-1.24341564 2.46651197 -1.24341564 2.46651197 -4.125 3.5625 C-6.4579866 3.60272391 -8.79206666 3.60570247 -11.125 3.5625 C-10.795 2.5725 -10.465 1.5825 -10.125 0.5625 C-6.91158631 -1.04420684 -3.49541032 -0.26260855 0 0 Z " fill="#34A3A3" transform="translate(487.125,136.4375)"/>
<path d="M0 0 C0 0.99 0 1.98 0 3 C-0.66 3 -1.32 3 -2 3 C-2.37318359 3.91845703 -2.37318359 3.91845703 -2.75390625 4.85546875 C-4.21707954 7.37359457 -5.34158743 8.06046768 -7.9375 9.3125 C-8.62714844 9.65925781 -9.31679688 10.00601563 -10.02734375 10.36328125 C-12 11 -12 11 -15 10 C-14.360625 9.896875 -13.72125 9.79375 -13.0625 9.6875 C-12.0415625 9.3471875 -12.0415625 9.3471875 -11 9 C-10.67 8.01 -10.34 7.02 -10 6 C-8.68 6 -7.36 6 -6 6 C-5.67 5.01 -5.34 4.02 -5 3 C-2.4375 1.3125 -2.4375 1.3125 0 0 Z " fill="#209393" transform="translate(375,742)"/>
<path d="M0 0 C0.99 0 1.98 0 3 0 C-1.52941176 12.76470588 -1.52941176 12.76470588 -6 15 C-5.47731534 12.23723823 -4.89130413 9.6739124 -4 7 C-3.34 7 -2.68 7 -2 7 C-1.34 4.69 -0.68 2.38 0 0 Z " fill="#18A7A5" transform="translate(963,739)"/>
<path d="M0 0 C0.33 0.99 0.66 1.98 1 3 C0.34 3 -0.32 3 -1 3 C-1 3.66 -1 4.32 -1 5 C-3.64738916 6.4606285 -4.89448334 7 -8 7 C-8.33 8.32 -8.66 9.64 -9 11 C-9.66 11 -10.32 11 -11 11 C-10.4264514 7.67341813 -9.64008597 6.11206878 -7 4 C-4.70064102 2.59170664 -2.36717577 1.29524712 0 0 Z " fill="#1BABAA" transform="translate(803,227)"/>
<path d="M0 0 C0.33 0 0.66 0 1 0 C1 5.61 1 11.22 1 17 C0.01 16.67 -0.98 16.34 -2 16 C-2.20413361 10.26157749 -2.27141454 5.39460953 0 0 Z " fill="#229C9C" transform="translate(439,214)"/>
<path d="M0 0 C0.99 0.33 1.98 0.66 3 1 C3.20413361 6.73842251 3.27141454 11.60539047 1 17 C0.67 17 0.34 17 0 17 C0 11.39 0 5.78 0 0 Z " fill="#22A9A8" transform="translate(1076,134)"/>
<path d="M0 0 C2 3 2 3 1.64453125 5.8828125 C1.36996094 6.95273437 1.09539063 8.02265625 0.8125 9.125 C0.55082031 10.20007813 0.28914063 11.27515625 0.01953125 12.3828125 C-0.31691406 13.24648438 -0.65335938 14.11015625 -1 15 C-1.99 15.33 -2.98 15.66 -4 16 C-3.125 10.125 -3.125 10.125 -2 9 C-1.79395915 7.67218122 -1.6337041 6.33704105 -1.5 5 C-1.11111111 1.11111111 -1.11111111 1.11111111 0 0 Z " fill="#24A2A1" transform="translate(37,933)"/>
<path d="M0 0 C2.7108976 2.7108976 2 4.26489579 2 8 C2.350625 8.680625 2.70125 9.36125 3.0625 10.0625 C4.32763276 12.6771077 3.7591193 14.26717051 3 17 C0.41451372 14.41451372 0.02358153 12.70461615 -0.09765625 9.08203125 C-0.08605469 8.00308594 -0.07445312 6.92414063 -0.0625 5.8125 C-0.05347656 4.72582031 -0.04445313 3.63914062 -0.03515625 2.51953125 C-0.02355469 1.68808594 -0.01195312 0.85664063 0 0 Z " fill="#1EA5A3" transform="translate(442,352)"/>
<path d="M0 0 C1.010625 0.598125 2.02125 1.19625 3.0625 1.8125 C6.60978225 3.84675778 10.21607469 5.45554069 14 7 C13.34 7.66 12.68 8.32 12 9 C11.34 8.34 10.68 7.68 10 7 C7.80295489 6.32348793 7.80295489 6.32348793 5.375 5.875 C4.55773437 5.70742187 3.74046875 5.53984375 2.8984375 5.3671875 C2.27195312 5.24601563 1.64546875 5.12484375 1 5 C0.67 3.35 0.34 1.7 0 0 Z " fill="#12AB9F" transform="translate(632,242)"/>
<path d="M0 0 C0.33 0 0.66 0 1 0 C1.36368892 1.60203467 1.71561952 3.20674203 2.0625 4.8125 C2.25972656 5.70582031 2.45695312 6.59914063 2.66015625 7.51953125 C3 10 3 10 2 13 C1.96079185 14.99961564 1.95556653 17.00049364 2 19 C-0.52775351 15.20836973 -0.22443035 12.19125969 -0.125 7.8125 C-0.11597656 7.06291016 -0.10695313 6.31332031 -0.09765625 5.54101562 C-0.07412578 3.69387346 -0.03825561 1.84689588 0 0 Z " fill="#0FAFAF" transform="translate(483,538)"/>
<path d="M0 0 C0.99 0.33 1.98 0.66 3 1 C3 1.66 3 2.32 3 3 C3.99 3.33 4.98 3.66 6 4 C6 4.66 6 5.32 6 6 C7.32 6.33 8.64 6.66 10 7 C10 7.99 10 8.98 10 10 C9.67 9.34 9.34 8.68 9 8 C6.47266765 7.34444881 6.47266765 7.34444881 4 7 C3.67 6.01 3.34 5.02 3 4 C2.01 4 1.02 4 0 4 C0 2.68 0 1.36 0 0 Z " fill="#1EB8B7" transform="translate(578,206)"/>
<path d="M0 0 C0.33 0 0.66 0 1 0 C1 3.96 1 7.92 1 12 C0.01 12 -0.98 12 -2 12 C-2 9.78285318 -1.79259257 7.64284881 -1.5625 5.4375 C-1.48128906 4.63183594 -1.40007812 3.82617188 -1.31640625 2.99609375 C-1 1 -1 1 0 0 Z " fill="#28A69E" transform="translate(1032,397)"/>
<path d="M0 0 C-5.5825192 3.32575612 -9.49686791 4.46450943 -16 4 C-13.40608858 2.59496465 -10.73026086 1.42294192 -8 0.3125 C-7.34 0.04050781 -6.68 -0.23148438 -6 -0.51171875 C-3.65456399 -1.08433496 -2.26562596 -0.75352292 0 0 Z " fill="#24CBC9" transform="translate(345,1094)"/>
<path d="M0 0 C-7.71428571 6 -7.71428571 6 -12 6 C-12 5.34 -12 4.68 -12 4 C-7.9090934 0.68831371 -5.26371362 -0.50130606 0 0 Z " fill="#21ACAC" transform="translate(787,870)"/>
<path d="M0 0 C0.33 0 0.66 0 1 0 C1 1.98 1 3.96 1 6 C1.99 6.33 2.98 6.66 4 7 C3.34 8.65 2.68 10.3 2 12 C1.34 11.67 0.68 11.34 0 11 C-0.44921875 8.75 -0.44921875 8.75 -0.6875 6 C-0.77386719 5.0925 -0.86023438 4.185 -0.94921875 3.25 C-0.96597656 2.5075 -0.98273438 1.765 -1 1 C-0.67 0.67 -0.34 0.34 0 0 Z " fill="#23A4A4" transform="translate(459,426)"/>
<path d="M0 0 C-0.66 0.66 -1.32 1.32 -2 2 C-3.32 2 -4.64 2 -6 2 C-6.33 2.99 -6.66 3.98 -7 5 C-7.99 5 -8.98 5 -10 5 C-9.8125 3.125 -9.8125 3.125 -9 1 C-5.6868424 -0.8804408 -3.58825658 -1.32898392 0 0 Z " fill="#22A69B" transform="translate(879,820)"/>
<path d="M0 0 C0.99 0.66 1.98 1.32 3 2 C1.88266271 3.50571657 0.75589965 5.00444292 -0.375 6.5 C-1.00148438 7.3353125 -1.62796875 8.170625 -2.2734375 9.03125 C-2.84320313 9.6809375 -3.41296875 10.330625 -4 11 C-4.66 11 -5.32 11 -6 11 C-4.54955729 6.89041233 -2.48889248 3.56741255 0 0 Z " fill="#229A98" transform="translate(462,682)"/>
<path d="M0 0 C0.33 0 0.66 0 1 0 C1.33 3.96 1.66 7.92 2 12 C1.01 12.33 0.02 12.66 -1 13 C-1.07654536 8.48382401 -1.10228696 4.40914783 0 0 Z " fill="#32D0D0" transform="translate(1023,446)"/>
<path d="M0 0 C3.96 0 7.92 0 12 0 C11.01 1.485 11.01 1.485 10 3 C8.68 3 7.36 3 6 3 C6 2.34 6 1.68 6 1 C4.68 1 3.36 1 2 1 C2 1.66 2 2.32 2 3 C1.01 3 0.02 3 -1 3 C-0.67 2.01 -0.34 1.02 0 0 Z " fill="#249F9E" transform="translate(733,250)"/>
<path d="M0 0 C0.33 0.66 0.66 1.32 1 2 C0.34 2 -0.32 2 -1 2 C-1.33 2.99 -1.66 3.98 -2 5 C-4.5625 6.6875 -4.5625 6.6875 -7 8 C-7 7.34 -7 6.68 -7 6 C-7.66 5.67 -8.32 5.34 -9 5 C-6.03 3.35 -3.06 1.7 0 0 Z " fill="#228D8D" transform="translate(232,796)"/>
<path d="M0 0 C2.96404505 2.80804268 5.44499019 5.18315774 7 9 C4.525 8.01 4.525 8.01 2 7 C2 6.34 2 5.68 2 5 C1.34 5 0.68 5 0 5 C0 3.35 0 1.7 0 0 Z " fill="#168E8E" transform="translate(1064,15)"/>
<path d="M0 0 C0 0.66 0 1.32 0 2 C-2.65228812 3.07525194 -5.28368454 4.09456151 -8 5 C-8.66 4.34 -9.32 3.68 -10 3 C-6.48812804 0.59185923 -4.27343092 -0.36629408 0 0 Z " fill="#2BB2B2" transform="translate(527,1007)"/>
<path d="M0 0 C0.33 0 0.66 0 1 0 C1.63019694 10.15317287 1.63019694 10.15317287 -1 13.6875 C-1.66 14.120625 -2.32 14.55375 -3 15 C-2 10 -1 5 0 0 Z " fill="#27A3A3" transform="translate(981,695)"/>
<path d="M0 0 C0.66 0.99 1.32 1.98 2 3 C0.35 5.31 -1.3 7.62 -3 10 C-3.99 9.67 -4.98 9.34 -6 9 C-4.7260411 6.96166576 -3.38938077 4.96147874 -2 3 C-1.34 3 -0.68 3 0 3 C0 2.01 0 1.02 0 0 Z " fill="#1C9C9B" transform="translate(453,694)"/>
<path d="M0 0 C0.99 0.33 1.98 0.66 3 1 C3.33 3.64 3.66 6.28 4 9 C3.01 9 2.02 9 1 9 C0.67 6.03 0.34 3.06 0 0 Z " fill="#2FAAA8" transform="translate(449,393)"/>
<path d="M0 0 C0.66 0 1.32 0 2 0 C1.67 3.63 1.34 7.26 1 11 C0.34 11 -0.32 11 -1 11 C-1.14285714 3.57142857 -1.14285714 3.57142857 0 0 Z " fill="#108E8E" transform="translate(435,250)"/>
<path d="M0 0 C0.66 0.33 1.32 0.66 2 1 C0.6875 3.9375 0.6875 3.9375 -1 7 C-1.99 7.33 -2.98 7.66 -4 8 C-4 8.66 -4 9.32 -4 10 C-4.66 10 -5.32 10 -6 10 C-4.34832443 6.4213696 -2.21713508 3.25179812 0 0 Z " fill="#20A9A9" transform="translate(938,120)"/>
<path d="M0 0 C-0.33 0.99 -0.66 1.98 -1 3 C-3.91038896 4.4158649 -6.846502 5.29922267 -10 6 C-9.34 5.67 -8.68 5.34 -8 5 C-7.7834375 4.01 -7.7834375 4.01 -7.5625 3 C-7.376875 2.34 -7.19125 1.68 -7 1 C-4 0 -4 0 0 0 Z " fill="#27A4A4" transform="translate(432,1052)"/>
<path d="M0 0 C0.99 0.33 1.98 0.66 3 1 C0.75 3.5625 0.75 3.5625 -2 6 C-4.3125 5.8125 -4.3125 5.8125 -6 5 C-1.60546875 0.99609375 -1.60546875 0.99609375 0 0 Z " fill="#23B7B5" transform="translate(138,810)"/>
<path d="M0 0 C0.66 0 1.32 0 2 0 C1.34 2.97 0.68 5.94 0 9 C-0.66 9 -1.32 9 -2 9 C-1.125 1.125 -1.125 1.125 0 0 Z " fill="#1FA1A1" transform="translate(444,186)"/>
<path d="M0 0 C-0.33 1.32 -0.66 2.64 -1 4 C-3.31 4.33 -5.62 4.66 -8 5 C-8 5.66 -8 6.32 -8 7 C-8.66 6.67 -9.32 6.34 -10 6 C-4.30769231 0 -4.30769231 0 0 0 Z " fill="#20A7A7" transform="translate(465,146)"/>
<path d="M0 0 C0.66 0.33 1.32 0.66 2 1 C1.67 3.64 1.34 6.28 1 9 C0.01 8.67 -0.98 8.34 -2 8 C-1.125 2.25 -1.125 2.25 0 0 Z " fill="#23AFAE" transform="translate(1055,274)"/>
<path d="M0 0 C0.66 0 1.32 0 2 0 C1.67 0.99 1.34 1.98 1 3 C-1.91038896 4.4158649 -4.846502 5.29922267 -8 6 C-8 5.01 -8 4.02 -8 3 C-5.36 2.67 -2.72 2.34 0 2 C0 1.34 0 0.68 0 0 Z " fill="#19B3A8" transform="translate(476,1030)"/>
<path d="M0 0 C0.99 0.33 1.98 0.66 3 1 C2.67 1.99 2.34 2.98 2 4 C1.34 4 0.68 4 0 4 C-0.66 5.32 -1.32 6.64 -2 8 C-2.33 8 -2.66 8 -3 8 C-3.36923077 3.44615385 -3.36923077 3.44615385 -1.5 1.1875 C-1.005 0.795625 -0.51 0.40375 0 0 Z " fill="#24A1A1" transform="translate(949,761)"/>
<path d="M0 0 C3.625 -0.1875 3.625 -0.1875 7 0 C6.67 0.99 6.34 1.98 6 3 C3.36 3 0.72 3 -2 3 C-1.34 2.01 -0.68 1.02 0 0 Z " fill="#2AA3A3" transform="translate(715,253)"/>
<path d="M0 0 C0.93065133 2.60582371 1.14917407 3.64198224 0.0625 6.25 C-0.4634375 7.11625 -0.4634375 7.11625 -1 8 C-1.66 8 -2.32 8 -3 8 C-3.33 8.99 -3.66 9.98 -4 11 C-3.48964169 6.6109185 -2.47785723 3.66291938 0 0 Z " fill="#118686" transform="translate(452,156)"/>
<path d="M0 0 C1.46726798 3.81489674 0.43336419 6.29011622 -1 10 C-3 8 -3 8 -3.125 5.375 C-3.08375 4.59125 -3.0425 3.8075 -3 3 C-2.01 2.67 -1.02 2.34 0 2 C0 1.34 0 0.68 0 0 Z " fill="#1AAA94" transform="translate(1048,310)"/>
<path d="M0 0 C0.33 0.99 0.66 1.98 1 3 C-0.32 4.32 -1.64 5.64 -3 7 C-3.66 6.01 -4.32 5.02 -5 4 C-3.35 2.68 -1.7 1.36 0 0 Z " fill="#1F8281" transform="translate(1054,292)"/>
<path d="M0 0 C0.33 0 0.66 0 1 0 C1.33 3.63 1.66 7.26 2 11 C-1 8 -1 8 -1.07421875 5.95703125 C-0.71614583 3.97135417 -0.35807292 1.98567708 0 0 Z " fill="#25A2A2" transform="translate(1061,237)"/>
<path d="M0 0 C0.66 0.33 1.32 0.66 2 1 C1.6875 3.875 1.6875 3.875 1 7 C0.01 7.66 -0.98 8.32 -2 9 C-1.7215625 7.824375 -1.7215625 7.824375 -1.4375 6.625 C-0.74037734 4.02910225 -0.74037734 4.02910225 -2 2 C-1.34 2 -0.68 2 0 2 C0 1.34 0 0.68 0 0 Z " fill="#21A1A0" transform="translate(1064,227)"/>
<path d="M0 0 C0.66 0.33 1.32 0.66 2 1 C2 1.66 2 2.32 2 3 C2.99 3.33 3.98 3.66 5 4 C5.6875 6.0625 5.6875 6.0625 6 8 C2.31197956 6.77065985 1.27643027 5.06140622 -1 2 C-0.67 1.34 -0.34 0.68 0 0 Z " fill="#19B6B4" transform="translate(1058,9)"/>
<path d="M0 0 C-0.33 0.99 -0.66 1.98 -1 3 C-2.32 3 -3.64 3 -5 3 C-5 3.66 -5 4.32 -5 5 C-5.99 5.33 -6.98 5.66 -8 6 C-8 5.01 -8 4.02 -8 3 C-2.25 0 -2.25 0 0 0 Z " fill="#189090" transform="translate(591,976)"/>
<path d="M0 0 C1.32 0.33 2.64 0.66 4 1 C1.36 2.65 -1.28 4.3 -4 6 C-4.33 4.68 -4.66 3.36 -5 2 C-3.35 2 -1.7 2 0 2 C0 1.34 0 0.68 0 0 Z " fill="#188D8C" transform="translate(805,857)"/>
<path d="M0 0 C0.66 1.32 1.32 2.64 2 4 C1.01 4.33 0.02 4.66 -1 5 C-1.33 4.67 -1.66 4.34 -2 4 C-2.33 4.66 -2.66 5.32 -3 6 C-3.66 6 -4.32 6 -5 6 C-3.63016497 2.83884224 -3.0109362 2.0072908 0 0 Z " fill="#1E8988" transform="translate(404,715)"/>
<path d="M0 0 C0.66 0.66 1.32 1.32 2 2 C-4.625 5.125 -4.625 5.125 -8 4 C-7.67 3.34 -7.34 2.68 -7 2 C-4.6859378 1.26924352 -2.35171131 0.59861742 0 0 Z " fill="#157B7B" transform="translate(322,1101)"/>
<path d="M0 0 C0.33 0 0.66 0 1 0 C0.25 6.75 0.25 6.75 -2 9 C-2.125 5.625 -2.125 5.625 -2 2 C-1.34 1.34 -0.68 0.68 0 0 Z " fill="#269E9E" transform="translate(30,970)"/>
<path d="M0 0 C-0.33 1.32 -0.66 2.64 -1 4 C-3.31 4.33 -5.62 4.66 -8 5 C-8 4.34 -8 3.68 -8 3 C-2.25 0 -2.25 0 0 0 Z " fill="#24AFA0" transform="translate(344,761)"/>
<path d="M0 0 C-1 3 -1 3 -3.4375 4.75 C-4.7059375 5.36875 -4.7059375 5.36875 -6 6 C-6.66 5.67 -7.32 5.34 -8 5 C-8 4.34 -8 3.68 -8 3 C-6.68 3 -5.36 3 -4 3 C-4 2.34 -4 1.68 -4 1 C-2 0 -2 0 0 0 Z " fill="#26A8A4" transform="translate(360,753)"/>
<path d="M0 0 C0.66 0.66 1.32 1.32 2 2 C0.515 4.475 0.515 4.475 -1 7 C-1.99 6.67 -2.98 6.34 -4 6 C-4 5.01 -4 4.02 -4 3 C-2.68 3.33 -1.36 3.66 0 4 C0 2.68 0 1.36 0 0 Z " fill="#218D8D" transform="translate(1058,266)"/>
<path d="M0 0 C-0.1875 1.875 -0.1875 1.875 -1 4 C-3.5625 5.25 -3.5625 5.25 -6 6 C-6 5.01 -6 4.02 -6 3 C-2.66666667 0 -2.66666667 0 0 0 Z " fill="#1AA3A3" transform="translate(857,196)"/>
<path d="M0 0 C1.65 0 3.3 0 5 0 C5.66 1.32 6.32 2.64 7 4 C3.73045798 3.43628586 2.17424117 2.50037734 0 0 Z " fill="#22BCBC" transform="translate(63,1129)"/>
<path d="M0 0 C-2.3125 1.5625 -2.3125 1.5625 -5 3 C-5.99 2.67 -6.98 2.34 -8 2 C-6.14210462 -1.71579076 -3.44525918 -1.06921837 0 0 Z " fill="#1B9F95" transform="translate(668,938)"/>
<path d="M0 0 C1.32 0.33 2.64 0.66 4 1 C4.33 2.98 4.66 4.96 5 7 C3.29115995 5.37660195 1.62553283 3.70680947 0 2 C0 1.34 0 0.68 0 0 Z " fill="#188584" transform="translate(22,890)"/>
<path d="M0 0 C0.33 0.99 0.66 1.98 1 3 C0.34 3 -0.32 3 -1 3 C-1 3.66 -1 4.32 -1 5 C-2.32 5 -3.64 5 -5 5 C-4 2 -4 2 -1.9375 0.8125 C-1.298125 0.544375 -0.65875 0.27625 0 0 Z " fill="#1A9A9A" transform="translate(244,787)"/>
<path d="M0 0 C2 2 2 2 2.125 4.625 C2.08375 5.40875 2.0425 6.1925 2 7 C1.01 7.495 1.01 7.495 0 8 C-0.38063221 5.6739143 -0.71269945 3.33944736 -1 1 C-0.67 0.67 -0.34 0.34 0 0 Z " fill="#1C9E9E" transform="translate(467,459)"/>
<path d="M0 0 C0.33 1.32 0.66 2.64 1 4 C-2 6 -2 6 -4.1875 5.625 C-4.785625 5.41875 -5.38375 5.2125 -6 5 C-5.34 5 -4.68 5 -4 5 C-4 4.34 -4 3.68 -4 3 C-2 1.375 -2 1.375 0 0 Z " fill="#23D8D6" transform="translate(880,180)"/>
<path d="M0 0 C1.32 1.32 2.64 2.64 4 4 C3.67 4.66 3.34 5.32 3 6 C2.01 6 1.02 6 0 6 C0 4.02 0 2.04 0 0 Z " fill="#25A199" transform="translate(532,159)"/>
<path d="M0 0 C0.66 0 1.32 0 2 0 C1.67 1.65 1.34 3.3 1 5 C-0.65 5 -2.3 5 -4 5 C-3.34 4.01 -2.68 3.02 -2 2 C-1.34 2 -0.68 2 0 2 C0 1.34 0 0.68 0 0 Z " fill="#1F7B7B" transform="translate(910,153)"/>
<path d="M0 0 C-0.99 0.33 -1.98 0.66 -3 1 C-3 1.66 -3 2.32 -3 3 C-4.98 3.33 -6.96 3.66 -9 4 C-8.67 3.01 -8.34 2.02 -8 1 C-5.07175348 0.02391783 -3.04386724 -0.08226668 0 0 Z " fill="#1DABAB" transform="translate(1011,0)"/>
</svg>
