<?xml version="1.0" encoding="UTF-8"?>
<svg version="1.1" xmlns="http://www.w3.org/2000/svg" width="1251" height="1080">
<path d="M0 0 C0.96808594 -0.01998047 1.93617187 -0.03996094 2.93359375 -0.06054688 C9.21394301 -0.05627453 12.97028532 0.81196948 18.125 4.4375 C18.125 5.0975 18.125 5.7575 18.125 6.4375 C19.115 6.7675 20.105 7.0975 21.125 7.4375 C23.89666494 13.2829545 24.60219242 18.40398569 24.75 24.8125 C24.67267549 30.29279471 24.67267549 30.29279471 26.125 35.4375 C26.43291869 37.76827343 26.63395274 40.09991896 26.84375 42.44140625 C26.92032012 44.43333131 26.92032012 44.43333131 28.125 45.4375 C28.40897852 48.24573199 28.57346665 51.05396635 28.74609375 53.87109375 C28.88811965 56.5981167 28.88811965 56.5981167 31.125 58.4375 C31.50390625 60.78515625 31.50390625 60.78515625 31.6875 63.5 C31.66481953 66.77589564 31.66481953 66.77589564 33.125 69.4375 C33.4069396 71.72434338 33.57277005 74.01113273 33.74609375 76.30859375 C33.95276636 78.64677403 33.95276636 78.64677403 36.125 80.4375 C36.46875 83.01171875 36.46875 83.01171875 36.625 86.125 C36.79514482 89.47259929 37.05344726 92.22606306 38.13130188 95.41110229 C39.63480343 100.56501488 39.39556966 105.77125944 39.36791992 111.09814453 C39.37076744 112.833983 39.37076744 112.833983 39.37367249 114.60488892 C39.37737279 118.42676602 39.36667695 122.24845228 39.35546875 126.0703125 C39.35427522 128.74527261 39.35377351 131.42022482 39.3540802 134.09518433 C39.35314453 139.70882509 39.34448451 145.32241172 39.33081055 150.93603516 C39.31519346 157.3699351 39.30980888 163.8037754 39.3105461 170.23769295 C39.31116372 176.47561773 39.30598547 182.71352366 39.29775429 188.95144272 C39.29460465 191.58003501 39.29260904 194.20862898 39.29186058 196.83722305 C39.28455548 209.09756213 39.23186637 221.34362688 38.67700195 233.59326172 C38.63841411 234.46891848 38.59982626 235.34457523 38.56006908 236.24676704 C38.25240416 242.18269169 38.25240416 242.18269169 37.125 244.4375 C36.99709389 245.92254216 36.92301037 247.41245616 36.87890625 248.90234375 C36.84603516 249.78470703 36.81316406 250.66707031 36.77929688 251.57617188 C36.71823101 253.43803108 36.66092276 255.30001743 36.60742188 257.16210938 C36.57326172 258.04576172 36.53910156 258.92941406 36.50390625 259.83984375 C36.4788501 260.64929443 36.45379395 261.45874512 36.42797852 262.29272461 C36.125 264.4375 36.125 264.4375 34.125 267.4375 C33.7773888 269.44704865 33.7773888 269.44704865 33.74609375 271.6328125 C33.71193359 272.43074219 33.67777344 273.22867187 33.64257812 274.05078125 C33.60293945 275.29408203 33.60293945 275.29408203 33.5625 276.5625 C33.2455036 285.3169964 33.2455036 285.3169964 32.125 286.4375 C31.83840329 289.99493849 31.6759193 293.55249153 31.50390625 297.1171875 C31.125 300.4375 31.125 300.4375 29.125 303.4375 C28.85440711 305.78356829 28.67714875 308.14116287 28.5625 310.5 C28.22144087 317.24461825 28.22144087 317.24461825 27.125 319.4375 C26.86134236 322.66364424 26.6806966 325.88297376 26.51953125 329.11523438 C26.22579169 334.33670831 26.22579169 334.33670831 25.125 335.4375 C24.74985082 338.08406024 24.4188029 340.71929725 24.125 343.375 C23.25796089 351.17157821 23.25796089 351.17157821 22.125 353.4375 C21.81067477 356.55019291 21.61410126 359.66367578 21.40625 362.78515625 C21.125 365.4375 21.125 365.4375 20.125 366.4375 C19.75413819 368.43088221 19.42762289 370.43262332 19.125 372.4375 C18.23611111 378.32638889 18.23611111 378.32638889 17.125 379.4375 C16.91800437 380.93246842 16.75820741 382.4341592 16.625 383.9375 C16.23611111 388.32638889 16.23611111 388.32638889 15.125 389.4375 C14.83937237 392.18043196 14.67660727 394.92358838 14.50390625 397.67578125 C14.12755755 400.41885886 13.35843001 402.00463214 12.125 404.4375 C11.77954403 406.84819545 11.77954403 406.84819545 11.6875 409.4375 C11.2159223 415.66728958 9.75012945 421.42221042 8.125 427.4375 C7.59990737 429.51976388 7.0790138 431.60309154 6.5625 433.6875 C6.31628906 434.66847656 6.07007813 435.64945312 5.81640625 436.66015625 C5.37926511 438.41612998 4.94871045 440.17376812 4.52734375 441.93359375 C3.22755282 447.33494718 3.22755282 447.33494718 2.125 448.4375 C1.91895915 449.76531878 1.7587041 451.10045895 1.625 452.4375 C1.23611111 456.32638889 1.23611111 456.32638889 0.125 457.4375 C-0.1569396 459.72434338 -0.32277005 462.01113273 -0.49609375 464.30859375 C-0.875 466.4375 -0.875 466.4375 -2.875 468.4375 C-3.47831557 471.27799053 -3.99291499 474.07239657 -4.4375 476.9375 C-5.76222826 485.21195652 -5.76222826 485.21195652 -6.875 487.4375 C-7.535 487.4375 -8.195 487.4375 -8.875 487.4375 C-8.813125 488.4275 -8.75125 489.4175 -8.6875 490.4375 C-8.66008355 494.90638211 -10.1541773 498.35054608 -11.875 502.4375 C-12.535 502.4375 -13.195 502.4375 -13.875 502.4375 C-13.78605469 503.72333984 -13.78605469 503.72333984 -13.6953125 505.03515625 C-13.90362105 508.97943344 -14.98519314 511.35805237 -16.75 514.875 C-18.92733192 519.38228057 -20.63757065 523.57617042 -21.875 528.4375 C-23.79518238 534.70427704 -25.83714722 540.64184147 -28.93359375 546.421875 C-30.42010022 549.60460255 -31.27202936 552.94621158 -32.1640625 556.3359375 C-32.875 558.4375 -32.875 558.4375 -34.875 560.4375 C-35.53107639 562.2739409 -36.12691952 564.13219355 -36.6875 566 C-38.48717497 571.60048106 -40.80338816 576.4384002 -43.875 581.4375 C-46.04023085 584.95096879 -46.04023085 584.95096879 -47.75 588.6875 C-49.43327228 592.80216559 -51.68812971 596.57277233 -53.875 600.4375 C-54.72951013 601.99981219 -55.58368503 603.56230779 -56.4375 605.125 C-58.43006595 608.69658047 -60.43272013 612.15305465 -62.875 615.4375 C-63.535 615.4375 -64.195 615.4375 -64.875 615.4375 C-65.13925781 615.98567383 -65.40351562 616.53384766 -65.67578125 617.09863281 C-68.1557007 621.93528352 -71.06735497 626.53628083 -73.875 631.1875 C-74.51695313 632.26644531 -75.15890625 633.34539063 -75.8203125 634.45703125 C-76.43648437 635.47667969 -77.05265625 636.49632812 -77.6875 637.546875 C-78.25082031 638.48499023 -78.81414062 639.42310547 -79.39453125 640.38964844 C-80.12736328 641.40333496 -80.12736328 641.40333496 -80.875 642.4375 C-81.535 642.4375 -82.195 642.4375 -82.875 642.4375 C-82.9575 642.953125 -83.04 643.46875 -83.125 644 C-84.60503624 648.81011777 -87.54113036 653.64901178 -90.875 657.4375 C-91.535 657.4375 -92.195 657.4375 -92.875 657.4375 C-93.184375 658.4584375 -93.184375 658.4584375 -93.5 659.5 C-95.30395027 663.35389375 -97.7760345 666.51537764 -100.875 669.4375 C-101.535 669.4375 -102.195 669.4375 -102.875 669.4375 C-103.184375 670.4584375 -103.184375 670.4584375 -103.5 671.5 C-105.30395027 675.35389375 -107.7760345 678.51537764 -110.875 681.4375 C-111.535 681.4375 -112.195 681.4375 -112.875 681.4375 C-113.2771875 682.3965625 -113.2771875 682.3965625 -113.6875 683.375 C-114.875 685.4375 -114.875 685.4375 -117.875 686.4375 C-118.143125 687.18 -118.41125 687.9225 -118.6875 688.6875 C-120.34507107 692.52608564 -122.5073792 693.98194317 -125.875 696.4375 C-126.535 696.4375 -127.195 696.4375 -127.875 696.4375 C-127.875 697.0975 -127.875 697.7575 -127.875 698.4375 C-128.535 698.4375 -129.195 698.4375 -129.875 698.4375 C-130.205 699.4275 -130.535 700.4175 -130.875 701.4375 C-131.535 701.4375 -132.195 701.4375 -132.875 701.4375 C-132.875 702.0975 -132.875 702.7575 -132.875 703.4375 C-133.535 703.4375 -134.195 703.4375 -134.875 703.4375 C-135.2771875 704.30375 -135.2771875 704.30375 -135.6875 705.1875 C-136.90429189 707.49300043 -138.17833879 709.45806192 -139.875 711.4375 C-140.535 711.4375 -141.195 711.4375 -141.875 711.4375 C-141.875 712.0975 -141.875 712.7575 -141.875 713.4375 C-143.25 715.0625 -143.25 715.0625 -144.875 716.4375 C-145.535 716.4375 -146.195 716.4375 -146.875 716.4375 C-146.875 717.0975 -146.875 717.7575 -146.875 718.4375 C-148.25 720.0625 -148.25 720.0625 -149.875 721.4375 C-150.535 721.4375 -151.195 721.4375 -151.875 721.4375 C-152.13925781 722.01757812 -152.40351562 722.59765625 -152.67578125 723.1953125 C-155.90054555 729.22467637 -161.21592047 733.97572764 -166.4921875 738.2109375 C-168.01603109 739.40925539 -168.01603109 739.40925539 -168.875 741.4375 C-169.535 741.4375 -170.195 741.4375 -170.875 741.4375 C-171.1121875 742.00984375 -171.349375 742.5821875 -171.59375 743.171875 C-173.15093238 745.9254292 -174.99992797 747.60545634 -177.375 749.6875 C-178.1690625 750.39390625 -178.963125 751.1003125 -179.78125 751.828125 C-181.875 753.4375 -181.875 753.4375 -183.875 753.4375 C-184.205 754.4275 -184.535 755.4175 -184.875 756.4375 C-185.535 756.4375 -186.195 756.4375 -186.875 756.4375 C-186.875 757.0975 -186.875 757.7575 -186.875 758.4375 C-187.65875 758.685 -188.4425 758.9325 -189.25 759.1875 C-192.28437999 760.63244285 -192.54529725 761.49315819 -193.875 764.4375 C-194.865 764.7675 -195.855 765.0975 -196.875 765.4375 C-197.205 766.4275 -197.535 767.4175 -197.875 768.4375 C-199.43359375 769.82421875 -199.43359375 769.82421875 -201.3125 771.125 C-202.23869141 771.78048828 -202.23869141 771.78048828 -203.18359375 772.44921875 C-204.875 773.4375 -204.875 773.4375 -206.875 773.4375 C-206.875 774.0975 -206.875 774.7575 -206.875 775.4375 C-207.535 775.4375 -208.195 775.4375 -208.875 775.4375 C-209.205 776.4275 -209.535 777.4175 -209.875 778.4375 C-211.6171875 780.26171875 -211.6171875 780.26171875 -213.75 782.125 C-214.44867187 782.74761719 -215.14734375 783.37023437 -215.8671875 784.01171875 C-217.875 785.4375 -217.875 785.4375 -220.875 785.4375 C-221.205 786.4275 -221.535 787.4175 -221.875 788.4375 C-222.535 788.4375 -223.195 788.4375 -223.875 788.4375 C-223.875 789.0975 -223.875 789.7575 -223.875 790.4375 C-227.93764843 793.98499992 -233.43185415 798.4375 -238.875 798.4375 C-238.875 799.0975 -238.875 799.7575 -238.875 800.4375 C-239.535 800.4375 -240.195 800.4375 -240.875 800.4375 C-240.875 801.0975 -240.875 801.7575 -240.875 802.4375 C-242.9647227 804.23289556 -245.05342082 805.90811442 -247.25 807.5625 C-247.85328125 808.03042969 -248.4565625 808.49835937 -249.078125 808.98046875 C-253.61358874 812.4375 -253.61358874 812.4375 -255.875 812.4375 C-256.205 813.4275 -256.535 814.4175 -256.875 815.4375 C-257.535 815.4375 -258.195 815.4375 -258.875 815.4375 C-258.875 816.0975 -258.875 816.7575 -258.875 817.4375 C-260.3359375 818.7265625 -260.3359375 818.7265625 -262.25 820.0625 C-263.18972656 820.73152344 -263.18972656 820.73152344 -264.1484375 821.4140625 C-265.875 822.4375 -265.875 822.4375 -267.875 822.4375 C-268.205 823.4275 -268.535 824.4175 -268.875 825.4375 C-270.43359375 826.82421875 -270.43359375 826.82421875 -272.3125 828.125 C-273.23869141 828.78048828 -273.23869141 828.78048828 -274.18359375 829.44921875 C-275.875 830.4375 -275.875 830.4375 -277.875 830.4375 C-277.875 831.0975 -277.875 831.7575 -277.875 832.4375 C-278.865 832.4375 -279.855 832.4375 -280.875 832.4375 C-280.875 833.0975 -280.875 833.7575 -280.875 834.4375 C-282.9921875 836.3828125 -282.9921875 836.3828125 -285.75 838.5625 C-286.65492188 839.28695312 -287.55984375 840.01140625 -288.4921875 840.7578125 C-290.875 842.4375 -290.875 842.4375 -292.875 842.4375 C-292.875 843.0975 -292.875 843.7575 -292.875 844.4375 C-295.30149031 846.23818015 -297.72239297 847.91586549 -300.25 849.5625 C-300.94867187 850.03042969 -301.64734375 850.49835937 -302.3671875 850.98046875 C-307.60816782 854.4375 -307.60816782 854.4375 -309.875 854.4375 C-310.205 855.4275 -310.535 856.4175 -310.875 857.4375 C-311.535 857.4375 -312.195 857.4375 -312.875 857.4375 C-312.875 858.0975 -312.875 858.7575 -312.875 859.4375 C-313.865 859.4375 -314.855 859.4375 -315.875 859.4375 C-316.205 860.4275 -316.535 861.4175 -316.875 862.4375 C-318.52571396 863.46361949 -320.19470006 864.46058143 -321.875 865.4375 C-322.49375 866.05625 -323.1125 866.675 -323.75 867.3125 C-326.50661325 870.06911325 -329.52965225 872.42699544 -332.875 874.4375 C-333.535 874.4375 -334.195 874.4375 -334.875 874.4375 C-334.875 875.0975 -334.875 875.7575 -334.875 876.4375 C-336.28125 877.5234375 -336.28125 877.5234375 -338.375 878.8125 C-343.79340641 882.29576126 -348.89478165 886.14713084 -354.02539062 890.03466797 C-355.9713475 891.50755602 -357.92270374 892.97302967 -359.875 894.4375 C-360.51663086 894.92718262 -361.15826172 895.41686523 -361.81933594 895.92138672 C-366.53471489 899.4375 -366.53471489 899.4375 -369.875 899.4375 C-369.875 900.0975 -369.875 900.7575 -369.875 901.4375 C-371.30078125 902.7265625 -371.30078125 902.7265625 -373.1875 904.0625 C-374.10982422 904.73152344 -374.10982422 904.73152344 -375.05078125 905.4140625 C-376.875 906.4375 -376.875 906.4375 -379.875 906.4375 C-380.205 907.4275 -380.535 908.4175 -380.875 909.4375 C-383.875 911.4375 -383.875 911.4375 -386.875 911.4375 C-386.875 912.0975 -386.875 912.7575 -386.875 913.4375 C-388.195 913.7675 -389.515 914.0975 -390.875 914.4375 C-390.875 915.0975 -390.875 915.7575 -390.875 916.4375 C-397.39330986 920.32341549 -397.39330986 920.32341549 -400.25 921 C-400.78625 921.144375 -401.3225 921.28875 -401.875 921.4375 C-402.205 922.4275 -402.535 923.4175 -402.875 924.4375 C-405.875 926.4375 -405.875 926.4375 -408.875 926.4375 C-408.875 927.0975 -408.875 927.7575 -408.875 928.4375 C-410.88671875 929.76953125 -410.88671875 929.76953125 -413.5625 931.25 C-417.62817242 933.6026082 -420.63120206 936.01836163 -423.875 939.4375 C-425.63487586 940.7553979 -427.43572895 941.99877977 -429.24609375 943.24609375 C-431.04143441 944.49535312 -431.04143441 944.49535312 -433 946.5625 C-436.23273344 949.79523344 -438.80246078 951.3034326 -443.375 951.875 C-447.35759452 952.51505983 -448.9084009 953.80994079 -451.875 956.4375 C-452.535 956.4375 -453.195 956.4375 -453.875 956.4375 C-453.875 957.0975 -453.875 957.7575 -453.875 958.4375 C-458.25961538 961.4375 -458.25961538 961.4375 -460.875 961.4375 C-460.875 962.0975 -460.875 962.7575 -460.875 963.4375 C-462.298125 964.18 -462.298125 964.18 -463.75 964.9375 C-471.65560838 969.46409835 -478.41812575 975.79897391 -485.0625 981.96875 C-486.875 983.4375 -486.875 983.4375 -488.875 983.4375 C-488.875 984.0975 -488.875 984.7575 -488.875 985.4375 C-490.92292842 987.12189083 -492.96043466 988.66542148 -495.125 990.1875 C-495.75672119 990.63561035 -496.38844238 991.0837207 -497.03930664 991.54541016 C-501.90382584 994.92248211 -506.90896539 997.68366317 -512.2734375 1000.203125 C-514.4267583 1001.22482075 -516.41260534 1002.31493457 -518.4375 1003.5625 C-523.06797652 1006.08821447 -527.90120539 1007.71497373 -532.875 1009.4375 C-534.29378931 1009.952523 -535.71071537 1010.47273272 -537.125 1011 C-537.75792969 1011.23589844 -538.39085937 1011.47179687 -539.04296875 1011.71484375 C-540.86725083 1012.43444329 -542.65327349 1013.2486423 -544.4375 1014.0625 C-547.98123804 1015.47999522 -551.10629666 1015.94896438 -554.875 1016.4375 C-556.55576231 1017.06778587 -558.22295544 1017.73538106 -559.875 1018.4375 C-565.05406174 1020.19838099 -569.90266484 1020.74463211 -575.3125 1021.15625 C-578.35842259 1021.49055858 -580.97996852 1022.45195737 -583.875 1023.4375 C-586.51503493 1023.7654798 -589.14771911 1023.9970863 -591.80078125 1024.19140625 C-593.86289716 1024.21910641 -593.86289716 1024.21910641 -594.875 1025.4375 C-596.20386073 1025.58136104 -597.53948587 1025.66426288 -598.875 1025.71875 C-600.0815625 1025.77482422 -600.0815625 1025.77482422 -601.3125 1025.83203125 C-603.875 1025.9375 -603.875 1025.9375 -606.4375 1026.04296875 C-607.6440625 1026.09904297 -607.6440625 1026.09904297 -608.875 1026.15625 C-609.6175 1026.18654297 -610.36 1026.21683594 -611.125 1026.24804688 C-612.90188855 1026.25542413 -612.90188855 1026.25542413 -613.875 1027.4375 C-617.02658451 1027.67443296 -620.17044912 1027.83340076 -623.328125 1027.95507812 C-626.99443226 1028.1440998 -628.74965937 1028.35393958 -631.875 1030.4375 C-634.3203125 1030.81640625 -634.3203125 1030.81640625 -637 1031 C-640.24420975 1030.98234879 -640.24420975 1030.98234879 -642.875 1032.4375 C-644.9029979 1032.6628331 -646.93174874 1032.88517185 -648.96484375 1033.05859375 C-651.1078948 1033.29972227 -651.1078948 1033.29972227 -652.875 1035.4375 C-656.25014568 1037.03625322 -658.04058757 1037.4375 -661.875 1037.4375 C-661.875 1038.0975 -661.875 1038.7575 -661.875 1039.4375 C-663.5625 1040.76953125 -663.5625 1040.76953125 -665.875 1042.25 C-666.70128906 1042.78109375 -667.52757812 1043.3121875 -668.37890625 1043.859375 C-669.20261719 1044.38015625 -670.02632812 1044.9009375 -670.875 1045.4375 C-671.54402344 1045.87578125 -672.21304688 1046.3140625 -672.90234375 1046.765625 C-681.86062646 1052.55461751 -690.87099685 1057.32669764 -701.62890625 1058.09375 C-703.920078 1058.33499597 -703.920078 1058.33499597 -706.00146484 1059.44238281 C-709.71658611 1060.72894477 -713.21484986 1060.72410933 -717.09765625 1060.703125 C-717.88015244 1060.70503845 -718.66264862 1060.7069519 -719.46885681 1060.70892334 C-721.11701785 1060.71027988 -722.76518977 1060.70662065 -724.41333008 1060.69824219 C-726.93269859 1060.68752043 -729.45135644 1060.69816266 -731.97070312 1060.7109375 C-733.5755224 1060.70961609 -735.18034124 1060.70705409 -736.78515625 1060.703125 C-737.53628189 1060.70717346 -738.28740753 1060.71122192 -739.06129456 1060.71539307 C-742.95672733 1060.68052464 -745.47078228 1060.23159711 -748.875 1058.4375 C-752.03691031 1058.08714127 -752.03691031 1058.08714127 -755.5390625 1058.05859375 C-756.82554687 1058.02443359 -758.11203125 1057.99027344 -759.4375 1057.95507812 C-760.79165378 1057.92773967 -762.1458209 1057.90105435 -763.5 1057.875 C-766.15906768 1057.81715295 -768.81771246 1057.75166672 -771.4765625 1057.68359375 C-772.65557129 1057.65966553 -773.83458008 1057.6357373 -775.04931641 1057.61108398 C-777.875 1057.4375 -777.875 1057.4375 -779.875 1056.4375 C-781.85939362 1056.30712633 -783.8477402 1056.23484413 -785.8359375 1056.19140625 C-787.02960938 1056.15853516 -788.22328125 1056.12566406 -789.453125 1056.09179688 C-791.97647541 1056.03078995 -794.49991789 1055.97347483 -797.0234375 1055.91992188 C-798.2196875 1055.88576172 -799.4159375 1055.85160156 -800.6484375 1055.81640625 C-801.74591309 1055.7913501 -802.84338867 1055.76629395 -803.97412109 1055.74047852 C-806.86604336 1055.43843546 -808.333164 1054.72460103 -810.875 1053.4375 C-813.66217188 1053.08899756 -813.66217188 1053.08899756 -816.69921875 1053.05859375 C-817.80974609 1053.02443359 -818.92027344 1052.99027344 -820.06445312 1052.95507812 C-821.79598633 1052.91543945 -821.79598633 1052.91543945 -823.5625 1052.875 C-825.8581847 1052.81535535 -828.15377174 1052.75177534 -830.44921875 1052.68359375 C-831.46588623 1052.65966553 -832.48255371 1052.6357373 -833.5300293 1052.61108398 C-835.875 1052.4375 -835.875 1052.4375 -836.875 1051.4375 C-839.38424153 1051.33662788 -841.86536384 1051.29777968 -844.375 1051.3046875 C-845.50131836 1051.30325241 -845.50131836 1051.30325241 -846.65039062 1051.30178833 C-848.24088627 1051.30110662 -849.83138467 1051.30296028 -851.421875 1051.30712891 C-853.86464655 1051.31247733 -856.30723421 1051.30718366 -858.75 1051.30078125 C-860.29166707 1051.30144203 -861.83333403 1051.3027232 -863.375 1051.3046875 C-864.11041016 1051.30266327 -864.84582031 1051.30063904 -865.60351562 1051.29855347 C-869.02746342 1051.00693487 -869.02746342 1051.00693487 -871.875 1052.4375 C-873.53443959 1052.57077251 -875.19904596 1052.64090631 -876.86328125 1052.68359375 C-877.87970703 1052.71646484 -878.89613281 1052.74933594 -879.94335938 1052.78320312 C-882.09430294 1052.84406667 -884.24534955 1052.90139795 -886.39648438 1052.95507812 C-887.41677734 1052.98923828 -888.43707031 1053.02339844 -889.48828125 1053.05859375 C-890.89267456 1053.09617798 -890.89267456 1053.09617798 -892.32543945 1053.13452148 C-894.958175 1053.44738415 -896.57931112 1054.16291603 -898.875 1055.4375 C-900.953125 1055.74609375 -900.953125 1055.74609375 -903.125 1055.875 C-911.85590006 1056.71670442 -920.10591796 1060.74755331 -927.015625 1066.09375 C-928.875 1067.4375 -928.875 1067.4375 -930.875 1067.4375 C-930.875 1068.0975 -930.875 1068.7575 -930.875 1069.4375 C-931.865 1069.4375 -932.855 1069.4375 -933.875 1069.4375 C-934.205 1070.4275 -934.535 1071.4175 -934.875 1072.4375 C-936.52571396 1073.46361949 -938.19470006 1074.46058143 -939.875 1075.4375 C-941.22751497 1076.75137169 -942.56445377 1078.08176252 -943.875 1079.4375 C-946.30290145 1080.65145072 -947.87987496 1080.57722355 -950.59326172 1080.59863281 C-952.0665242 1080.61304413 -952.0665242 1080.61304413 -953.56954956 1080.62774658 C-954.63714508 1080.63199646 -955.7047406 1080.63624634 -956.8046875 1080.640625 C-957.90539581 1080.64632507 -959.00610413 1080.65202515 -960.14016724 1080.65789795 C-962.47885169 1080.66736288 -964.81754956 1080.67388783 -967.15625 1080.67773438 C-970.70076625 1080.68736621 -974.24468428 1080.71834493 -977.7890625 1080.75 C-980.06510074 1080.75653752 -982.34114311 1080.76178504 -984.6171875 1080.765625 C-986.18821732 1080.7841452 -986.18821732 1080.7841452 -987.79098511 1080.80303955 C-996.0483137 1080.77859332 -1004.85333859 1080.11860761 -1011.875 1075.4375 C-1014.69033022 1074.60084912 -1017.52612125 1073.91584487 -1020.37890625 1073.21875 C-1022.875 1072.4375 -1022.875 1072.4375 -1024.875 1070.4375 C-1031.05500467 1068.45106993 -1036.9380153 1068.25633063 -1043.375 1068.25 C-1044.18904297 1068.24919434 -1045.00308594 1068.24838867 -1045.84179688 1068.24755859 C-1049.6677932 1067.9179736 -1049.6677932 1067.9179736 -1052.875 1069.4375 C-1056.27070436 1069.67440961 -1059.65916702 1069.8339169 -1063.06054688 1069.95507812 C-1067.43280501 1070.00848602 -1067.43280501 1070.00848602 -1070.875 1072.4375 C-1073.4209607 1072.63712411 -1075.85575936 1072.71736548 -1078.40234375 1072.703125 C-1079.14706436 1072.70503845 -1079.89178497 1072.7069519 -1080.65907288 1072.70892334 C-1082.23520241 1072.71028514 -1083.81134315 1072.70658903 -1085.38745117 1072.69824219 C-1087.79957334 1072.68755726 -1090.21094818 1072.69812946 -1092.62304688 1072.7109375 C-1094.15364748 1072.70961561 -1095.68424762 1072.7070526 -1097.21484375 1072.703125 C-1097.93679428 1072.70717346 -1098.65874481 1072.71122192 -1099.40257263 1072.71539307 C-1103.11017669 1072.68071486 -1104.70716348 1072.54939101 -1107.875 1070.4375 C-1110.26792904 1069.67611349 -1112.67991743 1069.0481662 -1115.109375 1068.4140625 C-1118.00919706 1067.39011403 -1120.4547314 1065.93568475 -1123.09765625 1064.38232422 C-1133.72445475 1058.7331882 -1148.05287691 1060.22060935 -1159.58251953 1060.63574219 C-1169.95513902 1060.88393768 -1178.09116139 1058.50133354 -1185.875 1051.4375 C-1187.75077028 1049.2202172 -1189.33026849 1046.89322701 -1190.875 1044.4375 C-1191.7721875 1043.138125 -1191.7721875 1043.138125 -1192.6875 1041.8125 C-1194.02482316 1039.13785367 -1194.12796324 1037.38873777 -1193.875 1034.4375 C-1194.535 1034.4375 -1195.195 1034.4375 -1195.875 1034.4375 C-1195.875 1033.1175 -1195.875 1031.7975 -1195.875 1030.4375 C-1196.865 1030.1075 -1197.855 1029.7775 -1198.875 1029.4375 C-1200.4453125 1027.73046875 -1200.4453125 1027.73046875 -1202 1025.625 C-1202.51820312 1024.93792969 -1203.03640625 1024.25085937 -1203.5703125 1023.54296875 C-1204.875 1021.4375 -1204.875 1021.4375 -1205.3671875 1019.23828125 C-1205.61855469 1018.34689453 -1205.61855469 1018.34689453 -1205.875 1017.4375 C-1206.865 1017.1075 -1207.855 1016.7775 -1208.875 1016.4375 C-1212.3788487 1010.43495019 -1212.32770892 1004.7735979 -1212.30859375 997.94921875 C-1212.3138356 996.85084183 -1212.31907745 995.7524649 -1212.32447815 994.62080383 C-1212.33088313 992.30360761 -1212.32958117 989.98637881 -1212.32104492 987.66918945 C-1212.31255232 984.14670054 -1212.34129201 980.62584391 -1212.37304688 977.10351562 C-1212.37465965 974.84375048 -1212.37407989 972.5839825 -1212.37109375 970.32421875 C-1212.38232773 969.28222824 -1212.39356171 968.24023773 -1212.40513611 967.16667175 C-1212.33922019 960.15619714 -1210.93175885 954.74524352 -1207.875 948.4375 C-1207.215 948.4375 -1206.555 948.4375 -1205.875 948.4375 C-1205.875 947.4475 -1205.875 946.4575 -1205.875 945.4375 C-1205.215 945.4375 -1204.555 945.4375 -1203.875 945.4375 C-1203.6275 944.86 -1203.38 944.2825 -1203.125 943.6875 C-1201.69200012 941.10810021 -1200.09075324 939.37628408 -1197.875 937.4375 C-1197.215 937.4375 -1196.555 937.4375 -1195.875 937.4375 C-1195.875 936.7775 -1195.875 936.1175 -1195.875 935.4375 C-1192.44202699 932.7751944 -1188.97037419 930.44139023 -1185.1875 928.3125 C-1181.96023958 926.5822274 -1181.96023958 926.5822274 -1179.5625 924.6875 C-1177.875 923.4375 -1177.875 923.4375 -1175.875 923.4375 C-1175.875 922.7775 -1175.875 922.1175 -1175.875 921.4375 C-1173.88899663 920.0834068 -1171.88682457 918.75292376 -1169.875 917.4375 C-1169.1325 916.695 -1168.39 915.9525 -1167.625 915.1875 C-1166.75875 914.32125 -1166.75875 914.32125 -1165.875 913.4375 C-1165.215 913.4375 -1164.555 913.4375 -1163.875 913.4375 C-1163.58625 912.633125 -1163.2975 911.82875 -1163 911 C-1161.875 908.4375 -1161.875 908.4375 -1159.875 907.4375 C-1159.55676034 905.38155818 -1159.55676034 905.38155818 -1159.5 902.9375 C-1159.06776582 897.44419647 -1157.31851366 893.31479221 -1154.875 888.4375 C-1153.62331048 885.51689111 -1152.68178483 882.75556412 -1151.8125 879.6875 C-1150.875 876.4375 -1150.875 876.4375 -1149.875 875.4375 C-1149.79468829 873.93834815 -1149.73612776 872.43801378 -1149.6875 870.9375 C-1149.02591947 863.71180018 -1145.28385473 858.44840456 -1140.0625 853.5625 C-1132.98306366 848.84287577 -1125.92218127 847.96845166 -1117.5625 848.125 C-1116.68271484 848.12177734 -1115.80292969 848.11855469 -1114.89648438 848.11523438 C-1110.54304149 848.15159571 -1107.75362984 848.37670956 -1103.875 850.4375 C-1102.17156206 850.60348996 -1100.46085012 850.70261494 -1098.75 850.75 C-1088.12046215 851.59697513 -1080.73008146 857.70457304 -1072.875 864.4375 C-1072.0809375 865.0975 -1071.286875 865.7575 -1070.46875 866.4375 C-1066.32306889 869.94089248 -1066.32306889 869.94089248 -1064.875 871.4375 C-1064.875 872.0975 -1064.875 872.7575 -1064.875 873.4375 C-1063.885 873.7675 -1062.895 874.0975 -1061.875 874.4375 C-1061.875 875.0975 -1061.875 875.7575 -1061.875 876.4375 C-1061.276875 876.56125 -1060.67875 876.685 -1060.0625 876.8125 C-1057.875 877.4375 -1057.875 877.4375 -1054.875 879.4375 C-1054.875 880.0975 -1054.875 880.7575 -1054.875 881.4375 C-1054.14796875 881.55351563 -1053.4209375 881.66953125 -1052.671875 881.7890625 C-1049.81342793 882.45177509 -1047.69967216 883.42419638 -1045.125 884.8125 C-1041.87394778 886.49590835 -1038.74353473 887.90600383 -1035.25 889 C-1031.7588683 890.09513837 -1028.61544498 891.50463125 -1025.3671875 893.20703125 C-1021.94668451 894.89583759 -1018.44271773 896.37184345 -1014.9375 897.875 C-1009.04999882 900.41066214 -1003.37389123 903.12289056 -997.875 906.4375 C-997.875 907.0975 -997.875 907.7575 -997.875 908.4375 C-997.29379395 908.55158203 -996.71258789 908.66566406 -996.11376953 908.78320312 C-993.68569349 909.49282622 -992.11596108 910.45172438 -990.0546875 911.90625 C-989.00474609 912.63908203 -989.00474609 912.63908203 -987.93359375 913.38671875 C-987.21300781 913.89847656 -986.49242187 914.41023437 -985.75 914.9375 C-984.31059147 915.94890741 -982.87051816 916.95936956 -981.4296875 917.96875 C-980.47811768 918.64260742 -980.47811768 918.64260742 -979.50732422 919.33007812 C-977.86064516 920.49970636 -977.86064516 920.49970636 -975.875 921.4375 C-975.875 922.0975 -975.875 922.7575 -975.875 923.4375 C-974.823125 923.623125 -974.823125 923.623125 -973.75 923.8125 C-970.875 924.4375 -970.875 924.4375 -968 925.5 C-963.93308132 926.7200756 -959.7821292 927.3910646 -955.875 925.4375 C-953.94683011 925.32579841 -952.01481748 925.27821934 -950.08349609 925.26049805 C-948.86818207 925.24766281 -947.65286804 925.23482758 -946.40072632 925.22160339 C-945.0666342 925.21343291 -943.73253746 925.20598977 -942.3984375 925.19921875 C-941.72623798 925.19514322 -941.05403847 925.1910677 -940.36146927 925.18686867 C-936.79908811 925.16599933 -933.23674549 925.15170508 -929.67431641 925.14233398 C-926.00920629 925.13130668 -922.34470957 925.0969532 -918.67981529 925.05716228 C-915.85034121 925.0308976 -913.02101056 925.02263319 -910.19142532 925.01905251 C-908.18851293 925.01186261 -906.18569894 924.98545898 -904.18295288 924.95866394 C-896.83612925 924.97607859 -892.17412534 925.64165983 -885.875 929.4375 C-880.01067891 930.27526016 -875.67798512 928.71273822 -870.875 925.4375 C-868.55222584 922.8283613 -868.55222584 922.8283613 -866.875 920.4375 C-866.215 920.4375 -865.555 920.4375 -864.875 920.4375 C-864.51728516 919.56738281 -864.51728516 919.56738281 -864.15234375 918.6796875 C-860.63744934 912.50981168 -853.33164273 908.5404216 -847.1875 905.375 C-842.93549343 903.16893801 -840.10642837 900.8717959 -836.890625 897.375 C-831.21816405 891.92240187 -824.20259042 887.24759535 -816.875 884.4375 C-815.68003906 883.71240234 -815.68003906 883.71240234 -814.4609375 882.97265625 C-807.58766388 878.89229895 -799.5742045 876.4906212 -791.875 874.4375 C-791.215 874.1075 -790.555 873.7775 -789.875 873.4375 C-787.54422657 873.12958131 -785.21258104 872.92854726 -782.87109375 872.71875 C-780.87916869 872.64217988 -780.87916869 872.64217988 -779.875 871.4375 C-777.95305582 871.32442763 -776.02700122 871.28066748 -774.10180664 871.26391602 C-772.86705093 871.25042618 -771.63229523 871.23693634 -770.36012268 871.22303772 C-769.69620577 871.21797777 -769.03228886 871.21291782 -768.34825325 871.20770454 C-766.27662748 871.19133887 -764.2051865 871.16810374 -762.13365173 871.14280701 C-756.24259596 871.07190548 -750.35146462 871.01186154 -744.46020508 870.96069336 C-740.8603761 870.92894468 -737.26075856 870.88767953 -733.66110039 870.84049797 C-732.28678622 870.82445218 -730.9124233 870.81214255 -729.53804207 870.80359077 C-727.61781369 870.79147051 -725.69768102 870.76629157 -723.77758789 870.74047852 C-722.68362198 870.73017105 -721.58965607 870.71986359 -720.46253967 870.70924377 C-717.7127953 870.69488532 -717.7127953 870.69488532 -715.875 868.4375 C-712.25 868.3125 -712.25 868.3125 -708.875 868.4375 C-708.875 867.7775 -708.875 867.1175 -708.875 866.4375 C-707.1953125 864.81640625 -707.1953125 864.81640625 -705 863 C-702.41306278 860.85349116 -700.76315626 859.26973438 -698.875 856.4375 C-698.215 856.4375 -697.555 856.4375 -696.875 856.4375 C-696.75382813 855.32890625 -696.63265625 854.2203125 -696.5078125 853.078125 C-696.33893704 851.61453766 -696.16964428 850.15099843 -696 848.6875 C-695.88205078 847.59308594 -695.88205078 847.59308594 -695.76171875 846.4765625 C-695.31752803 842.7180256 -694.73677734 839.73200312 -692.875 836.4375 C-692.771875 835.40625 -692.66875 834.375 -692.5625 833.3125 C-691.64472742 828.13959999 -689.37278405 824.01830691 -686.875 819.4375 C-686.215 819.4375 -685.555 819.4375 -684.875 819.4375 C-684.565625 818.65375 -684.25625 817.87 -683.9375 817.0625 C-682.875 814.4375 -682.875 814.4375 -681.875 812.4375 C-681.215 812.4375 -680.555 812.4375 -679.875 812.4375 C-679.545 811.4475 -679.215 810.4575 -678.875 809.4375 C-678.215 809.4375 -677.555 809.4375 -676.875 809.4375 C-676.606875 808.798125 -676.33875 808.15875 -676.0625 807.5 C-674.875 805.4375 -674.875 805.4375 -671.875 804.4375 C-671.545 803.7775 -671.215 803.1175 -670.875 802.4375 C-669.875 800.4375 -669.875 800.4375 -666.875 799.4375 C-666.875 798.7775 -666.875 798.1175 -666.875 797.4375 C-665.44921875 796.1484375 -665.44921875 796.1484375 -663.5625 794.8125 C-662.64017578 794.14347656 -662.64017578 794.14347656 -661.69921875 793.4609375 C-659.875 792.4375 -659.875 792.4375 -656.875 792.4375 C-656.875 791.7775 -656.875 791.1175 -656.875 790.4375 C-654.57421875 788.74609375 -654.57421875 788.74609375 -651.5625 786.875 C-650.57636719 786.25496094 -649.59023438 785.63492188 -648.57421875 784.99609375 C-645.875 783.4375 -645.875 783.4375 -642.875 782.4375 C-642.545 781.4475 -642.215 780.4575 -641.875 779.4375 C-641.215 779.4375 -640.555 779.4375 -639.875 779.4375 C-639.875 778.7775 -639.875 778.1175 -639.875 777.4375 C-638.1953125 775.81640625 -638.1953125 775.81640625 -636 774 C-633.41306278 771.85349116 -631.76315626 770.26973438 -629.875 767.4375 C-629.215 767.4375 -628.555 767.4375 -627.875 767.4375 C-627.5965625 766.86644531 -627.318125 766.29539062 -627.03125 765.70703125 C-625.88724436 763.46153369 -624.64340148 761.30216473 -623.375 759.125 C-619.68797923 752.45583008 -618.63452197 746.32883567 -618.21875 738.79296875 C-617.875 736.4375 -617.875 736.4375 -615.875 734.4375 C-615.57108898 732.00101658 -615.57108898 732.00101658 -615.61962891 729.13671875 C-615.61266998 728.02796387 -615.60571106 726.91920898 -615.59854126 725.77685547 C-615.59953827 724.57174316 -615.60053528 723.36663086 -615.6015625 722.125 C-615.58125865 719.57942281 -615.5604076 717.03384993 -615.5390625 714.48828125 C-615.51440623 710.47054315 -615.49917902 706.45286794 -615.49414062 702.43505859 C-615.48457277 698.56055672 -615.45072322 694.68682743 -615.4140625 690.8125 C-615.41910797 689.62358154 -615.42415344 688.43466309 -615.42935181 687.2097168 C-615.34218989 679.7576049 -614.12022748 674.13001928 -610.875 667.4375 C-610.16242167 665.81435699 -609.4535261 664.18958701 -608.75 662.5625 C-607.52447721 659.81773407 -606.23372315 657.11887401 -604.875 654.4375 C-604.215 654.4375 -603.555 654.4375 -602.875 654.4375 C-602.76542969 653.86153076 -602.65585937 653.28556152 -602.54296875 652.69213867 C-601.79113587 650.15442792 -600.72736964 648.5106618 -599.1875 646.36328125 C-598.65382813 645.61369141 -598.12015625 644.86410156 -597.5703125 644.09179688 C-597.01085937 643.31900391 -596.45140625 642.54621094 -595.875 641.75 C-595.03582031 640.5734082 -595.03582031 640.5734082 -594.1796875 639.37304688 C-590.07527546 633.63777546 -590.07527546 633.63777546 -588.875 632.4375 C-588.66724439 630.77545513 -588.50781745 629.10720509 -588.375 627.4375 C-587.98611111 622.54861111 -587.98611111 622.54861111 -586.875 621.4375 C-586.73933424 618.44445765 -586.66433832 615.4712814 -586.62890625 612.4765625 C-586.59596702 610.62499529 -586.56275539 608.7734329 -586.52929688 606.921875 C-586.48185699 603.98994287 -586.43744017 601.05803024 -586.39819336 598.12597656 C-586.35852665 595.30512708 -586.3069657 592.48468734 -586.25390625 589.6640625 C-586.24128502 588.34675644 -586.24128502 588.34675644 -586.22840881 587.00283813 C-586.21176682 586.18544159 -586.19512482 585.36804504 -586.17797852 584.52587891 C-586.16767105 583.80719635 -586.15736359 583.08851379 -586.14674377 582.34805298 C-585.875 580.4375 -585.875 580.4375 -583.875 577.4375 C-583.30840033 575.76481102 -582.79072204 574.07506685 -582.3125 572.375 C-580.96313559 567.61377119 -580.96313559 567.61377119 -579.875 565.4375 C-579.215 565.4375 -578.555 565.4375 -577.875 565.4375 C-577.75125 564.86 -577.6275 564.2825 -577.5 563.6875 C-576.86851176 561.41414233 -575.98641809 559.5121471 -574.875 557.4375 C-574.215 557.4375 -573.555 557.4375 -572.875 557.4375 C-572.75125 556.839375 -572.6275 556.24125 -572.5 555.625 C-571.875 553.4375 -571.875 553.4375 -569.875 550.4375 C-569.215 550.4375 -568.555 550.4375 -567.875 550.4375 C-567.66875 549.73625 -567.4625 549.035 -567.25 548.3125 C-565.4915622 544.63576641 -563.07071859 541.96454921 -559.875 539.4375 C-559.215 539.4375 -558.555 539.4375 -557.875 539.4375 C-557.875 538.7775 -557.875 538.1175 -557.875 537.4375 C-556.885 537.1075 -555.895 536.7775 -554.875 536.4375 C-554.77703125 535.83164062 -554.6790625 535.22578125 -554.578125 534.6015625 C-552.74605877 524.33567413 -549.42288759 516.53817236 -542.875 508.4375 C-542.215 507.4475 -541.555 506.4575 -540.875 505.4375 C-540.215 505.4375 -539.555 505.4375 -538.875 505.4375 C-538.875 504.7775 -538.875 504.1175 -538.875 503.4375 C-537.5625 501.8125 -537.5625 501.8125 -535.875 500.4375 C-534.885 500.4375 -533.895 500.4375 -532.875 500.4375 C-532.875 499.7775 -532.875 499.1175 -532.875 498.4375 C-528.9555157 495.40306054 -524.5445083 493.07182791 -519.875 491.4375 C-518.96621094 491.06818359 -518.96621094 491.06818359 -518.0390625 490.69140625 C-513.63301164 488.92729776 -509.59548584 488.09836802 -504.875 487.4375 C-504.215 486.7775 -503.555 486.1175 -502.875 485.4375 C-498.98379026 484.14043009 -495.99693682 483.4375 -491.875 483.4375 C-491.545 482.4475 -491.215 481.4575 -490.875 480.4375 C-490.215 480.4375 -489.555 480.4375 -488.875 480.4375 C-488.875 479.7775 -488.875 479.1175 -488.875 478.4375 C-488.215 478.4375 -487.555 478.4375 -486.875 478.4375 C-485.90217932 476.50465892 -484.93782555 474.5708615 -484.015625 472.61328125 C-479.01470273 462.15082545 -472.00491618 451.13328614 -460.875 446.4375 C-458.54316393 445.76561503 -456.20998858 445.09834583 -453.875 444.4375 C-453.545 444.1075 -453.215 443.7775 -452.875 443.4375 C-451.50490104 443.32071262 -450.12903745 443.2703182 -448.75415039 443.24804688 C-447.87976822 443.23132935 -447.00538605 443.21461182 -446.10450745 443.1973877 C-444.6779911 443.17702454 -444.6779911 443.17702454 -443.22265625 443.15625 C-442.25218857 443.13784058 -441.28172089 443.11943115 -440.28184509 443.10046387 C-437.16712704 443.0415111 -434.05235317 442.98878711 -430.9375 442.9375 C-426.84493163 442.87000022 -422.752545 442.79630469 -418.66015625 442.71875 C-417.23667625 442.69838684 -417.23667625 442.69838684 -415.78443909 442.6776123 C-414.90690475 442.66089478 -414.02937042 442.64417725 -413.12524414 442.62695312 C-411.96394737 442.60816101 -411.96394737 442.60816101 -410.77919006 442.58898926 C-408.78825257 442.55032309 -408.78825257 442.55032309 -406.875 441.4375 C-405.46299772 441.31008109 -404.04595557 441.23564715 -402.62890625 441.19140625 C-401.79166016 441.15853516 -400.95441406 441.12566406 -400.09179688 441.09179688 C-398.32629812 441.03073842 -396.56066561 440.97342926 -394.79492188 440.91992188 C-393.95638672 440.88576172 -393.11785156 440.85160156 -392.25390625 440.81640625 C-391.4863501 440.7913501 -390.71879395 440.76629395 -389.92797852 440.74047852 C-387.56829435 440.54161943 -387.56829435 440.54161943 -384.875 438.4375 C-382.40443177 438.26637998 -380.04996079 438.20496876 -377.58203125 438.2421875 C-376.52298836 438.24643234 -376.52298836 438.24643234 -375.44255066 438.25076294 C-373.19069367 438.26194536 -370.93923648 438.2870458 -368.6875 438.3125 C-367.15951096 438.32253233 -365.63151567 438.33165774 -364.10351562 438.33984375 C-360.36052337 438.36187828 -356.61782944 438.39639433 -352.875 438.4375 C-352.875 437.7775 -352.875 437.1175 -352.875 436.4375 C-351.92238281 436.42332031 -350.96976563 436.40914063 -349.98828125 436.39453125 C-342.18146255 436.53624015 -342.18146255 436.53624015 -335.625 433.0625 C-334.75875 431.763125 -334.75875 431.763125 -333.875 430.4375 C-333.215 429.4475 -332.555 428.4575 -331.875 427.4375 C-331.36357125 425.384306 -331.36357125 425.384306 -331.09375 423.12890625 C-330.97386719 422.29939453 -330.85398437 421.46988281 -330.73046875 420.61523438 C-330.61316406 419.75220703 -330.49585938 418.88917969 -330.375 418 C-330.1418111 416.29208349 -329.90243545 414.58499786 -329.65625 412.87890625 C-329.55376953 412.12295166 -329.45128906 411.36699707 -329.34570312 410.58813477 C-328.875 408.4375 -328.875 408.4375 -327.84985352 406.45556641 C-326.70276608 404.08095464 -326.57731279 402.33450643 -326.49609375 399.70703125 C-326.46193359 398.82208984 -326.42777344 397.93714844 -326.39257812 397.02539062 C-326.36615234 396.10951172 -326.33972656 395.19363281 -326.3125 394.25 C-326.25282854 392.4230375 -326.18924295 390.59619716 -326.12109375 388.76953125 C-326.09716553 387.96233643 -326.0732373 387.1551416 -326.04858398 386.32348633 C-325.875 384.4375 -325.875 384.4375 -324.875 383.4375 C-324.59020878 380.66191577 -324.42656981 377.88622155 -324.25390625 375.1015625 C-323.875 372.4375 -323.875 372.4375 -321.875 369.4375 C-321.606875 368.40625 -321.33875 367.375 -321.0625 366.3125 C-318.21801776 356.05512467 -311.56196618 348.01313742 -302.61328125 342.38671875 C-297.47013638 339.55417716 -292.48252654 337.1927014 -286.875 335.4375 C-286.11316406 335.1796875 -285.35132813 334.921875 -284.56640625 334.65625 C-281.14137635 333.49990963 -277.73646803 332.39928428 -274.25 331.4375 C-271.71490529 330.68636083 -269.51675257 329.88328462 -267.125 328.8125 C-263.875 327.4375 -263.875 327.4375 -260.875 327.4375 C-260.875 326.7775 -260.875 326.1175 -260.875 325.4375 C-257.50816085 323.00589395 -256.14149636 322.4375 -251.875 322.4375 C-251.875 321.7775 -251.875 321.1175 -251.875 320.4375 C-250.555 320.4375 -249.235 320.4375 -247.875 320.4375 C-247.545 319.4475 -247.215 318.4575 -246.875 317.4375 C-244.55691636 316.40264123 -242.22324702 315.4019586 -239.875 314.4375 C-239.545 313.7775 -239.215 313.1175 -238.875 312.4375 C-237.16796875 311.47265625 -237.16796875 311.47265625 -235.0625 310.5 C-232.65458949 309.35194267 -230.70078896 308.30566462 -228.5625 306.6875 C-226.875 305.4375 -226.875 305.4375 -223.875 305.4375 C-223.875 304.7775 -223.875 304.1175 -223.875 303.4375 C-222.01171875 301.9296875 -222.01171875 301.9296875 -219.5625 300.3125 C-218.76199219 299.77367187 -217.96148438 299.23484375 -217.13671875 298.6796875 C-214.875 297.4375 -214.875 297.4375 -211.875 297.4375 C-211.875 296.7775 -211.875 296.1175 -211.875 295.4375 C-210.15234375 293.95703125 -210.15234375 293.95703125 -207.8125 292.25 C-195.57951949 282.9168312 -191.03624734 273.56692258 -187.671875 258.78125 C-186.875 255.4375 -186.875 255.4375 -185.875 253.4375 C-185.72074643 252.08635301 -185.60045985 250.73120801 -185.5 249.375 C-184.85698002 243.11560234 -182.88991406 237.62346874 -180.25 231.9375 C-178.82170581 228.30184206 -178.40638668 225.31486905 -178.18359375 221.453125 C-177.875 219.4375 -177.875 219.4375 -175.875 216.4375 C-175.31379149 214.9310982 -174.79501028 213.40842271 -174.3125 211.875 C-173.59881407 209.62300657 -172.93177648 207.55105296 -171.875 205.4375 C-171.215 205.4375 -170.555 205.4375 -169.875 205.4375 C-169.70871094 204.56544922 -169.70871094 204.56544922 -169.5390625 203.67578125 C-167.27867764 196.05695464 -159.32171184 188.7353079 -152.875 184.4375 C-151.885 184.4375 -150.895 184.4375 -149.875 184.4375 C-149.545 183.4475 -149.215 182.4575 -148.875 181.4375 C-147.2734375 180.48046875 -147.2734375 180.48046875 -145.25 179.625 C-140.47388172 177.3961448 -135.29922473 174.28594946 -132.875 169.4375 C-132.215 169.4375 -131.555 169.4375 -130.875 169.4375 C-130.771875 168.90125 -130.66875 168.365 -130.5625 167.8125 C-129.69439605 164.81359544 -128.27042802 162.22835604 -126.875 159.4375 C-126.58625 158.509375 -126.2975 157.58125 -126 156.625 C-122.12977448 145.65936103 -122.12977448 145.65936103 -117.77734375 143.30078125 C-117.14957031 143.01589844 -116.52179688 142.73101562 -115.875 142.4375 C-115.19231862 141.11229497 -114.5242959 139.77937818 -113.875 138.4375 C-112.885 138.1075 -111.895 137.7775 -110.875 137.4375 C-110.545 136.4475 -110.215 135.4575 -109.875 134.4375 C-108.885 134.4375 -107.895 134.4375 -106.875 134.4375 C-106.875 133.7775 -106.875 133.1175 -106.875 132.4375 C-103.99728205 130.51902136 -100.98873372 128.93670512 -97.875 127.4375 C-97.875 126.7775 -97.875 126.1175 -97.875 125.4375 C-95.3135343 123.14101351 -94.39532428 122.4375 -90.875 122.4375 C-90.875 121.7775 -90.875 121.1175 -90.875 120.4375 C-88.3135343 118.14101351 -87.39532428 117.4375 -83.875 117.4375 C-83.875 116.7775 -83.875 116.1175 -83.875 115.4375 C-82.24985926 114.3321653 -80.57201265 113.30396119 -78.875 112.3125 C-74.16156378 109.40820041 -70.45479425 106.30970584 -66.66015625 102.3046875 C-64.22260764 99.755129 -61.68049825 97.57502247 -58.875 95.4375 C-58.215 95.4375 -57.555 95.4375 -56.875 95.4375 C-56.545 94.4475 -56.215 93.4575 -55.875 92.4375 C-53.89543058 90.74661778 -51.89554804 89.07919528 -49.875 87.4375 C-49.545 86.7775 -49.215 86.1175 -48.875 85.4375 C-48.215 85.4375 -47.555 85.4375 -46.875 85.4375 C-46.58496094 84.85613281 -46.29492188 84.27476563 -45.99609375 83.67578125 C-45.30502167 82.29604501 -44.61045322 80.91804579 -43.91015625 79.54296875 C-40.755473 73.32228813 -38.04207612 67.07417061 -35.875 60.4375 C-35.37948241 59.12330117 -34.87919072 57.81089587 -34.375 56.5 C-33.41936899 53.98191229 -32.61746023 51.53611081 -31.875 48.9375 C-31.1320764 46.33726742 -30.31790438 43.99165434 -29.3125 41.5 C-28.24495639 38.75715279 -27.6783415 36.36773831 -27.4375 33.4375 C-27.1541231 30.338442 -26.39432046 28.27440533 -24.875 25.5625 C-22.70183604 21.61341711 -22.43610122 18.15993314 -22.1484375 13.71484375 C-21.78846968 10.71682608 -20.79988534 8.74736241 -18.875 6.4375 C-18.215 6.4375 -17.555 6.4375 -16.875 6.4375 C-16.545 5.4475 -16.215 4.4575 -15.875 3.4375 C-11.25967719 -0.63202737 -5.80995173 -0.04221233 0 0 Z " fill="#9150E6" transform="translate(1211.875,-0.4375)"/>
<path d="M0 0 C0.33 0.99 0.66 1.98 1 3 C-1.65775809 7.39629158 -5.42323703 10.71161852 -10 13 C-10.66 12.34 -11.32 11.68 -12 11 C-11.30132813 10.37351562 -10.60265625 9.74703125 -9.8828125 9.1015625 C-8.97273438 8.28429687 -8.06265625 7.46703125 -7.125 6.625 C-5.76761719 5.40683594 -5.76761719 5.40683594 -4.3828125 4.1640625 C-2.89103817 2.80923795 -1.42494565 1.42494565 0 0 Z " fill="#6D37F1" transform="translate(1147,100)"/>
<path d="M0 0 C0.33 0 0.66 0 1 0 C1.375 2.25 1.375 2.25 1 5 C-0.95309888 6.40113616 -2.95708818 7.73339467 -5 9 C-6.38868516 11.10039331 -6.38868516 11.10039331 -7 13 C-8.32 12.34 -9.64 11.68 -11 11 C-9.47005208 9.76302083 -7.94010417 8.52604167 -6.41015625 7.2890625 C-4.86733563 6.0333609 -4.86733563 6.0333609 -4 4 C-3.34 4 -2.68 4 -2 4 C-1.34 2.68 -0.68 1.36 0 0 Z " fill="#672EE3" transform="translate(349,916)"/>
<path d="M0 0 C0.33 1.32 0.66 2.64 1 4 C0.34 4 -0.32 4 -1 4 C-1.268125 4.61875 -1.53625 5.2375 -1.8125 5.875 C-3 8 -3 8 -6 10 C-6.99 10 -7.98 10 -9 10 C-9 9.34 -9 8.68 -9 8 C-7.28515625 6.30859375 -7.28515625 6.30859375 -5.0625 4.4375 C-3.96615234 3.50744141 -3.96615234 3.50744141 -2.84765625 2.55859375 C-2.23792969 2.04425781 -1.62820313 1.52992188 -1 1 C-0.67 0.67 -0.34 0.34 0 0 Z " fill="#5C27AB" transform="translate(512,858)"/>
<path d="M0 0 C0.66 0.33 1.32 0.66 2 1 C1.01 2.485 1.01 2.485 0 4 C-0.66 4 -1.32 4 -2 4 C-2 4.66 -2 5.32 -2 6 C-4.8125 8.6875 -4.8125 8.6875 -8 11 C-8.99 10.67 -9.98 10.34 -11 10 C-3.70159453 2.51708428 -3.70159453 2.51708428 0 0 Z " fill="#6629EA" transform="translate(747,448)"/>
<path d="M0 0 C0 0.66 0 1.32 0 2 C-1.32 2.33 -2.64 2.66 -4 3 C-4.04125 3.5775 -4.0825 4.155 -4.125 4.75 C-5.44065958 8.13312465 -7.96552364 9.19222685 -11 11 C-11.66 10.67 -12.32 10.34 -13 10 C-11.73232923 8.70522938 -10.46073776 7.41429661 -9.1875 6.125 C-8.47980469 5.40570313 -7.77210938 4.68640625 -7.04296875 3.9453125 C-2.89959839 0 -2.89959839 0 0 0 Z " fill="#6424EA" transform="translate(911,342)"/>
<path d="M0 0 C0.66 0.33 1.32 0.66 2 1 C0 4 0 4 -3 5 C-3.99 6.485 -3.99 6.485 -5 8 C-5.99 8.33 -6.98 8.66 -8 9 C-8.33 9.66 -8.66 10.32 -9 11 C-9.99 10.67 -10.98 10.34 -12 10 C-10.75160501 8.894019 -9.50120766 7.79029799 -8.25 6.6875 C-7.55390625 6.07261719 -6.8578125 5.45773437 -6.140625 4.82421875 C-4.14885494 3.12685266 -2.11101085 1.54522191 0 0 Z " fill="#6522E6" transform="translate(384,890)"/>
<path d="M0 0 C0.66 0 1.32 0 2 0 C0.69086773 3.92739681 -0.78990195 6.35638984 -4 9 C-6.25 9.75 -6.25 9.75 -8 10 C-8 9.34 -8 8.68 -8 8 C-7.34 8 -6.68 8 -6 8 C-5.67 7.01 -5.34 6.02 -5 5 C-4.34 5 -3.68 5 -3 5 C-2.690625 4.360625 -2.38125 3.72125 -2.0625 3.0625 C-1 1 -1 1 0 0 Z " fill="#842BE6" transform="translate(538,804)"/>
<path d="M0 0 C0.99 0 1.98 0 3 0 C2.67 0.99 2.34 1.98 2 3 C1.34 3 0.68 3 0 3 C-0.2475 3.78375 -0.495 4.5675 -0.75 5.375 C-2.15389099 8.32317108 -3.00675737 8.9024777 -6 10 C-4.63356852 6.01457486 -2.89890986 3.07460137 0 0 Z " fill="#7A33DB" transform="translate(1048,194)"/>
<path d="M0 0 C2.4375 0.8125 2.4375 0.8125 5 2 C5.33 2.99 5.66 3.98 6 5 C6.99 5.33 7.98 5.66 9 6 C9.33 7.65 9.66 9.3 10 11 C9.34 11 8.68 11 8 11 C7.9071875 10.1028125 7.9071875 10.1028125 7.8125 9.1875 C6.67922246 6.13636816 4.75400399 5.6120999 2 4 C0.6875 1.8125 0.6875 1.8125 0 0 Z " fill="#6E1FE1" transform="translate(1224,1)"/>
<path d="M0 0 C1.32 0.33 2.64 0.66 4 1 C-3.29840547 7.33485194 -3.29840547 7.33485194 -7 10 C-6.8125 8.125 -6.8125 8.125 -6 6 C-4.33333333 5.33333333 -2.66666667 4.66666667 -1 4 C-0.11306697 1.95894361 -0.11306697 1.95894361 0 0 Z " fill="#5D25E5" transform="translate(786,936)"/>
<path d="M0 0 C0.66 0 1.32 0 2 0 C2 0.99 2 1.98 2 3 C0.35 3 -1.3 3 -3 3 C-3 3.99 -3 4.98 -3 6 C-4.98 6.33 -6.96 6.66 -9 7 C-9 6.34 -9 5.68 -9 5 C-5.63316085 2.56839395 -4.26649636 2 0 2 C0 1.34 0 0.68 0 0 Z " fill="#5E2BCB" transform="translate(960,320)"/>
<path d="M0 0 C0.66 0.99 1.32 1.98 2 3 C1.01 3.33 0.02 3.66 -1 4 C-1.59070014 5.94603274 -1.59070014 5.94603274 -2 8 C-2.66 8.66 -3.32 9.32 -4 10 C-4 6.18835834 -3.62734766 4.34510352 -2 1 C-1.34 0.67 -0.68 0.34 0 0 Z " fill="#7C2CD2" transform="translate(527,818)"/>
<path d="M0 0 C1 2 1 2 0.375 4.3125 C-1.26624041 7.52037899 -3.36337053 9.57152549 -6 12 C-6.66 11.67 -7.32 11.34 -8 11 C-5.36 7.37 -2.72 3.74 0 0 Z " fill="#5C1BB7" transform="translate(618,639)"/>
<path d="M0 0 C0.33 1.32 0.66 2.64 1 4 C0.01 4.33 -0.98 4.66 -2 5 C-2.33 6.65 -2.66 8.3 -3 10 C-3.99 10.33 -4.98 10.66 -6 11 C-4.74194623 6.49197399 -3.09592835 3.5087188 0 0 Z " fill="#5B1CC4" transform="translate(69,856)"/>
<path d="M0 0 C-1.52708963 3.43595166 -3.59927045 6.11912454 -6 9 C-5.6875 5.625 -5.6875 5.625 -5 2 C-2 0 -2 0 0 0 Z " fill="#6126DD" transform="translate(1127,647)"/>
<path d="M0 0 C-0.33 0.99 -0.66 1.98 -1 3 C-3.31 3 -5.62 3 -8 3 C-8 3.66 -8 4.32 -8 5 C-9.32 4.67 -10.64 4.34 -12 4 C-8.74358283 0.74358283 -4.52301031 0 0 0 Z " fill="#782EE9" transform="translate(703,488)"/>
<path d="M0 0 C0.6875 1.6875 0.6875 1.6875 1 4 C-0.25 6.75 -0.25 6.75 -2 9 C-2.99 9 -3.98 9 -5 9 C-3.90931332 5.22454612 -3.0916909 2.52956528 0 0 Z " fill="#782BEF" transform="translate(1094,142)"/>
<path d="M0 0 C0.33 0.66 0.66 1.32 1 2 C-0.55599625 6.50419967 -1.81168455 9.5447806 -6 12 C-4.68139111 7.38486888 -2.78644563 3.90102388 0 0 Z " fill="#5E1BE3" transform="translate(897,353)"/>
<path d="M0 0 C0.66 1.32 1.32 2.64 2 4 C-0.31 5.65 -2.62 7.3 -5 9 C-3.50163895 5.88801935 -1.80066242 2.9465385 0 0 Z " fill="#6725EF" transform="translate(668,509)"/>
<path d="M0 0 C0.33 0.66 0.66 1.32 1 2 C-1.40983607 6.70491803 -1.40983607 6.70491803 -4 8 C-4.66 7.34 -5.32 6.68 -6 6 C-4.02 4.02 -2.04 2.04 0 0 Z " fill="#5D2BE7" transform="translate(1014,283)"/>
<path d="M0 0 C0 2 0 2 -1.6875 4.0625 C-4.21335423 6.17875625 -5.77071161 6.64119018 -9 7 C-3.65789474 0 -3.65789474 0 0 0 Z " fill="#6725E4" transform="translate(1061,184)"/>
<path d="M0 0 C1.21994269 3.65982807 0.49026663 4.58115302 -1 8 C-1 8.66 -1 9.32 -1 10 C-1.99 10 -2.98 10 -4 10 C-3.52449439 8.51965236 -3.04448784 7.04074979 -2.5625 5.5625 C-2.29566406 4.73878906 -2.02882812 3.91507813 -1.75390625 3.06640625 C-1 1 -1 1 0 0 Z " fill="#5523EE" transform="translate(59,883)"/>
<path d="M0 0 C0.33 0 0.66 0 1 0 C0.50769231 6.52307692 0.50769231 6.52307692 -2.0625 8.9375 C-2.701875 9.288125 -3.34125 9.63875 -4 10 C-2.99806563 6.20696275 -2.18975773 3.28463659 0 0 Z " fill="#6B1ECE" transform="translate(606,656)"/>
<path d="M0 0 C0.66 0 1.32 0 2 0 C1.67 2.31 1.34 4.62 1 7 C0.01 7 -0.98 7 -2 7 C-1.125 2.25 -1.125 2.25 0 0 Z " fill="#6E2AE9" transform="translate(55,894)"/>
<path d="M0 0 C0.99 0.33 1.98 0.66 3 1 C1.35 2.65 -0.3 4.3 -2 6 C-2.99 5.67 -3.98 5.34 -5 5 C-4 3 -4 3 -1 2 C-0.67 1.34 -0.34 0.68 0 0 Z " fill="#7B28DF" transform="translate(973,312)"/>
<path d="M0 0 C0 3 0 3 -2.5 5.6875 C-3.325 6.450625 -4.15 7.21375 -5 8 C-5.66 7.34 -6.32 6.68 -7 6 C-4.69 4.02 -2.38 2.04 0 0 Z " fill="#8926ED" transform="translate(1142,105)"/>
<path d="M0 0 C1.27351308 2.54702616 0.80191925 3.4282945 0.0625 6.125 C-0.13214844 6.84945312 -0.32679687 7.57390625 -0.52734375 8.3203125 C-0.68332031 8.87460938 -0.83929687 9.42890625 -1 10 C-1.99 10 -2.98 10 -4 10 C-3.52449439 8.51965236 -3.04448784 7.04074979 -2.5625 5.5625 C-2.29566406 4.73878906 -2.02882813 3.91507813 -1.75390625 3.06640625 C-1 1 -1 1 0 0 Z " fill="#6321CF" transform="translate(1177,59)"/>
<path d="M0 0 C1.32 0.33 2.64 0.66 4 1 C0.535 3.97 0.535 3.97 -3 7 C-2.67 5.68 -2.34 4.36 -2 3 C-1.34 3 -0.68 3 0 3 C0 2.01 0 1.02 0 0 Z " fill="#761FEA" transform="translate(733,971)"/>
<path d="M0 0 C0 0.66 0 1.32 0 2 C-0.99 2 -1.98 2 -3 2 C-3.66 3.32 -4.32 4.64 -5 6 C-5.66 5.01 -6.32 4.02 -7 3 C-3.375 0 -3.375 0 0 0 Z " fill="#692AC1" transform="translate(393,886)"/>
<path d="M0 0 C0.66 0.33 1.32 0.66 2 1 C0.68 3.64 -0.64 6.28 -2 9 C-3 5 -3 5 -1.5625 2.25 C-1.046875 1.5075 -0.53125 0.765 0 0 Z " fill="#7026E4" transform="translate(1184,539)"/>
<path d="M0 0 C0.66 0.99 1.32 1.98 2 3 C0.6875 4.5 0.6875 4.5 -1 6 C-1.99 6 -2.98 6 -4 6 C-4 5.34 -4 4.68 -4 4 C-3.34 4 -2.68 4 -2 4 C-1.34 2.68 -0.68 1.36 0 0 Z " fill="#642DC3" transform="translate(727,474)"/>
</svg>
