<?xml version="1.0" encoding="UTF-8"?>
<svg version="1.1" xmlns="http://www.w3.org/2000/svg" width="1447" height="1080">
<path d="M0 0 C1.87947625 -0.00135869 3.75895224 -0.00314123 5.63842773 -0.00531006 C10.69411804 -0.00982847 15.74978771 -0.00811816 20.80547833 -0.00493097 C26.12487161 -0.00237861 31.44426326 -0.00475283 36.76365662 -0.00631714 C45.69123651 -0.00813033 54.61880809 -0.00575473 63.54638672 -0.00097656 C73.83358315 0.00446608 84.12075975 0.00269994 94.40795571 -0.00280297 C103.27892938 -0.00735638 112.14989712 -0.00797382 121.02087158 -0.0053643 C126.30228909 -0.00381397 131.58369732 -0.0035734 136.86511421 -0.00690079 C141.8318969 -0.00981208 146.79865428 -0.00774458 151.76543427 -0.00200653 C153.57649888 -0.00069635 155.38756566 -0.001043 157.19862938 -0.0032692 C178.67222376 -0.02720998 178.67222376 -0.02720998 188.70483398 1.12939453 C189.03483398 1.45939453 189.36483398 1.78939453 189.70483398 2.12939453 C192.03469522 2.33908204 194.36927435 2.49754842 196.70483398 2.62939453 C203.59372287 3.01828342 203.59372287 3.01828342 204.70483398 4.12939453 C206.18334465 4.25020378 207.66704039 4.30894811 209.15014648 4.34033203 C210.06280273 4.36869141 210.97545898 4.39705078 211.91577148 4.42626953 C213.83486328 4.47771971 215.75415752 4.52216998 217.67358398 4.55908203 C223.46317006 4.75368997 227.35462493 5.79475785 232.70483398 8.12939453 C235.99234805 8.59066534 239.26352016 8.6834031 242.57983398 8.75439453 C244.28568427 8.80516388 245.9914296 8.85964352 247.69702148 8.91845703 C248.44322754 8.93602051 249.18943359 8.95358398 249.95825195 8.97167969 C251.70483398 9.12939453 251.70483398 9.12939453 252.70483398 10.12939453 C255.54190486 10.34041633 258.36381044 10.50547266 261.20483398 10.62939453 C269.56969885 10.9942594 269.56969885 10.9942594 270.70483398 12.12939453 C272.7207798 12.36367231 274.74330799 12.54275577 276.76733398 12.69189453 C277.87206055 12.77568359 278.97678711 12.85947266 280.11499023 12.94580078 C280.96963867 13.00638672 281.82428711 13.06697266 282.70483398 13.12939453 C282.70483398 13.78939453 282.70483398 14.44939453 282.70483398 15.12939453 C287.32483398 15.12939453 291.94483398 15.12939453 296.70483398 15.12939453 C296.70483398 15.78939453 296.70483398 16.44939453 296.70483398 17.12939453 C297.34291992 17.11779297 297.98100586 17.10619141 298.63842773 17.09423828 C299.4647168 17.08521484 300.29100586 17.07619141 301.14233398 17.06689453 C301.96604492 17.05529297 302.78975586 17.04369141 303.63842773 17.03173828 C305.70483398 17.12939453 305.70483398 17.12939453 306.70483398 18.12939453 C308.21952847 18.36132318 309.7423796 18.54154692 311.26733398 18.69189453 C312.09362305 18.77568359 312.91991211 18.85947266 313.77124023 18.94580078 C314.40932617 19.00638672 315.04741211 19.06697266 315.70483398 19.12939453 C315.70483398 19.78939453 315.70483398 20.44939453 315.70483398 21.12939453 C318.34483398 21.12939453 320.98483398 21.12939453 323.70483398 21.12939453 C323.70483398 21.78939453 323.70483398 22.44939453 323.70483398 23.12939453 C326.34483398 23.12939453 328.98483398 23.12939453 331.70483398 23.12939453 C331.70483398 23.78939453 331.70483398 24.44939453 331.70483398 25.12939453 C332.67936523 25.07138672 333.65389648 25.01337891 334.65795898 24.95361328 C339.2674102 24.95708774 343.16159447 26.38491503 347.45483398 27.94189453 C349.04905371 28.49896978 350.64410631 29.05366738 352.23999023 29.60595703 C353.38878662 30.00476074 353.38878662 30.00476074 354.56079102 30.41162109 C357.30964467 31.33187044 360.08596958 32.09292258 362.89233398 32.81689453 C367.03507243 33.89979881 370.79787612 35.35350459 374.70483398 37.12939453 C382.4614945 40.45578652 382.4614945 40.45578652 390.70483398 42.12939453 C390.70483398 42.78939453 390.70483398 43.44939453 390.70483398 44.12939453 C391.40608398 44.08814453 392.10733398 44.04689453 392.82983398 44.00439453 C396.08855027 44.14607785 398.66082868 44.9967414 401.70483398 46.12939453 C401.70483398 46.78939453 401.70483398 47.44939453 401.70483398 48.12939453 C402.42670898 48.08814453 403.14858398 48.04689453 403.89233398 48.00439453 C406.91212768 48.13860758 408.97419128 48.88110072 411.70483398 50.12939453 C411.70483398 50.78939453 411.70483398 51.44939453 411.70483398 52.12939453 C413.02483398 52.12939453 414.34483398 52.12939453 415.70483398 52.12939453 C415.70483398 52.78939453 415.70483398 53.44939453 415.70483398 54.12939453 C417.02483398 54.12939453 418.34483398 54.12939453 419.70483398 54.12939453 C419.70483398 54.78939453 419.70483398 55.44939453 419.70483398 56.12939453 C420.44733398 56.27376953 421.18983398 56.41814453 421.95483398 56.56689453 C424.22511138 57.03126945 426.46242878 57.54803022 428.70483398 58.12939453 C428.70483398 58.78939453 428.70483398 59.44939453 428.70483398 60.12939453 C430.35483398 60.12939453 432.00483398 60.12939453 433.70483398 60.12939453 C433.70483398 60.78939453 433.70483398 61.44939453 433.70483398 62.12939453 C436.67483398 62.78939453 439.64483398 63.44939453 442.70483398 64.12939453 C442.70483398 64.78939453 442.70483398 65.44939453 442.70483398 66.12939453 C443.63295898 66.19126953 444.56108398 66.25314453 445.51733398 66.31689453 C449.98402881 66.9407851 453.73641364 68.82133934 457.76342773 70.77783203 C460.00839631 71.80938466 462.17504207 72.67476387 464.49389648 73.50048828 C469.10632572 75.19908889 473.33176736 77.47107526 477.64233398 79.81689453 C486.5219946 84.57678003 495.5479466 88.93199929 504.70483398 93.12939453 C504.70483398 93.78939453 504.70483398 94.44939453 504.70483398 95.12939453 C505.60202148 95.34595703 505.60202148 95.34595703 506.51733398 95.56689453 C508.26633803 96.01663843 509.99160421 96.55831794 511.70483398 97.12939453 C511.70483398 97.78939453 511.70483398 98.44939453 511.70483398 99.12939453 C512.60202148 99.34595703 512.60202148 99.34595703 513.51733398 99.56689453 C515.26633803 100.01663843 516.99160421 100.55831794 518.70483398 101.12939453 C518.70483398 101.78939453 518.70483398 102.44939453 518.70483398 103.12939453 C519.32358398 103.27376953 519.94233398 103.41814453 520.57983398 103.56689453 C522.70483398 104.12939453 522.70483398 104.12939453 524.70483398 105.12939453 C524.70483398 105.78939453 524.70483398 106.44939453 524.70483398 107.12939453 C525.23592773 107.23123047 525.76702148 107.33306641 526.31420898 107.43798828 C529.40701238 108.33247554 532.08934966 109.7280058 534.95483398 111.19189453 C536.03249023 111.73974609 537.11014648 112.28759766 538.22045898 112.85205078 C539.04030273 113.27357422 539.86014648 113.69509766 540.70483398 114.12939453 C540.70483398 114.78939453 540.70483398 115.44939453 540.70483398 116.12939453 C541.24881836 116.21189453 541.79280273 116.29439453 542.35327148 116.37939453 C545.51471169 117.3876944 547.6868709 119.13470541 550.32983398 121.12939453 C553.87381928 123.8612128 553.87381928 123.8612128 557.70483398 126.12939453 C557.70483398 126.78939453 557.70483398 127.44939453 557.70483398 128.12939453 C559.68483398 128.78939453 561.66483398 129.44939453 563.70483398 130.12939453 C563.70483398 130.78939453 563.70483398 131.44939453 563.70483398 132.12939453 C564.36483398 132.12939453 565.02483398 132.12939453 565.70483398 132.12939453 C565.70483398 132.78939453 565.70483398 133.44939453 565.70483398 134.12939453 C566.36483398 134.12939453 567.02483398 134.12939453 567.70483398 134.12939453 C567.70483398 134.78939453 567.70483398 135.44939453 567.70483398 136.12939453 C568.36483398 136.12939453 569.02483398 136.12939453 569.70483398 136.12939453 C569.70483398 136.78939453 569.70483398 137.44939453 569.70483398 138.12939453 C570.32358398 138.27376953 570.94233398 138.41814453 571.57983398 138.56689453 C573.70483398 139.12939453 573.70483398 139.12939453 575.70483398 140.12939453 C575.70483398 140.78939453 575.70483398 141.44939453 575.70483398 142.12939453 C576.36483398 142.12939453 577.02483398 142.12939453 577.70483398 142.12939453 C577.70483398 142.78939453 577.70483398 143.44939453 577.70483398 144.12939453 C578.36483398 144.12939453 579.02483398 144.12939453 579.70483398 144.12939453 C579.70483398 144.78939453 579.70483398 145.44939453 579.70483398 146.12939453 C580.36483398 146.12939453 581.02483398 146.12939453 581.70483398 146.12939453 C581.70483398 146.78939453 581.70483398 147.44939453 581.70483398 148.12939453 C582.32358398 148.27376953 582.94233398 148.41814453 583.57983398 148.56689453 C585.70483398 149.12939453 585.70483398 149.12939453 587.70483398 150.12939453 C587.70483398 150.78939453 587.70483398 151.44939453 587.70483398 152.12939453 C588.26686523 152.38720703 588.82889648 152.64501953 589.40795898 152.91064453 C591.97187977 154.2710923 594.15709764 155.85728415 596.45483398 157.62939453 C597.25405273 158.23783203 598.05327148 158.84626953 598.87670898 159.47314453 C599.47999023 160.01970703 600.08327148 160.56626953 600.70483398 161.12939453 C600.70483398 161.78939453 600.70483398 162.44939453 600.70483398 163.12939453 C601.36483398 163.12939453 602.02483398 163.12939453 602.70483398 163.12939453 C602.70483398 163.78939453 602.70483398 164.44939453 602.70483398 165.12939453 C603.36483398 165.12939453 604.02483398 165.12939453 604.70483398 165.12939453 C604.70483398 165.78939453 604.70483398 166.44939453 604.70483398 167.12939453 C605.36483398 167.12939453 606.02483398 167.12939453 606.70483398 167.12939453 C606.70483398 167.78939453 606.70483398 168.44939453 606.70483398 169.12939453 C607.36483398 169.12939453 608.02483398 169.12939453 608.70483398 169.12939453 C608.70483398 169.78939453 608.70483398 170.44939453 608.70483398 171.12939453 C610.02483398 171.12939453 611.34483398 171.12939453 612.70483398 171.12939453 C612.70483398 171.78939453 612.70483398 172.44939453 612.70483398 173.12939453 C613.36483398 173.12939453 614.02483398 173.12939453 614.70483398 173.12939453 C614.70483398 173.78939453 614.70483398 174.44939453 614.70483398 175.12939453 C615.36483398 175.12939453 616.02483398 175.12939453 616.70483398 175.12939453 C616.70483398 175.78939453 616.70483398 176.44939453 616.70483398 177.12939453 C617.36483398 177.12939453 618.02483398 177.12939453 618.70483398 177.12939453 C618.70483398 177.78939453 618.70483398 178.44939453 618.70483398 179.12939453 C620.68483398 179.78939453 622.66483398 180.44939453 624.70483398 181.12939453 C624.70483398 181.78939453 624.70483398 182.44939453 624.70483398 183.12939453 C625.36483398 183.12939453 626.02483398 183.12939453 626.70483398 183.12939453 C626.70483398 183.78939453 626.70483398 184.44939453 626.70483398 185.12939453 C627.36483398 185.12939453 628.02483398 185.12939453 628.70483398 185.12939453 C628.70483398 185.78939453 628.70483398 186.44939453 628.70483398 187.12939453 C629.36483398 187.12939453 630.02483398 187.12939453 630.70483398 187.12939453 C630.70483398 187.78939453 630.70483398 188.44939453 630.70483398 189.12939453 C631.36483398 189.12939453 632.02483398 189.12939453 632.70483398 189.12939453 C632.70483398 189.78939453 632.70483398 190.44939453 632.70483398 191.12939453 C633.2995752 191.40195068 633.89431641 191.67450684 634.50708008 191.95532227 C636.64493387 193.09739502 638.12095155 194.25232185 639.86889648 195.91455078 C640.43350586 196.445 640.99811523 196.97544922 641.57983398 197.52197266 C642.15733398 198.07304687 642.73483398 198.62412109 643.32983398 199.19189453 C647.19809707 203.09510183 647.19809707 203.09510183 651.70483398 206.12939453 C651.70483398 206.78939453 651.70483398 207.44939453 651.70483398 208.12939453 C652.36483398 208.12939453 653.02483398 208.12939453 653.70483398 208.12939453 C653.70483398 208.78939453 653.70483398 209.44939453 653.70483398 210.12939453 C654.36483398 210.12939453 655.02483398 210.12939453 655.70483398 210.12939453 C655.70483398 210.78939453 655.70483398 211.44939453 655.70483398 212.12939453 C656.36483398 212.12939453 657.02483398 212.12939453 657.70483398 212.12939453 C657.70483398 212.78939453 657.70483398 213.44939453 657.70483398 214.12939453 C658.36483398 214.12939453 659.02483398 214.12939453 659.70483398 214.12939453 C659.70483398 214.78939453 659.70483398 215.44939453 659.70483398 216.12939453 C660.36483398 216.12939453 661.02483398 216.12939453 661.70483398 216.12939453 C661.70483398 216.78939453 661.70483398 217.44939453 661.70483398 218.12939453 C662.36483398 218.12939453 663.02483398 218.12939453 663.70483398 218.12939453 C663.70483398 218.78939453 663.70483398 219.44939453 663.70483398 220.12939453 C664.36483398 220.12939453 665.02483398 220.12939453 665.70483398 220.12939453 C665.70483398 220.78939453 665.70483398 221.44939453 665.70483398 222.12939453 C666.36483398 222.12939453 667.02483398 222.12939453 667.70483398 222.12939453 C667.70483398 222.78939453 667.70483398 223.44939453 667.70483398 224.12939453 C668.36483398 224.12939453 669.02483398 224.12939453 669.70483398 224.12939453 C669.70483398 224.78939453 669.70483398 225.44939453 669.70483398 226.12939453 C670.36483398 226.12939453 671.02483398 226.12939453 671.70483398 226.12939453 C671.70483398 226.78939453 671.70483398 227.44939453 671.70483398 228.12939453 C672.36483398 228.12939453 673.02483398 228.12939453 673.70483398 228.12939453 C673.70483398 228.78939453 673.70483398 229.44939453 673.70483398 230.12939453 C674.36483398 230.12939453 675.02483398 230.12939453 675.70483398 230.12939453 C675.70483398 230.78939453 675.70483398 231.44939453 675.70483398 232.12939453 C676.36483398 232.12939453 677.02483398 232.12939453 677.70483398 232.12939453 C677.70483398 232.78939453 677.70483398 233.44939453 677.70483398 234.12939453 C678.54014648 234.46970703 678.54014648 234.46970703 679.39233398 234.81689453 C682.36642986 236.50489489 684.42492263 238.5961597 686.70483398 241.12939453 C686.70483398 241.78939453 686.70483398 242.44939453 686.70483398 243.12939453 C687.36483398 243.12939453 688.02483398 243.12939453 688.70483398 243.12939453 C688.70483398 243.78939453 688.70483398 244.44939453 688.70483398 245.12939453 C689.36483398 245.12939453 690.02483398 245.12939453 690.70483398 245.12939453 C692.65014648 247.24658203 692.65014648 247.24658203 694.82983398 250.00439453 C695.55428711 250.90931641 696.27874023 251.81423828 697.02514648 252.74658203 C698.70483398 255.12939453 698.70483398 255.12939453 698.70483398 257.12939453 C699.36483398 257.12939453 700.02483398 257.12939453 700.70483398 257.12939453 C700.70483398 257.78939453 700.70483398 258.44939453 700.70483398 259.12939453 C701.36483398 259.12939453 702.02483398 259.12939453 702.70483398 259.12939453 C702.70483398 259.78939453 702.70483398 260.44939453 702.70483398 261.12939453 C703.36483398 261.12939453 704.02483398 261.12939453 704.70483398 261.12939453 C704.70483398 261.78939453 704.70483398 262.44939453 704.70483398 263.12939453 C705.36483398 263.12939453 706.02483398 263.12939453 706.70483398 263.12939453 C708.70483398 266.12939453 708.70483398 266.12939453 708.70483398 269.12939453 C709.36483398 269.12939453 710.02483398 269.12939453 710.70483398 269.12939453 C710.70483398 269.78939453 710.70483398 270.44939453 710.70483398 271.12939453 C711.36483398 271.12939453 712.02483398 271.12939453 712.70483398 271.12939453 C712.70483398 271.78939453 712.70483398 272.44939453 712.70483398 273.12939453 C713.36483398 273.12939453 714.02483398 273.12939453 714.70483398 273.12939453 C716.40218575 275.24132071 717.97186894 277.34744601 719.51733398 279.56689453 C719.96512207 280.20272461 720.41291016 280.83855469 720.87426758 281.49365234 C729.70483398 294.18217082 729.70483398 294.18217082 729.70483398 298.12939453 C730.36483398 298.12939453 731.02483398 298.12939453 731.70483398 298.12939453 C731.70483398 299.44939453 731.70483398 300.76939453 731.70483398 302.12939453 C732.36483398 302.12939453 733.02483398 302.12939453 733.70483398 302.12939453 C733.70483398 302.78939453 733.70483398 303.44939453 733.70483398 304.12939453 C734.36483398 304.12939453 735.02483398 304.12939453 735.70483398 304.12939453 C735.70483398 305.44939453 735.70483398 306.76939453 735.70483398 308.12939453 C736.36483398 308.12939453 737.02483398 308.12939453 737.70483398 308.12939453 C737.70483398 308.78939453 737.70483398 309.44939453 737.70483398 310.12939453 C738.36483398 310.12939453 739.02483398 310.12939453 739.70483398 310.12939453 C739.70483398 311.44939453 739.70483398 312.76939453 739.70483398 314.12939453 C740.36483398 314.12939453 741.02483398 314.12939453 741.70483398 314.12939453 C741.70483398 314.78939453 741.70483398 315.44939453 741.70483398 316.12939453 C743.02483398 316.78939453 744.34483398 317.44939453 745.70483398 318.12939453 C745.70483398 319.11939453 745.70483398 320.10939453 745.70483398 321.12939453 C746.36483398 321.12939453 747.02483398 321.12939453 747.70483398 321.12939453 C747.70483398 321.78939453 747.70483398 322.44939453 747.70483398 323.12939453 C748.36483398 323.12939453 749.02483398 323.12939453 749.70483398 323.12939453 C749.70483398 324.44939453 749.70483398 325.76939453 749.70483398 327.12939453 C750.36483398 327.12939453 751.02483398 327.12939453 751.70483398 327.12939453 C751.70483398 327.78939453 751.70483398 328.44939453 751.70483398 329.12939453 C752.36483398 329.12939453 753.02483398 329.12939453 753.70483398 329.12939453 C755.70483398 332.12939453 755.70483398 332.12939453 755.70483398 335.12939453 C756.36483398 335.12939453 757.02483398 335.12939453 757.70483398 335.12939453 C757.70483398 336.44939453 757.70483398 337.76939453 757.70483398 339.12939453 C758.36483398 339.12939453 759.02483398 339.12939453 759.70483398 339.12939453 C761.46946082 342.21749148 761.70483398 343.36251589 761.70483398 347.12939453 C762.36483398 347.12939453 763.02483398 347.12939453 763.70483398 347.12939453 C764.36483398 349.10939453 765.02483398 351.08939453 765.70483398 353.12939453 C766.36483398 353.12939453 767.02483398 353.12939453 767.70483398 353.12939453 C767.70483398 353.78939453 767.70483398 354.44939453 767.70483398 355.12939453 C768.36483398 355.12939453 769.02483398 355.12939453 769.70483398 355.12939453 C770.03483398 356.77939453 770.36483398 358.42939453 770.70483398 360.12939453 C771.36483398 360.12939453 772.02483398 360.12939453 772.70483398 360.12939453 C772.70483398 360.78939453 772.70483398 361.44939453 772.70483398 362.12939453 C773.36483398 362.12939453 774.02483398 362.12939453 774.70483398 362.12939453 C774.70483398 363.44939453 774.70483398 364.76939453 774.70483398 366.12939453 C775.36483398 366.12939453 776.02483398 366.12939453 776.70483398 366.12939453 C776.70483398 366.78939453 776.70483398 367.44939453 776.70483398 368.12939453 C777.36483398 368.12939453 778.02483398 368.12939453 778.70483398 368.12939453 C778.70483398 369.44939453 778.70483398 370.76939453 778.70483398 372.12939453 C779.36483398 372.12939453 780.02483398 372.12939453 780.70483398 372.12939453 C780.70483398 372.78939453 780.70483398 373.44939453 780.70483398 374.12939453 C781.36483398 374.12939453 782.02483398 374.12939453 782.70483398 374.12939453 C782.70483398 375.44939453 782.70483398 376.76939453 782.70483398 378.12939453 C783.36483398 378.12939453 784.02483398 378.12939453 784.70483398 378.12939453 C784.70483398 379.44939453 784.70483398 380.76939453 784.70483398 382.12939453 C785.36483398 382.12939453 786.02483398 382.12939453 786.70483398 382.12939453 C786.70483398 383.44939453 786.70483398 384.76939453 786.70483398 386.12939453 C787.36483398 386.12939453 788.02483398 386.12939453 788.70483398 386.12939453 C788.70483398 387.44939453 788.70483398 388.76939453 788.70483398 390.12939453 C789.36483398 390.12939453 790.02483398 390.12939453 790.70483398 390.12939453 C790.70483398 391.44939453 790.70483398 392.76939453 790.70483398 394.12939453 C791.36483398 394.12939453 792.02483398 394.12939453 792.70483398 394.12939453 C792.70483398 395.44939453 792.70483398 396.76939453 792.70483398 398.12939453 C793.36483398 398.12939453 794.02483398 398.12939453 794.70483398 398.12939453 C794.70483398 398.78939453 794.70483398 399.44939453 794.70483398 400.12939453 C795.36483398 400.12939453 796.02483398 400.12939453 796.70483398 400.12939453 C798.56260164 403.26437745 798.90623874 405.50410886 798.70483398 409.12939453 C799.36483398 409.12939453 800.02483398 409.12939453 800.70483398 409.12939453 C800.70483398 409.78939453 800.70483398 410.44939453 800.70483398 411.12939453 C801.36483398 411.12939453 802.02483398 411.12939453 802.70483398 411.12939453 C802.70483398 412.44939453 802.70483398 413.76939453 802.70483398 415.12939453 C803.36483398 415.12939453 804.02483398 415.12939453 804.70483398 415.12939453 C804.70483398 416.44939453 804.70483398 417.76939453 804.70483398 419.12939453 C805.36483398 419.12939453 806.02483398 419.12939453 806.70483398 419.12939453 C806.70483398 420.44939453 806.70483398 421.76939453 806.70483398 423.12939453 C807.36483398 423.12939453 808.02483398 423.12939453 808.70483398 423.12939453 C810.73918929 426.85904592 811.70483398 428.79844495 811.70483398 433.12939453 C812.36483398 433.12939453 813.02483398 433.12939453 813.70483398 433.12939453 C813.70483398 434.44939453 813.70483398 435.76939453 813.70483398 437.12939453 C814.36483398 437.12939453 815.02483398 437.12939453 815.70483398 437.12939453 C815.70483398 438.44939453 815.70483398 439.76939453 815.70483398 441.12939453 C816.36483398 441.12939453 817.02483398 441.12939453 817.70483398 441.12939453 C817.70483398 442.11939453 817.70483398 443.10939453 817.70483398 444.12939453 C818.36483398 444.12939453 819.02483398 444.12939453 819.70483398 444.12939453 C819.70483398 445.77939453 819.70483398 447.42939453 819.70483398 449.12939453 C820.36483398 449.12939453 821.02483398 449.12939453 821.70483398 449.12939453 C821.70483398 450.77939453 821.70483398 452.42939453 821.70483398 454.12939453 C822.36483398 454.12939453 823.02483398 454.12939453 823.70483398 454.12939453 C823.70483398 455.44939453 823.70483398 456.76939453 823.70483398 458.12939453 C824.36483398 458.12939453 825.02483398 458.12939453 825.70483398 458.12939453 C825.70483398 459.44939453 825.70483398 460.76939453 825.70483398 462.12939453 C826.36483398 462.12939453 827.02483398 462.12939453 827.70483398 462.12939453 C827.70483398 463.44939453 827.70483398 464.76939453 827.70483398 466.12939453 C828.36483398 466.12939453 829.02483398 466.12939453 829.70483398 466.12939453 C831.308385 469.63716238 831.92520262 472.27294332 831.70483398 476.12939453 C832.36483398 476.12939453 833.02483398 476.12939453 833.70483398 476.12939453 C833.70483398 477.44939453 833.70483398 478.76939453 833.70483398 480.12939453 C834.36483398 480.12939453 835.02483398 480.12939453 835.70483398 480.12939453 C835.70483398 481.44939453 835.70483398 482.76939453 835.70483398 484.12939453 C836.36483398 484.12939453 837.02483398 484.12939453 837.70483398 484.12939453 C839.20304458 487.50036836 839.70483398 489.33381572 839.70483398 493.12939453 C840.36483398 493.12939453 841.02483398 493.12939453 841.70483398 493.12939453 C841.99616211 493.92861328 842.28749023 494.72783203 842.58764648 495.55126953 C845.14990161 502.41617949 847.98886379 508.9731246 851.37280273 515.47314453 C854.70483398 522.11766433 854.70483398 522.11766433 854.70483398 526.12939453 C855.36483398 526.12939453 856.02483398 526.12939453 856.70483398 526.12939453 C856.70483398 527.44939453 856.70483398 528.76939453 856.70483398 530.12939453 C857.36483398 530.12939453 858.02483398 530.12939453 858.70483398 530.12939453 C858.70483398 531.44939453 858.70483398 532.76939453 858.70483398 534.12939453 C859.36483398 534.12939453 860.02483398 534.12939453 860.70483398 534.12939453 C860.70483398 535.44939453 860.70483398 536.76939453 860.70483398 538.12939453 C861.36483398 538.12939453 862.02483398 538.12939453 862.70483398 538.12939453 C862.70483398 539.44939453 862.70483398 540.76939453 862.70483398 542.12939453 C863.36483398 542.12939453 864.02483398 542.12939453 864.70483398 542.12939453 C865.13795898 543.34626953 865.57108398 544.56314453 866.01733398 545.81689453 C866.98259276 548.41849675 867.9538358 550.54439755 869.39233398 552.94189453 C870.70483398 555.12939453 870.70483398 555.12939453 870.70483398 558.12939453 C871.36483398 558.12939453 872.02483398 558.12939453 872.70483398 558.12939453 C873.1031543 559.26892578 873.50147461 560.40845703 873.91186523 561.58251953 C875.96225639 567.05505089 878.79939446 572.03926979 881.65209961 577.12548828 C882.24087891 578.2025 882.24087891 578.2025 882.84155273 579.30126953 C883.19950928 579.94161133 883.55746582 580.58195313 883.92626953 581.24169922 C884.70483398 583.12939453 884.70483398 583.12939453 884.70483398 587.12939453 C885.36483398 587.12939453 886.02483398 587.12939453 886.70483398 587.12939453 C887.08575195 588.10779297 887.08575195 588.10779297 887.47436523 589.10595703 C889.0072431 592.99843341 890.52724207 596.78689583 892.45483398 600.50439453 C893.70483398 603.12939453 893.70483398 603.12939453 893.70483398 607.12939453 C894.36483398 607.12939453 895.02483398 607.12939453 895.70483398 607.12939453 C897.20304458 610.50036836 897.70483398 612.33381572 897.70483398 616.12939453 C898.36483398 616.12939453 899.02483398 616.12939453 899.70483398 616.12939453 C899.70483398 617.44939453 899.70483398 618.76939453 899.70483398 620.12939453 C900.36483398 620.12939453 901.02483398 620.12939453 901.70483398 620.12939453 C901.90979492 620.69529297 902.11475586 621.26119141 902.32592773 621.84423828 C902.5953418 622.57771484 902.86475586 623.31119141 903.14233398 624.06689453 C903.40916992 624.79779297 903.67600586 625.52869141 903.95092773 626.28173828 C904.55870346 628.11245131 904.55870346 628.11245131 905.70483398 629.12939453 C905.74547231 630.79556568 905.74755499 632.46327548 905.70483398 634.12939453 C906.36483398 634.12939453 907.02483398 634.12939453 907.70483398 634.12939453 C907.70483398 635.44939453 907.70483398 636.76939453 907.70483398 638.12939453 C908.36483398 638.12939453 909.02483398 638.12939453 909.70483398 638.12939453 C909.70483398 640.10939453 909.70483398 642.08939453 909.70483398 644.12939453 C910.36483398 644.12939453 911.02483398 644.12939453 911.70483398 644.12939453 C911.70483398 644.78939453 911.70483398 645.44939453 911.70483398 646.12939453 C912.69483398 646.12939453 913.68483398 646.12939453 914.70483398 646.12939453 C914.79230326 650.17092368 914.8453838 654.21220758 914.89233398 658.25439453 C914.93003906 659.96755859 914.93003906 659.96755859 914.96850586 661.71533203 C915.05977307 672.18063923 915.05977307 672.18063923 911.70483398 677.12939453 C911.04483398 677.12939453 910.38483398 677.12939453 909.70483398 677.12939453 C909.70483398 678.11939453 909.70483398 679.10939453 909.70483398 680.12939453 C909.04483398 680.12939453 908.38483398 680.12939453 907.70483398 680.12939453 C907.51920898 681.21220703 907.51920898 681.21220703 907.32983398 682.31689453 C906.70483398 685.12939453 906.70483398 685.12939453 905.70483398 687.56689453 C904.59576117 690.40889363 904.12540162 693.11532645 903.70483398 696.12939453 C903.04483398 696.12939453 902.38483398 696.12939453 901.70483398 696.12939453 C901.78733398 696.95439453 901.86983398 697.77939453 901.95483398 698.62939453 C901.63247409 703.14243301 899.91188747 706.24734509 897.70483398 710.12939453 C897.04483398 710.12939453 896.38483398 710.12939453 895.70483398 710.12939453 C895.31811523 711.17160156 895.31811523 711.17160156 894.92358398 712.23486328 C893.56595263 715.45923775 891.95154385 718.41105685 890.20483398 721.44189453 C889.29217773 723.04484375 889.29217773 723.04484375 888.36108398 724.68017578 C887.81452148 725.48841797 887.26795898 726.29666016 886.70483398 727.12939453 C886.04483398 727.12939453 885.38483398 727.12939453 884.70483398 727.12939453 C884.70483398 727.78939453 884.70483398 728.44939453 884.70483398 729.12939453 C884.04483398 729.12939453 883.38483398 729.12939453 882.70483398 729.12939453 C882.70483398 729.78939453 882.70483398 730.44939453 882.70483398 731.12939453 C882.04483398 731.12939453 881.38483398 731.12939453 880.70483398 731.12939453 C880.70483398 731.78939453 880.70483398 732.44939453 880.70483398 733.12939453 C880.04483398 733.12939453 879.38483398 733.12939453 878.70483398 733.12939453 C878.70483398 733.78939453 878.70483398 734.44939453 878.70483398 735.12939453 C877.38483398 735.12939453 876.06483398 735.12939453 874.70483398 735.12939453 C874.70483398 735.78939453 874.70483398 736.44939453 874.70483398 737.12939453 C874.04483398 737.12939453 873.38483398 737.12939453 872.70483398 737.12939453 C872.70483398 737.78939453 872.70483398 738.44939453 872.70483398 739.12939453 C871.38483398 739.12939453 870.06483398 739.12939453 868.70483398 739.12939453 C868.70483398 739.78939453 868.70483398 740.44939453 868.70483398 741.12939453 C867.38483398 741.12939453 866.06483398 741.12939453 864.70483398 741.12939453 C864.70483398 741.78939453 864.70483398 742.44939453 864.70483398 743.12939453 C864.04483398 743.12939453 863.38483398 743.12939453 862.70483398 743.12939453 C862.70483398 743.78939453 862.70483398 744.44939453 862.70483398 745.12939453 C861.02514648 746.63720703 861.02514648 746.63720703 858.82983398 748.25439453 C857.75088867 749.06263672 857.75088867 749.06263672 856.65014648 749.88720703 C854.70483398 751.12939453 854.70483398 751.12939453 852.70483398 751.12939453 C852.47924805 751.67337891 852.25366211 752.21736328 852.02124023 752.77783203 C850.29259611 755.86579572 848.05933254 758.17394427 845.64233398 760.75439453 C842.28949752 764.17149206 842.28949752 764.17149206 839.70483398 768.12939453 C839.04483398 768.12939453 838.38483398 768.12939453 837.70483398 768.12939453 C837.70483398 768.78939453 837.70483398 769.44939453 837.70483398 770.12939453 C837.04483398 770.12939453 836.38483398 770.12939453 835.70483398 770.12939453 C835.70483398 770.78939453 835.70483398 771.44939453 835.70483398 772.12939453 C835.04483398 772.12939453 834.38483398 772.12939453 833.70483398 772.12939453 C833.56045898 772.74814453 833.41608398 773.36689453 833.26733398 774.00439453 C832.70483398 776.12939453 832.70483398 776.12939453 831.70483398 778.12939453 C831.04483398 778.12939453 830.38483398 778.12939453 829.70483398 778.12939453 C829.70483398 778.78939453 829.70483398 779.44939453 829.70483398 780.12939453 C829.04483398 780.12939453 828.38483398 780.12939453 827.70483398 780.12939453 C827.60170898 780.70689453 827.49858398 781.28439453 827.39233398 781.87939453 C826.59586934 784.48600611 825.51418122 786.10292563 823.70483398 788.12939453 C823.04483398 788.12939453 822.38483398 788.12939453 821.70483398 788.12939453 C821.70483398 788.78939453 821.70483398 789.44939453 821.70483398 790.12939453 C821.04483398 790.12939453 820.38483398 790.12939453 819.70483398 790.12939453 C819.70483398 790.78939453 819.70483398 791.44939453 819.70483398 792.12939453 C819.04483398 792.12939453 818.38483398 792.12939453 817.70483398 792.12939453 C817.56045898 792.74814453 817.41608398 793.36689453 817.26733398 794.00439453 C816.70483398 796.12939453 816.70483398 796.12939453 815.70483398 798.12939453 C815.04483398 798.12939453 814.38483398 798.12939453 813.70483398 798.12939453 C813.70483398 799.11939453 813.70483398 800.10939453 813.70483398 801.12939453 C813.04483398 801.12939453 812.38483398 801.12939453 811.70483398 801.12939453 C811.5443457 801.99951172 811.5443457 801.99951172 811.38061523 802.88720703 C810.61290214 805.43441696 809.54065296 806.92626074 807.89233398 809.00439453 C805.95284618 811.48805518 804.13055907 813.96088138 802.45483398 816.62939453 C801.87733398 817.45439453 801.29983398 818.27939453 800.70483398 819.12939453 C800.04483398 819.12939453 799.38483398 819.12939453 798.70483398 819.12939453 C798.70483398 819.78939453 798.70483398 820.44939453 798.70483398 821.12939453 C798.04483398 821.12939453 797.38483398 821.12939453 796.70483398 821.12939453 C796.41608398 821.89251953 796.12733398 822.65564453 795.82983398 823.44189453 C794.70483398 826.12939453 794.70483398 826.12939453 792.70483398 829.12939453 C792.04483398 829.12939453 791.38483398 829.12939453 790.70483398 829.12939453 C790.60170898 829.66564453 790.49858398 830.20189453 790.39233398 830.75439453 C789.2076921 834.84679378 787.0391182 838.48654027 785.07983398 842.25439453 C783.9563189 844.60356243 783.19295061 846.5911881 782.70483398 849.12939453 C782.04483398 849.12939453 781.38483398 849.12939453 780.70483398 849.12939453 C780.59010742 849.84998047 780.47538086 850.57056641 780.35717773 851.31298828 C779.67692062 854.24990672 778.65709775 856.52371305 777.26733398 859.19189453 C776.83549805 860.02849609 776.40366211 860.86509766 775.95874023 861.72705078 C775.54495117 862.51982422 775.13116211 863.31259766 774.70483398 864.12939453 C774.03546416 865.46137286 773.36779782 866.7942162 772.70483398 868.12939453 C772.04483398 868.12939453 771.38483398 868.12939453 770.70483398 868.12939453 C770.59913086 868.69529297 770.49342773 869.26119141 770.38452148 869.84423828 C767.68311283 878.92656047 758.67482945 887.04943165 751.70483398 893.12939453 C751.04483398 893.12939453 750.38483398 893.12939453 749.70483398 893.12939453 C749.70483398 893.78939453 749.70483398 894.44939453 749.70483398 895.12939453 C749.04483398 895.12939453 748.38483398 895.12939453 747.70483398 895.12939453 C747.70483398 895.78939453 747.70483398 896.44939453 747.70483398 897.12939453 C747.04483398 897.12939453 746.38483398 897.12939453 745.70483398 897.12939453 C745.70483398 897.78939453 745.70483398 898.44939453 745.70483398 899.12939453 C742.70483398 901.12939453 742.70483398 901.12939453 739.70483398 901.12939453 C739.70483398 901.78939453 739.70483398 902.44939453 739.70483398 903.12939453 C739.04483398 903.12939453 738.38483398 903.12939453 737.70483398 903.12939453 C737.70483398 903.78939453 737.70483398 904.44939453 737.70483398 905.12939453 C731.07983398 909.12939453 731.07983398 909.12939453 727.70483398 909.12939453 C727.70483398 909.78939453 727.70483398 910.44939453 727.70483398 911.12939453 C725.81681315 911.81298828 723.92879232 912.49658203 722.04077148 913.18017578 C719.58057629 914.14077436 719.58057629 914.14077436 716.82983398 915.59814453 C709.19302154 919.34018263 701.23176308 921.79817328 692.70483398 921.12939453 C692.70483398 921.78939453 692.70483398 922.44939453 692.70483398 923.12939453 C691.81795898 923.41814453 690.93108398 923.70689453 690.01733398 924.00439453 C688.37764648 924.56126953 688.37764648 924.56126953 686.70483398 925.12939453 C685.79733398 925.41814453 684.88983398 925.70689453 683.95483398 926.00439453 C681.19315025 927.3852364 680.8990974 928.34277991 679.70483398 931.12939453 C677.70483398 933.87939453 677.70483398 933.87939453 675.70483398 936.12939453 C675.04483398 936.12939453 674.38483398 936.12939453 673.70483398 936.12939453 C673.70483398 937.44939453 673.70483398 938.76939453 673.70483398 940.12939453 C673.04483398 940.12939453 672.38483398 940.12939453 671.70483398 940.12939453 C671.72545898 941.09876953 671.74608398 942.06814453 671.76733398 943.06689453 C671.70483398 946.12939453 671.70483398 946.12939453 670.70483398 947.12939453 C670.46955626 949.47926715 670.29096982 951.83495492 670.14233398 954.19189453 C670.05854492 955.48224609 669.97475586 956.77259766 669.88842773 958.10205078 C669.79754883 959.60058594 669.79754883 959.60058594 669.70483398 961.12939453 C669.04483398 961.12939453 668.38483398 961.12939453 667.70483398 961.12939453 C667.70483398 963.10939453 667.70483398 965.08939453 667.70483398 967.12939453 C667.04483398 967.12939453 666.38483398 967.12939453 665.70483398 967.12939453 C665.70483398 968.44939453 665.70483398 969.76939453 665.70483398 971.12939453 C665.04483398 971.12939453 664.38483398 971.12939453 663.70483398 971.12939453 C663.70483398 972.44939453 663.70483398 973.76939453 663.70483398 975.12939453 C663.04483398 975.12939453 662.38483398 975.12939453 661.70483398 975.12939453 C661.70483398 975.78939453 661.70483398 976.44939453 661.70483398 977.12939453 C661.04483398 977.12939453 660.38483398 977.12939453 659.70483398 977.12939453 C659.70483398 978.44939453 659.70483398 979.76939453 659.70483398 981.12939453 C659.04483398 981.12939453 658.38483398 981.12939453 657.70483398 981.12939453 C657.70483398 981.78939453 657.70483398 982.44939453 657.70483398 983.12939453 C657.04483398 983.12939453 656.38483398 983.12939453 655.70483398 983.12939453 C655.62233398 983.70689453 655.53983398 984.28439453 655.45483398 984.87939453 C654.47885198 987.80734054 653.06972175 989.1818399 650.70483398 991.12939453 C649.71483398 991.12939453 648.72483398 991.12939453 647.70483398 991.12939453 C647.70483398 991.78939453 647.70483398 992.44939453 647.70483398 993.12939453 C647.04483398 993.12939453 646.38483398 993.12939453 645.70483398 993.12939453 C645.70483398 993.78939453 645.70483398 994.44939453 645.70483398 995.12939453 C644.38483398 995.12939453 643.06483398 995.12939453 641.70483398 995.12939453 C641.70483398 995.78939453 641.70483398 996.44939453 641.70483398 997.12939453 C640.05483398 997.12939453 638.40483398 997.12939453 636.70483398 997.12939453 C636.70483398 997.78939453 636.70483398 998.44939453 636.70483398 999.12939453 C635.57045898 999.27376953 634.43608398 999.41814453 633.26733398 999.56689453 C629.89706197 999.74110931 629.89706197 999.74110931 628.70483398 1001.12939453 C626.64754229 1001.44862945 624.58869877 1001.64100805 622.51733398 1001.84814453 C620.68808068 1001.94937497 620.68808068 1001.94937497 619.70483398 1003.12939453 C616.9067247 1003.27722492 614.13015762 1003.36444769 611.32983398 1003.41064453 C610.4901709 1003.42905396 609.65050781 1003.44746338 608.78540039 1003.46643066 C605.17729878 1003.54538513 601.56900243 1003.6129415 597.96069336 1003.68164062 C595.33364288 1003.73325355 592.70675899 1003.79054979 590.07983398 1003.84814453 C588.84547607 1003.86850769 588.84547607 1003.86850769 587.58618164 1003.88928223 C583.83850786 1003.61703114 583.83850786 1003.61703114 580.70483398 1005.12939453 C579.29143305 1005.28708802 577.87357876 1005.40574009 576.45483398 1005.50439453 C572.470322 1005.89019649 570.05112035 1006.86573022 566.70483398 1009.12939453 C565.71483398 1009.12939453 564.72483398 1009.12939453 563.70483398 1009.12939453 C563.70483398 1009.78939453 563.70483398 1010.44939453 563.70483398 1011.12939453 C561.77895819 1012.7607939 559.86156682 1014.26662678 557.82983398 1015.75439453 C557.27424805 1016.17462891 556.71866211 1016.59486328 556.14624023 1017.02783203 C551.96718687 1020.12939453 551.96718687 1020.12939453 549.70483398 1020.12939453 C549.70483398 1020.78939453 549.70483398 1021.44939453 549.70483398 1022.12939453 C548.71483398 1022.12939453 547.72483398 1022.12939453 546.70483398 1022.12939453 C546.70483398 1022.78939453 546.70483398 1023.44939453 546.70483398 1024.12939453 C546.04483398 1024.12939453 545.38483398 1024.12939453 544.70483398 1024.12939453 C544.70483398 1024.78939453 544.70483398 1025.44939453 544.70483398 1026.12939453 C544.04483398 1026.12939453 543.38483398 1026.12939453 542.70483398 1026.12939453 C542.70483398 1026.78939453 542.70483398 1027.44939453 542.70483398 1028.12939453 C542.04483398 1028.12939453 541.38483398 1028.12939453 540.70483398 1028.12939453 C540.70483398 1028.78939453 540.70483398 1029.44939453 540.70483398 1030.12939453 C540.04483398 1030.12939453 539.38483398 1030.12939453 538.70483398 1030.12939453 C538.70483398 1030.78939453 538.70483398 1031.44939453 538.70483398 1032.12939453 C538.04483398 1032.12939453 537.38483398 1032.12939453 536.70483398 1032.12939453 C536.70483398 1032.78939453 536.70483398 1033.44939453 536.70483398 1034.12939453 C536.04483398 1034.12939453 535.38483398 1034.12939453 534.70483398 1034.12939453 C534.70483398 1034.78939453 534.70483398 1035.44939453 534.70483398 1036.12939453 C534.04483398 1036.12939453 533.38483398 1036.12939453 532.70483398 1036.12939453 C532.70483398 1036.78939453 532.70483398 1037.44939453 532.70483398 1038.12939453 C532.04483398 1038.12939453 531.38483398 1038.12939453 530.70483398 1038.12939453 C530.70483398 1038.78939453 530.70483398 1039.44939453 530.70483398 1040.12939453 C530.04483398 1040.12939453 529.38483398 1040.12939453 528.70483398 1040.12939453 C528.70483398 1040.78939453 528.70483398 1041.44939453 528.70483398 1042.12939453 C528.04483398 1042.12939453 527.38483398 1042.12939453 526.70483398 1042.12939453 C526.70483398 1042.78939453 526.70483398 1043.44939453 526.70483398 1044.12939453 C526.04483398 1044.12939453 525.38483398 1044.12939453 524.70483398 1044.12939453 C524.70483398 1044.78939453 524.70483398 1045.44939453 524.70483398 1046.12939453 C524.04483398 1046.12939453 523.38483398 1046.12939453 522.70483398 1046.12939453 C522.70483398 1046.78939453 522.70483398 1047.44939453 522.70483398 1048.12939453 C522.04483398 1048.12939453 521.38483398 1048.12939453 520.70483398 1048.12939453 C520.70483398 1048.78939453 520.70483398 1049.44939453 520.70483398 1050.12939453 C520.04483398 1050.12939453 519.38483398 1050.12939453 518.70483398 1050.12939453 C518.70483398 1050.78939453 518.70483398 1051.44939453 518.70483398 1052.12939453 C518.04483398 1052.12939453 517.38483398 1052.12939453 516.70483398 1052.12939453 C516.37483398 1053.11939453 516.04483398 1054.10939453 515.70483398 1055.12939453 C515.04483398 1055.12939453 514.38483398 1055.12939453 513.70483398 1055.12939453 C513.70483398 1055.78939453 513.70483398 1056.44939453 513.70483398 1057.12939453 C513.04483398 1057.12939453 512.38483398 1057.12939453 511.70483398 1057.12939453 C511.70483398 1057.78939453 511.70483398 1058.44939453 511.70483398 1059.12939453 C511.04483398 1059.12939453 510.38483398 1059.12939453 509.70483398 1059.12939453 C509.70483398 1059.78939453 509.70483398 1060.44939453 509.70483398 1061.12939453 C509.04483398 1061.12939453 508.38483398 1061.12939453 507.70483398 1061.12939453 C507.70483398 1061.78939453 507.70483398 1062.44939453 507.70483398 1063.12939453 C507.04483398 1063.12939453 506.38483398 1063.12939453 505.70483398 1063.12939453 C505.70483398 1063.78939453 505.70483398 1064.44939453 505.70483398 1065.12939453 C504.05483398 1065.78939453 502.40483398 1066.44939453 500.70483398 1067.12939453 C500.70483398 1067.78939453 500.70483398 1068.44939453 500.70483398 1069.12939453 C499.71483398 1069.12939453 498.72483398 1069.12939453 497.70483398 1069.12939453 C497.70483398 1069.78939453 497.70483398 1070.44939453 497.70483398 1071.12939453 C497.04483398 1071.12939453 496.38483398 1071.12939453 495.70483398 1071.12939453 C495.70483398 1071.78939453 495.70483398 1072.44939453 495.70483398 1073.12939453 C494.38483398 1073.12939453 493.06483398 1073.12939453 491.70483398 1073.12939453 C491.70483398 1073.78939453 491.70483398 1074.44939453 491.70483398 1075.12939453 C484.71253502 1079.25205292 479.21031148 1080.88303352 471.12280273 1080.79345703 C469.65874748 1080.80063248 469.65874748 1080.80063248 468.16511536 1080.80795288 C466.11380387 1080.81133286 464.0624371 1080.80226481 462.01123047 1080.78125 C458.90979789 1080.75454491 455.81201267 1080.78101845 452.71069336 1080.81298828 C428.38907617 1080.85488209 428.38907617 1080.85488209 419.45483398 1072.44189453 C417.70483398 1070.12939453 417.70483398 1070.12939453 416.70483398 1068.12939453 C414.3609659 1067.21908181 414.3609659 1067.21908181 411.64233398 1066.50439453 C410.72323242 1066.24400391 409.80413086 1065.98361328 408.85717773 1065.71533203 C408.1469043 1065.52197266 407.43663086 1065.32861328 406.70483398 1065.12939453 C406.70483398 1064.46939453 406.70483398 1063.80939453 406.70483398 1063.12939453 C405.98295898 1062.98501953 405.26108398 1062.84064453 404.51733398 1062.69189453 C401.91316732 1062.1710612 399.30900065 1061.65022786 396.70483398 1061.12939453 C396.70483398 1060.46939453 396.70483398 1059.80939453 396.70483398 1059.12939453 C395.4732959 1059.10433838 394.24175781 1059.07928223 392.97290039 1059.0534668 C388.41435905 1058.95946841 383.8559728 1058.85922939 379.29760742 1058.75708008 C377.32270936 1058.7137025 375.34777311 1058.67202953 373.37280273 1058.63208008 C370.53805008 1058.5744458 367.7034902 1058.51073184 364.86889648 1058.44580078 C363.9823941 1058.42908829 363.09589172 1058.41237579 362.18252563 1058.39515686 C355.9325774 1058.24326624 355.9325774 1058.24326624 353.70483398 1057.12939453 C351.87519987 1056.92610185 350.04075031 1056.76467258 348.20483398 1056.62939453 C342.92705621 1056.24050564 342.92705621 1056.24050564 340.70483398 1055.12939453 C338.11339493 1054.81893927 335.52111667 1054.61965541 332.91967773 1054.41064453 C330.70483398 1054.12939453 330.70483398 1054.12939453 329.70483398 1053.12939453 C328.46733398 1053.02626953 327.22983398 1052.92314453 325.95483398 1052.81689453 C316.96253858 1051.89755443 308.2791934 1049.06153555 300.70483398 1044.12939453 C300.70483398 1043.46939453 300.70483398 1042.80939453 300.70483398 1042.12939453 C300.08608398 1041.98501953 299.46733398 1041.84064453 298.82983398 1041.69189453 C296.70483398 1041.12939453 296.70483398 1041.12939453 294.70483398 1040.12939453 C294.70483398 1039.46939453 294.70483398 1038.80939453 294.70483398 1038.12939453 C294.04483398 1038.12939453 293.38483398 1038.12939453 292.70483398 1038.12939453 C292.70483398 1037.46939453 292.70483398 1036.80939453 292.70483398 1036.12939453 C292.04483398 1036.12939453 291.38483398 1036.12939453 290.70483398 1036.12939453 C290.70483398 1035.46939453 290.70483398 1034.80939453 290.70483398 1034.12939453 C289.71483398 1034.12939453 288.72483398 1034.12939453 287.70483398 1034.12939453 C287.70483398 1033.46939453 287.70483398 1032.80939453 287.70483398 1032.12939453 C287.10670898 1031.84064453 286.50858398 1031.55189453 285.89233398 1031.25439453 C283.70483398 1030.12939453 283.70483398 1030.12939453 280.70483398 1028.12939453 C280.70483398 1027.46939453 280.70483398 1026.80939453 280.70483398 1026.12939453 C279.71483398 1026.12939453 278.72483398 1026.12939453 277.70483398 1026.12939453 C277.70483398 1025.46939453 277.70483398 1024.80939453 277.70483398 1024.12939453 C277.04483398 1024.12939453 276.38483398 1024.12939453 275.70483398 1024.12939453 C275.70483398 1023.46939453 275.70483398 1022.80939453 275.70483398 1022.12939453 C275.04483398 1022.12939453 274.38483398 1022.12939453 273.70483398 1022.12939453 C273.70483398 1021.46939453 273.70483398 1020.80939453 273.70483398 1020.12939453 C272.83858398 1019.88189453 271.97233398 1019.63439453 271.07983398 1019.37939453 C267.49423335 1018.0513943 264.74155411 1016.44308606 261.70483398 1014.12939453 C261.70483398 1013.46939453 261.70483398 1012.80939453 261.70483398 1012.12939453 C260.38483398 1011.79939453 259.06483398 1011.46939453 257.70483398 1011.12939453 C257.70483398 1010.46939453 257.70483398 1009.80939453 257.70483398 1009.12939453 C256.94170898 1008.84064453 256.17858398 1008.55189453 255.39233398 1008.25439453 C252.70483398 1007.12939453 252.70483398 1007.12939453 249.70483398 1005.12939453 C249.70483398 1004.46939453 249.70483398 1003.80939453 249.70483398 1003.12939453 C248.71483398 1003.12939453 247.72483398 1003.12939453 246.70483398 1003.12939453 C246.70483398 1002.46939453 246.70483398 1001.80939453 246.70483398 1001.12939453 C246.12733398 1000.84064453 245.54983398 1000.55189453 244.95483398 1000.25439453 C242.87150065 999.21272786 240.78816732 998.1710612 238.70483398 997.12939453 C238.70483398 996.46939453 238.70483398 995.80939453 238.70483398 995.12939453 C238.04483398 995.12939453 237.38483398 995.12939453 236.70483398 995.12939453 C236.70483398 994.46939453 236.70483398 993.80939453 236.70483398 993.12939453 C236.04483398 993.12939453 235.38483398 993.12939453 234.70483398 993.12939453 C234.70483398 992.46939453 234.70483398 991.80939453 234.70483398 991.12939453 C233.38483398 991.12939453 232.06483398 991.12939453 230.70483398 991.12939453 C230.70483398 990.46939453 230.70483398 989.80939453 230.70483398 989.12939453 C228.72483398 988.46939453 226.74483398 987.80939453 224.70483398 987.12939453 C224.70483398 986.46939453 224.70483398 985.80939453 224.70483398 985.12939453 C224.11959961 985.00306641 223.53436523 984.87673828 222.93139648 984.74658203 C220.7458809 984.14077245 219.0612725 983.3420778 217.07983398 982.25439453 C212.45454545 979.88156993 207.71106786 978.4750702 202.70483398 977.12939453 C202.01260742 976.93345703 201.32038086 976.73751953 200.60717773 976.53564453 C197.1723748 975.6069503 193.87506718 975.00854408 190.32983398 974.69189453 C183.78605858 974.05679674 177.51798665 972.20225098 171.70483398 969.12939453 C171.70483398 968.46939453 171.70483398 967.80939453 171.70483398 967.12939453 C170.38483398 966.46939453 169.06483398 965.80939453 167.70483398 965.12939453 C167.70483398 964.13939453 167.70483398 963.14939453 167.70483398 962.12939453 C167.04483398 962.12939453 166.38483398 962.12939453 165.70483398 962.12939453 C165.70483398 961.46939453 165.70483398 960.80939453 165.70483398 960.12939453 C164.71483398 960.12939453 163.72483398 960.12939453 162.70483398 960.12939453 C162.70483398 959.46939453 162.70483398 958.80939453 162.70483398 958.12939453 C162.04483398 958.12939453 161.38483398 958.12939453 160.70483398 958.12939453 C160.70483398 957.46939453 160.70483398 956.80939453 160.70483398 956.12939453 C160.04483398 956.12939453 159.38483398 956.12939453 158.70483398 956.12939453 C158.70483398 955.46939453 158.70483398 954.80939453 158.70483398 954.12939453 C158.04483398 954.12939453 157.38483398 954.12939453 156.70483398 954.12939453 C156.70483398 953.46939453 156.70483398 952.80939453 156.70483398 952.12939453 C156.04483398 952.12939453 155.38483398 952.12939453 154.70483398 952.12939453 C154.70483398 951.46939453 154.70483398 950.80939453 154.70483398 950.12939453 C154.04483398 950.12939453 153.38483398 950.12939453 152.70483398 950.12939453 C152.70483398 949.46939453 152.70483398 948.80939453 152.70483398 948.12939453 C152.04483398 948.12939453 151.38483398 948.12939453 150.70483398 948.12939453 C148.70483398 945.12939453 148.70483398 945.12939453 148.70483398 942.12939453 C145.40483398 942.12939453 142.10483398 942.12939453 138.70483398 942.12939453 C138.70483398 941.46939453 138.70483398 940.80939453 138.70483398 940.12939453 C137.67616211 940.18611328 136.64749023 940.24283203 135.58764648 940.30126953 C125.22045415 939.84235961 117.42297613 932.25865223 110.39892578 925.35009766 C106.00744612 921.13298458 101.64627823 918.68516774 95.70483398 917.12939453 C95.70483398 916.46939453 95.70483398 915.80939453 95.70483398 915.12939453 C94.62202148 914.97470703 94.62202148 914.97470703 93.51733398 914.81689453 C90.42689977 914.06145506 88.28739557 912.97408138 85.70483398 911.12939453 C85.70483398 910.46939453 85.70483398 909.80939453 85.70483398 909.12939453 C84.71483398 909.12939453 83.72483398 909.12939453 82.70483398 909.12939453 C82.70483398 908.46939453 82.70483398 907.80939453 82.70483398 907.12939453 C82.04483398 907.12939453 81.38483398 907.12939453 80.70483398 907.12939453 C80.70483398 906.46939453 80.70483398 905.80939453 80.70483398 905.12939453 C80.04483398 905.12939453 79.38483398 905.12939453 78.70483398 905.12939453 C78.70483398 904.46939453 78.70483398 903.80939453 78.70483398 903.12939453 C78.04483398 903.12939453 77.38483398 903.12939453 76.70483398 903.12939453 C76.04483398 902.13939453 75.38483398 901.14939453 74.70483398 900.12939453 C72.27961904 899.54750187 72.27961904 899.54750187 69.57983398 899.44189453 C68.66975586 899.37615234 67.75967773 899.31041016 66.82202148 899.24267578 C66.12334961 899.20529297 65.42467773 899.16791016 64.70483398 899.12939453 C64.70483398 898.46939453 64.70483398 897.80939453 64.70483398 897.12939453 C63.12702148 897.19126953 63.12702148 897.19126953 61.51733398 897.25439453 C57.96473225 897.13791579 55.85616758 896.65731385 52.70483398 895.12939453 C52.70483398 894.46939453 52.70483398 893.80939453 52.70483398 893.12939453 C51.89852539 893.01917969 51.89852539 893.01917969 51.07592773 892.90673828 C47.751201 891.81675373 45.50782703 889.85180393 42.76733398 887.69189453 C37.03761187 883.17910455 32.48028362 881.19437008 25.39233398 879.69189453 C20.97499752 878.70308693 16.81963634 877.58441087 12.62670898 875.89111328 C9.04539806 874.47169127 5.36594356 873.32434002 1.70483398 872.12939453 C1.70483398 871.46939453 1.70483398 870.80939453 1.70483398 870.12939453 C0.96233398 869.98501953 0.21983398 869.84064453 -0.54516602 869.69189453 C-2.81544341 869.22751961 -5.05276081 868.71075884 -7.29516602 868.12939453 C-7.29516602 867.46939453 -7.29516602 866.80939453 -7.29516602 866.12939453 C-8.10147461 866.14510498 -8.9077832 866.16081543 -9.73852539 866.17700195 C-13.42399972 866.23971429 -17.10936136 866.27850073 -20.79516602 866.31689453 C-22.69782227 866.35459961 -22.69782227 866.35459961 -24.63891602 866.39306641 C-31.64561092 866.44780621 -36.93108341 866.09929975 -43.29516602 863.12939453 C-44.95189239 862.74972807 -46.61586847 862.39178477 -48.29516602 862.12939453 C-48.29516602 861.46939453 -48.29516602 860.80939453 -48.29516602 860.12939453 C-49.37797852 860.19126953 -49.37797852 860.19126953 -50.48266602 860.25439453 C-53.50245971 860.12018148 -55.56452331 859.37768834 -58.29516602 858.12939453 C-58.29516602 857.46939453 -58.29516602 856.80939453 -58.29516602 856.12939453 C-59.61516602 856.12939453 -60.93516602 856.12939453 -62.29516602 856.12939453 C-62.29516602 855.46939453 -62.29516602 854.80939453 -62.29516602 854.12939453 C-64.60516602 854.12939453 -66.91516602 854.12939453 -69.29516602 854.12939453 C-69.29516602 853.46939453 -69.29516602 852.80939453 -69.29516602 852.12939453 C-70.47079102 852.19126953 -71.64641602 852.25314453 -72.85766602 852.31689453 C-85.47518799 852.25784217 -101.94275839 848.50071776 -112.72485352 841.56689453 C-120.59822405 837.16355052 -130.03261821 837.75132187 -138.79516602 837.56689453 C-141.3265183 837.50728854 -143.85778145 837.44371654 -146.38891602 837.37548828 C-147.49944336 837.35156006 -148.6099707 837.32763184 -149.75415039 837.30297852 C-152.29516602 837.12939453 -152.29516602 837.12939453 -153.29516602 836.12939453 C-154.34704102 836.00564453 -155.39891602 835.88189453 -156.48266602 835.75439453 C-160.34319723 835.12152056 -162.85810665 833.9226429 -166.29516602 832.12939453 C-169.03089186 831.4303204 -169.03089186 831.4303204 -171.29516602 831.12939453 C-171.29516602 830.46939453 -171.29516602 829.80939453 -171.29516602 829.12939453 C-173.27516602 829.12939453 -175.25516602 829.12939453 -177.29516602 829.12939453 C-177.29516602 828.46939453 -177.29516602 827.80939453 -177.29516602 827.12939453 C-179.24422852 827.16033203 -179.24422852 827.16033203 -181.23266602 827.19189453 C-182.58682235 827.21338908 -183.94272684 827.20087652 -185.29516602 827.12939453 C-185.62516602 826.79939453 -185.95516602 826.46939453 -186.29516602 826.12939453 C-187.7702372 825.98486736 -189.25152641 825.90244528 -190.73266602 825.84814453 C-192.07458008 825.79207031 -192.07458008 825.79207031 -193.44360352 825.73486328 C-194.38461914 825.70005859 -195.32563477 825.66525391 -196.29516602 825.62939453 C-198.14949797 825.56080965 -200.00368409 825.4881164 -201.85766602 825.41064453 C-203.09709961 825.36520508 -203.09709961 825.36520508 -204.36157227 825.31884766 C-206.29516602 825.12939453 -206.29516602 825.12939453 -207.29516602 824.12939453 C-209.12422837 823.92102034 -210.95904736 823.76189794 -212.79516602 823.62939453 C-218.1840549 823.24050564 -218.1840549 823.24050564 -219.29516602 822.12939453 C-222.12590037 821.62770038 -222.12590037 821.62770038 -225.29516602 822.12939453 C-228.04558268 824.54606224 -228.04558268 824.54606224 -230.29516602 827.12939453 C-230.95516602 827.12939453 -231.61516602 827.12939453 -232.29516602 827.12939453 C-232.29516602 827.78939453 -232.29516602 828.44939453 -232.29516602 829.12939453 C-232.95516602 829.12939453 -233.61516602 829.12939453 -234.29516602 829.12939453 C-234.29516602 829.78939453 -234.29516602 830.44939453 -234.29516602 831.12939453 C-234.95516602 831.12939453 -235.61516602 831.12939453 -236.29516602 831.12939453 C-236.29516602 831.78939453 -236.29516602 832.44939453 -236.29516602 833.12939453 C-236.95516602 833.12939453 -237.61516602 833.12939453 -238.29516602 833.12939453 C-238.29516602 833.78939453 -238.29516602 834.44939453 -238.29516602 835.12939453 C-238.95516602 835.12939453 -239.61516602 835.12939453 -240.29516602 835.12939453 C-240.29516602 835.78939453 -240.29516602 836.44939453 -240.29516602 837.12939453 C-240.95516602 837.12939453 -241.61516602 837.12939453 -242.29516602 837.12939453 C-242.29516602 837.78939453 -242.29516602 838.44939453 -242.29516602 839.12939453 C-242.95516602 839.12939453 -243.61516602 839.12939453 -244.29516602 839.12939453 C-244.29516602 839.78939453 -244.29516602 840.44939453 -244.29516602 841.12939453 C-247.29516602 843.12939453 -247.29516602 843.12939453 -250.29516602 843.12939453 C-250.29516602 843.78939453 -250.29516602 844.44939453 -250.29516602 845.12939453 C-251.61516602 845.45939453 -252.93516602 845.78939453 -254.29516602 846.12939453 C-254.29516602 846.78939453 -254.29516602 847.44939453 -254.29516602 848.12939453 C-255.53977384 848.80607452 -256.79113498 849.47034172 -258.04516602 850.12939453 C-258.74125977 850.50064453 -259.43735352 850.87189453 -260.15454102 851.25439453 C-262.29516602 852.12939453 -262.29516602 852.12939453 -266.29516602 852.12939453 C-266.29516602 852.78939453 -266.29516602 853.44939453 -266.29516602 854.12939453 C-271.62361075 855.89852243 -276.2604348 856.43909833 -281.85766602 856.37939453 C-282.58663086 856.38712891 -283.3155957 856.39486328 -284.06665039 856.40283203 C-288.52332941 856.38678638 -292.0973633 855.8005577 -296.29516602 854.12939453 C-296.29516602 853.46939453 -296.29516602 852.80939453 -296.29516602 852.12939453 C-297.94516602 852.12939453 -299.59516602 852.12939453 -301.29516602 852.12939453 C-301.29516602 853.77939453 -301.29516602 855.42939453 -301.29516602 857.12939453 C-300.63516602 857.12939453 -299.97516602 857.12939453 -299.29516602 857.12939453 C-299.1134082 857.78166016 -298.93165039 858.43392578 -298.74438477 859.10595703 C-297.31432456 864.07816638 -295.69920583 868.53036184 -293.29516602 873.12939453 C-291.19455759 878.23196337 -290.99145768 882.7048523 -291.04516602 888.12939453 C-291.03743164 888.91056641 -291.02969727 889.69173828 -291.02172852 890.49658203 C-291.03722204 895.09815821 -291.54688298 898.80031273 -293.29516602 903.12939453 C-293.95516602 903.12939453 -294.61516602 903.12939453 -295.29516602 903.12939453 C-295.29516602 904.44939453 -295.29516602 905.76939453 -295.29516602 907.12939453 C-295.95516602 907.12939453 -296.61516602 907.12939453 -297.29516602 907.12939453 C-297.29516602 908.11939453 -297.29516602 909.10939453 -297.29516602 910.12939453 C-297.95516602 910.12939453 -298.61516602 910.12939453 -299.29516602 910.12939453 C-299.29516602 910.78939453 -299.29516602 911.44939453 -299.29516602 912.12939453 C-300.61516602 912.45939453 -301.93516602 912.78939453 -303.29516602 913.12939453 C-303.29516602 913.78939453 -303.29516602 914.44939453 -303.29516602 915.12939453 C-312.16313049 920.51972588 -320.70266412 921.35850505 -330.98266602 919.44189453 C-335.32288529 917.72218501 -339.2866883 915.51084841 -343.29516602 913.12939453 C-343.29516602 912.46939453 -343.29516602 911.80939453 -343.29516602 911.12939453 C-343.95516602 911.12939453 -344.61516602 911.12939453 -345.29516602 911.12939453 C-347.29516602 908.12939453 -347.29516602 908.12939453 -347.29516602 905.12939453 C-347.95516602 905.12939453 -348.61516602 905.12939453 -349.29516602 905.12939453 C-351.05979285 902.04129758 -351.29516602 900.89627317 -351.29516602 897.12939453 C-351.95516602 897.12939453 -352.61516602 897.12939453 -353.29516602 897.12939453 C-353.35704102 897.68626953 -353.41891602 898.24314453 -353.48266602 898.81689453 C-354.65248609 902.14638242 -356.70018263 903.76507634 -359.29516602 906.12939453 C-359.78629883 906.57798828 -360.27743164 907.02658203 -360.78344727 907.48876953 C-365.50184714 911.63413376 -369.37315594 913.37941088 -375.63891602 913.39501953 C-376.63793945 913.39759766 -377.63696289 913.40017578 -378.66625977 913.40283203 C-379.69879883 913.39509766 -380.73133789 913.38736328 -381.79516602 913.37939453 C-382.82770508 913.38712891 -383.86024414 913.39486328 -384.92407227 913.40283203 C-385.9230957 913.40025391 -386.92211914 913.39767578 -387.95141602 913.39501953 C-388.85698242 913.39276367 -389.76254883 913.39050781 -390.69555664 913.38818359 C-393.53481067 913.1055381 -395.70771201 912.30413131 -398.29516602 911.12939453 C-398.29516602 910.46939453 -398.29516602 909.80939453 -398.29516602 909.12939453 C-399.04668945 908.88189453 -399.79821289 908.63439453 -400.57250977 908.37939453 C-403.59605146 906.99125487 -404.844143 905.74557293 -406.85766602 903.12939453 C-407.41583008 902.42814453 -407.97399414 901.72689453 -408.54907227 901.00439453 C-413.54285028 892.78197703 -414.88355164 885.68116786 -414.60766602 876.12939453 C-414.59799805 875.09427734 -414.58833008 874.05916016 -414.57836914 872.99267578 C-414.46527741 865.46961732 -414.46527741 865.46961732 -413.29516602 863.12939453 C-413.08955795 860.79916975 -412.9291665 858.46483156 -412.79516602 856.12939453 C-412.40627713 849.35161675 -412.40627713 849.35161675 -411.29516602 847.12939453 C-410.98084078 844.01670162 -410.78426727 840.90321875 -410.57641602 837.78173828 C-410.29516602 835.12939453 -410.29516602 835.12939453 -409.29516602 834.12939453 C-409.08741041 832.46734966 -408.92798347 830.79909962 -408.79516602 829.12939453 C-408.40627713 824.24050564 -408.40627713 824.24050564 -407.29516602 823.12939453 C-407.01128823 820.9079382 -406.84751429 818.68621805 -406.67407227 816.45361328 C-406.27395275 813.99927192 -405.44551606 812.31474318 -404.29516602 810.12939453 C-405.44106201 810.13463135 -406.58695801 810.13986816 -407.76757812 810.14526367 C-412.00357284 810.16331171 -416.23956413 810.17482581 -420.47558594 810.18432617 C-422.31185476 810.18936685 -424.14811956 810.1961993 -425.984375 810.20483398 C-428.61793003 810.21691125 -431.25143218 810.22262534 -433.88500977 810.22705078 C-435.12407326 810.23479271 -435.12407326 810.23479271 -436.38816833 810.24269104 C-438.35752969 810.24288658 -440.32678215 810.19143605 -442.29516602 810.12939453 C-442.62516602 809.79939453 -442.95516602 809.46939453 -443.29516602 809.12939453 C-444.93623843 808.92100438 -446.58372895 808.76187728 -448.23266602 808.62939453 C-453.07561198 808.23917155 -453.07561198 808.23917155 -455.29516602 807.12939453 C-457.77812927 806.92224117 -460.24559369 806.75573687 -462.73266602 806.62939453 C-469.89251238 806.26361241 -469.89251238 806.26361241 -473.29516602 805.12939453 C-482.44958475 804.10851785 -494.02603128 805.79017811 -502.25463867 810.1730957 C-505.77850931 811.8245675 -509.39888463 811.53918045 -513.23266602 811.56689453 C-514.03124023 811.59976563 -514.82981445 811.63263672 -515.65258789 811.66650391 C-519.89025663 811.70512392 -521.68672311 811.63254661 -525.04907227 808.85205078 C-525.7902832 807.95357422 -526.53149414 807.05509766 -527.29516602 806.12939453 C-528.15445709 805.57738876 -529.01374817 805.025383 -529.89907837 804.45664978 C-532.29516602 802.12939453 -532.29516602 802.12939453 -532.90316772 798.54689026 C-532.92066427 797.088227 -532.91053533 795.62907424 -532.87866211 794.1706543 C-532.88099854 793.37165207 -532.88333496 792.57264984 -532.88574219 791.74943542 C-532.88735764 789.10589348 -532.8532889 786.46409586 -532.81860352 783.82080078 C-532.81180856 781.97436654 -532.8070897 780.1279236 -532.80435181 778.28147888 C-532.79092725 773.41175112 -532.74664801 768.54275034 -532.69677734 763.67327881 C-532.66158978 759.73106134 -532.64833046 755.78892017 -532.63635826 751.84657383 C-532.62144591 747.10877144 -532.5963257 742.37104364 -532.56860352 737.63330078 C-532.56369274 736.7438785 -532.55878197 735.85445621 -532.55372238 734.93808174 C-532.3679628 706.20219132 -532.3679628 706.20219132 -530.29516602 704.12939453 C-529.9275587 701.80121489 -529.59275021 699.46755603 -529.29516602 697.12939453 C-528.63516602 697.12939453 -527.97516602 697.12939453 -527.29516602 697.12939453 C-527.19204102 696.44876953 -527.08891602 695.76814453 -526.98266602 695.06689453 C-526.14791583 691.50023464 -524.80043847 688.46717259 -523.29516602 685.12939453 C-522.63516602 685.12939453 -521.97516602 685.12939453 -521.29516602 685.12939453 C-521.29516602 683.80939453 -521.29516602 682.48939453 -521.29516602 681.12939453 C-520.63516602 681.12939453 -519.97516602 681.12939453 -519.29516602 681.12939453 C-519.29516602 680.46939453 -519.29516602 679.80939453 -519.29516602 679.12939453 C-518.63516602 679.12939453 -517.97516602 679.12939453 -517.29516602 679.12939453 C-517.29516602 678.46939453 -517.29516602 677.80939453 -517.29516602 677.12939453 C-516.63516602 677.12939453 -515.97516602 677.12939453 -515.29516602 677.12939453 C-515.29516602 676.46939453 -515.29516602 675.80939453 -515.29516602 675.12939453 C-514.63516602 675.12939453 -513.97516602 675.12939453 -513.29516602 675.12939453 C-513.29516602 674.46939453 -513.29516602 673.80939453 -513.29516602 673.12939453 C-512.63516602 673.12939453 -511.97516602 673.12939453 -511.29516602 673.12939453 C-511.29516602 672.46939453 -511.29516602 671.80939453 -511.29516602 671.12939453 C-509.97516602 671.12939453 -508.65516602 671.12939453 -507.29516602 671.12939453 C-507.29516602 670.46939453 -507.29516602 669.80939453 -507.29516602 669.12939453 C-506.63516602 669.12939453 -505.97516602 669.12939453 -505.29516602 669.12939453 C-505.29516602 668.46939453 -505.29516602 667.80939453 -505.29516602 667.12939453 C-503.64445206 666.10327504 -501.97546596 665.1063131 -500.29516602 664.12939453 C-493.697532 658.45041842 -492.62335711 648.47237213 -491.01391602 640.39892578 C-490.1384002 636.41628049 -488.81920389 632.90635796 -487.29516602 629.12939453 C-486.07299456 625.32708332 -485.19026158 621.71083617 -484.73266602 617.75439453 C-484.29516602 614.12939453 -484.29516602 614.12939453 -483.29516602 613.12939453 C-483.06441519 611.78192369 -482.88363539 610.42561888 -482.73266602 609.06689453 C-482.58829102 607.76751953 -482.44391602 606.46814453 -482.29516602 605.12939453 C-481.63516602 605.12939453 -480.97516602 605.12939453 -480.29516602 605.12939453 C-480.29516602 601.82939453 -480.29516602 598.52939453 -480.29516602 595.12939453 C-479.63516602 595.12939453 -478.97516602 595.12939453 -478.29516602 595.12939453 C-478.29516602 591.82939453 -478.29516602 588.52939453 -478.29516602 585.12939453 C-477.63516602 585.12939453 -476.97516602 585.12939453 -476.29516602 585.12939453 C-476.30676758 584.27474609 -476.31836914 583.42009766 -476.33032227 582.53955078 C-476.3393457 581.43482422 -476.34836914 580.33009766 -476.35766602 579.19189453 C-476.36926758 578.08974609 -476.38086914 576.98759766 -476.39282227 575.85205078 C-476.29516602 573.12939453 -476.29516602 573.12939453 -475.29516602 572.12939453 C-475.1350612 569.39238275 -475.03569774 566.67771863 -474.97875977 563.93798828 C-474.95797867 563.11814957 -474.93719757 562.29831085 -474.91578674 561.45362854 C-474.85020108 558.82480552 -474.79136476 556.19587949 -474.73266602 553.56689453 C-474.68948934 551.78888892 -474.64587534 550.01089388 -474.60180664 548.23291016 C-474.49451059 543.8651782 -474.39326898 539.49734226 -474.29516602 535.12939453 C-473.63516602 535.12939453 -472.97516602 535.12939453 -472.29516602 535.12939453 C-472.31836914 534.53771484 -472.34157227 533.94603516 -472.36547852 533.33642578 C-472.46928066 528.79137494 -472.43224958 525.26999395 -470.29516602 521.12939453 C-469.63516602 521.12939453 -468.97516602 521.12939453 -468.29516602 521.12939453 C-468.29516602 519.80939453 -468.29516602 518.48939453 -468.29516602 517.12939453 C-467.63516602 517.12939453 -466.97516602 517.12939453 -466.29516602 517.12939453 C-466.23329102 516.34564453 -466.17141602 515.56189453 -466.10766602 514.75439453 C-465.17007267 510.57128577 -463.46545049 507.30117497 -461.50219727 503.51611328 C-458.94832273 498.46621898 -458.05944773 493.69773274 -457.29516602 488.12939453 C-456.96516602 487.79939453 -456.63516602 487.46939453 -456.29516602 487.12939453 C-456.08741041 485.46734966 -455.92798347 483.79909962 -455.79516602 482.12939453 C-455.40627713 477.24050564 -455.40627713 477.24050564 -454.29516602 476.12939453 C-454.08584704 473.9664318 -453.92719532 471.79844743 -453.79516602 469.62939453 C-453.40627713 463.24050564 -453.40627713 463.24050564 -452.29516602 462.12939453 C-452.06236237 460.20045003 -451.83157068 458.27122006 -451.61547852 456.34033203 C-451.15358536 453.15214271 -450.25522432 450.20158111 -449.29516602 447.12939453 C-448.63516602 447.12939453 -447.97516602 447.12939453 -447.29516602 447.12939453 C-447.3628418 446.05238281 -447.3628418 446.05238281 -447.43188477 444.95361328 C-447.27715058 441.75724718 -446.48791889 439.81706745 -445.10766602 436.94189453 C-444.42704102 435.51103516 -444.42704102 435.51103516 -443.73266602 434.05126953 C-443.02110352 432.60494141 -443.02110352 432.60494141 -442.29516602 431.12939453 C-441.61454102 429.74494141 -441.61454102 429.74494141 -440.92016602 428.33251953 C-439.72365824 425.92525983 -438.51272166 423.52605669 -437.29516602 421.12939453 C-436.62758814 419.79651719 -435.96061697 418.46333503 -435.29516602 417.12939453 C-434.63516602 417.12939453 -433.97516602 417.12939453 -433.29516602 417.12939453 C-433.29516602 416.46939453 -433.29516602 415.80939453 -433.29516602 415.12939453 C-432.63516602 415.12939453 -431.97516602 415.12939453 -431.29516602 415.12939453 C-431.17141602 414.53126953 -431.04766602 413.93314453 -430.92016602 413.31689453 C-430.29516602 411.12939453 -430.29516602 411.12939453 -428.29516602 408.12939453 C-428.04500729 404.54582212 -428.04500729 404.54582212 -428.29516602 401.12939453 C-428.62516602 400.79939453 -428.95516602 400.46939453 -429.29516602 400.12939453 C-429.61440093 398.07210283 -429.80677954 396.01325932 -430.01391602 393.94189453 C-430.11514645 392.11264123 -430.11514645 392.11264123 -431.29516602 391.12939453 C-431.39503576 388.28604405 -431.43394483 385.4724229 -431.42016602 382.62939453 C-431.4240332 381.83146484 -431.42790039 381.03353516 -431.43188477 380.21142578 C-431.42177369 374.25600221 -431.42177369 374.25600221 -430.29516602 373.12939453 C-430.04794898 370.48325661 -429.91140463 367.83792827 -429.77172852 365.18408203 C-429.30639008 362.20133896 -428.37658457 359.87759748 -427.12866211 357.14697266 C-425.43579519 353.04918348 -424.42462727 348.72186207 -423.29516602 344.44189453 C-423.03388916 343.46019287 -422.7726123 342.47849121 -422.50341797 341.46704102 C-421.9912364 339.53801023 -421.48114417 337.60842319 -420.97338867 335.67822266 C-420.42842972 333.63021277 -419.85637474 331.58942209 -419.27563477 329.55126953 C-417.37735652 322.7062465 -416.80684729 316.15390445 -416.50610352 309.08642578 C-416.29516602 306.12939453 -416.29516602 306.12939453 -415.29516602 305.12939453 C-415.08372309 302.31309229 -414.91888445 299.51221654 -414.79516602 296.69189453 C-414.42956619 288.39819489 -414.42956619 288.39819489 -413.29516602 286.12939453 C-413.25764378 284.32624289 -413.22288426 282.52295688 -413.20727539 280.71948242 C-413.07621045 273.11685372 -412.25294252 268.42600974 -406.88891602 262.63330078 C-406.36297852 262.13701172 -405.83704102 261.64072266 -405.29516602 261.12939453 C-404.96516602 260.79939453 -404.63516602 260.46939453 -404.29516602 260.12939453 C-404.33698694 256.47576634 -404.4215496 252.8316935 -404.59790039 249.18212891 C-404.73358637 243.08631081 -403.36656461 239.39723535 -400.29516602 234.12939453 C-399.63516602 234.12939453 -398.97516602 234.12939453 -398.29516602 234.12939453 C-398.29516602 232.80939453 -398.29516602 231.48939453 -398.29516602 230.12939453 C-397.63516602 230.12939453 -396.97516602 230.12939453 -396.29516602 230.12939453 C-396.29516602 229.46939453 -396.29516602 228.80939453 -396.29516602 228.12939453 C-395.63516602 228.12939453 -394.97516602 228.12939453 -394.29516602 228.12939453 C-394.15079102 227.51064453 -394.00641602 226.89189453 -393.85766602 226.25439453 C-393.29516602 224.12939453 -393.29516602 224.12939453 -392.29516602 222.12939453 C-391.63516602 222.12939453 -390.97516602 222.12939453 -390.29516602 222.12939453 C-390.29516602 221.46939453 -390.29516602 220.80939453 -390.29516602 220.12939453 C-389.63516602 220.12939453 -388.97516602 220.12939453 -388.29516602 220.12939453 C-388.29516602 219.46939453 -388.29516602 218.80939453 -388.29516602 218.12939453 C-387.63516602 218.12939453 -386.97516602 218.12939453 -386.29516602 218.12939453 C-386.29516602 217.46939453 -386.29516602 216.80939453 -386.29516602 216.12939453 C-385.63516602 216.12939453 -384.97516602 216.12939453 -384.29516602 216.12939453 C-384.6211377 215.60829102 -384.94710937 215.0871875 -385.28295898 214.55029297 C-386.60800751 211.38117064 -386.52057818 208.82638098 -386.49047852 205.39501953 C-386.48081055 203.45175781 -386.48081055 203.45175781 -386.47094727 201.46923828 C-386.45423795 200.10595434 -386.43730807 198.7426731 -386.42016602 197.37939453 C-386.41012941 196.00049468 -386.40100475 194.62158788 -386.39282227 193.24267578 C-386.36924695 189.87140571 -386.33633871 186.50048817 -386.29516602 183.12939453 C-385.63516602 183.12939453 -384.97516602 183.12939453 -384.29516602 183.12939453 C-384.37250977 182.30052734 -384.44985352 181.47166016 -384.52954102 180.61767578 C-384.22913049 176.14656582 -382.64469715 173.20908089 -380.54516602 169.31689453 C-379.80989638 167.89287694 -379.07551372 166.468401 -378.34204102 165.04345703 C-377.66061327 163.7383181 -376.97841036 162.43358338 -376.29516602 161.12939453 C-373.15158342 155.10131581 -371.12687086 150.03173602 -372.29516602 143.12939453 C-373.6840185 140.31158919 -373.6840185 140.31158919 -375.29516602 138.12939453 C-375.29516602 137.13939453 -375.29516602 136.14939453 -375.29516602 135.12939453 C-375.95516602 135.12939453 -376.61516602 135.12939453 -377.29516602 135.12939453 C-380.869452 127.16703423 -382.4930962 119.86723824 -381.29516602 111.12939453 C-380.252134 108.43895681 -379.34102634 107.23542722 -377.29516602 105.12939453 C-376.63516602 105.12939453 -375.97516602 105.12939453 -375.29516602 105.12939453 C-375.29516602 104.46939453 -375.29516602 103.80939453 -375.29516602 103.12939453 C-372.20706906 101.3647677 -371.06204466 101.12939453 -367.29516602 101.12939453 C-367.29516602 100.46939453 -367.29516602 99.80939453 -367.29516602 99.12939453 C-365.59360352 98.54158203 -365.59360352 98.54158203 -363.85766602 97.94189453 C-359.72599887 96.41273658 -356.04722748 94.38063141 -352.27563477 92.11767578 C-350.29516602 91.12939453 -350.29516602 91.12939453 -347.29516602 91.12939453 C-347.29516602 90.46939453 -347.29516602 89.80939453 -347.29516602 89.12939453 C-344.29516602 87.12939453 -344.29516602 87.12939453 -341.29516602 87.12939453 C-341.04766602 86.55318359 -340.80016602 85.97697266 -340.54516602 85.38330078 C-339.10822357 82.79231393 -337.43558269 81.10894647 -335.29516602 79.06689453 C-330.67020758 74.72235914 -330.67020758 74.72235914 -328.92016602 68.75439453 C-328.22465895 64.72045355 -327.16053577 62.99476429 -324.29516602 60.12939453 C-323.63516602 60.12939453 -322.97516602 60.12939453 -322.29516602 60.12939453 C-321.25029022 55.50208742 -320.77760322 50.84085575 -320.29516602 46.12939453 C-319.63516602 46.12939453 -318.97516602 46.12939453 -318.29516602 46.12939453 C-318.02704102 45.51064453 -317.75891602 44.89189453 -317.48266602 44.25439453 C-316.29516602 42.12939453 -316.29516602 42.12939453 -313.29516602 40.12939453 C-310.96601779 39.76797498 -308.63263124 39.43239928 -306.29516602 39.12939453 C-305.96516602 38.79939453 -305.63516602 38.46939453 -305.29516602 38.12939453 C-299.9630326 36.60592784 -294.55929889 35.8445725 -289.04516602 35.37548828 C-287.27002903 35.30484058 -287.27002903 35.30484058 -286.29516602 34.12939453 C-283.08529671 33.85940552 -279.88285742 33.68328016 -276.66625977 33.52392578 C-273.18572324 33.63233934 -273.18572324 33.63233934 -270.29516602 32.12939453 C-268.21533616 31.94004586 -266.13056294 31.80443247 -264.04516602 31.69189453 C-252.35368172 31.31604308 -252.35368172 31.31604308 -241.29516602 28.12939453 C-238.73638709 27.81819169 -236.1766499 27.61974787 -233.60766602 27.41064453 C-231.27248146 27.25803406 -231.27248146 27.25803406 -229.29516602 26.12939453 C-227.71538871 25.92166671 -226.1290899 25.76222021 -224.54125977 25.62939453 C-223.60475586 25.54689453 -222.66825195 25.46439453 -221.70336914 25.37939453 C-219.71902158 25.21240144 -217.73464642 25.04573605 -215.75024414 24.87939453 C-214.8150293 24.79689453 -213.87981445 24.71439453 -212.91625977 24.62939453 C-212.05444092 24.55720703 -211.19262207 24.48501953 -210.3046875 24.41064453 C-208.30087154 24.33585702 -208.30087154 24.33585702 -207.29516602 23.12939453 C-205.60907636 23.05733942 -203.92015942 23.04553386 -202.23266602 23.06689453 C-201.31356445 23.07591797 -200.39446289 23.08494141 -199.44750977 23.09423828 C-198.73723633 23.10583984 -198.02696289 23.11744141 -197.29516602 23.12939453 C-197.29516602 22.46939453 -197.29516602 21.80939453 -197.29516602 21.12939453 C-196.51270508 21.06880859 -195.73024414 21.00822266 -194.92407227 20.94580078 C-193.40620117 20.82011719 -193.40620117 20.82011719 -191.85766602 20.69189453 C-190.84833008 20.61068359 -189.83899414 20.52947266 -188.79907227 20.44580078 C-186.35875823 20.39727985 -186.35875823 20.39727985 -185.29516602 19.12939453 C-182.45544066 18.80588152 -179.61442865 18.61635163 -176.76391602 18.41064453 C-174.35380551 18.39554188 -174.35380551 18.39554188 -173.29516602 17.12939453 C-171.27552403 17.056954 -169.25349478 17.04562265 -167.23266602 17.06689453 C-166.12793945 17.07591797 -165.02321289 17.08494141 -163.88500977 17.09423828 C-163.03036133 17.10583984 -162.17571289 17.11744141 -161.29516602 17.12939453 C-161.29516602 16.46939453 -161.29516602 15.80939453 -161.29516602 15.12939453 C-157.00516602 15.12939453 -152.71516602 15.12939453 -148.29516602 15.12939453 C-148.29516602 14.46939453 -148.29516602 13.80939453 -148.29516602 13.12939453 C-143.34516602 13.12939453 -138.39516602 13.12939453 -133.29516602 13.12939453 C-133.29516602 12.46939453 -133.29516602 11.80939453 -133.29516602 11.12939453 C-132.29614258 11.06880859 -131.29711914 11.00822266 -130.26782227 10.94580078 C-128.9774707 10.86201172 -127.68711914 10.77822266 -126.35766602 10.69189453 C-125.06989258 10.61068359 -123.78211914 10.52947266 -122.45532227 10.44580078 C-119.43492645 10.48020265 -119.43492645 10.48020265 -118.29516602 9.12939453 C-115.08529671 8.85940552 -111.88285742 8.68328016 -108.66625977 8.52392578 C-105.18572324 8.63233934 -105.18572324 8.63233934 -102.29516602 7.12939453 C-100.87946478 7.04287842 -99.45957101 7.02234549 -98.04125977 7.03173828 C-96.76025391 7.03657227 -96.76025391 7.03657227 -95.45336914 7.04150391 C-94.55553711 7.04988281 -93.65770508 7.05826172 -92.73266602 7.06689453 C-91.8309668 7.07140625 -90.92926758 7.07591797 -90.00024414 7.08056641 C-87.76515288 7.09239229 -85.53019165 7.10887233 -83.29516602 7.12939453 C-83.29516602 6.46939453 -83.29516602 5.80939453 -83.29516602 5.12939453 C-82.63395752 5.10433838 -81.97274902 5.07928223 -81.29150391 5.0534668 C-78.31334297 4.93786351 -75.33552682 4.814977 -72.35766602 4.69189453 C-71.31674805 4.65257812 -70.27583008 4.61326172 -69.20336914 4.57275391 C-68.21401367 4.53085938 -67.2246582 4.48896484 -66.20532227 4.44580078 C-65.28887939 4.40914307 -64.37243652 4.37248535 -63.42822266 4.3347168 C-61.31309321 4.35935589 -61.31309321 4.35935589 -60.29516602 3.12939453 C-58.52783425 2.98386721 -56.75515608 2.90216984 -54.98266602 2.84814453 C-53.37004883 2.79207031 -53.37004883 2.79207031 -51.72485352 2.73486328 C-49.43839518 2.66455078 -47.15193685 2.59423828 -44.86547852 2.52392578 C-43.25286133 2.46785156 -43.25286133 2.46785156 -41.60766602 2.41064453 C-40.61379883 2.38035156 -39.61993164 2.35005859 -38.59594727 2.31884766 C-36.33232615 2.38211894 -36.33232615 2.38211894 -35.29516602 1.12939453 C-23.58092727 -0.12198653 -11.76474958 -0.01447928 0 0 Z " fill="#89B07C" transform="translate(532.295166015625,-0.12939453125)"/>
</svg>
