<?xml version="1.0" encoding="UTF-8"?>
<svg version="1.1" xmlns="http://www.w3.org/2000/svg" width="1529" height="1080" viewBox="0 0 1520 1080">
<path d="M0 0 C1.93905998 0.00306431 3.87812218 0.00493531 5.81718445 0.00567627 C9.85908582 0.01025315 13.90078505 0.02458139 17.94262695 0.046875 C23.11168688 0.07525007 28.28058898 0.08609943 33.44971943 0.0905571 C38.40399969 0.09571988 43.35824078 0.11024694 48.3125 0.125 C49.71886939 0.12782108 49.71886939 0.12782108 51.15365028 0.13069916 C53.81643564 0.13760478 56.47909964 0.1512549 59.1418457 0.16699219 C59.92069122 0.16811005 60.69953674 0.16922791 61.50198364 0.17037964 C67.90674131 0.22029199 73.88715313 0.6779237 79.82421875 3.265625 C83.77603964 4.92515099 87.69038868 6.17983887 91.82421875 7.328125 C96.69897941 8.98802393 101.21700972 11.02452048 105.82421875 13.328125 C107.81993198 14.00751674 109.82016648 14.67374059 111.82421875 15.328125 C113.49484375 16.070625 113.49484375 16.070625 115.19921875 16.828125 C117.94747354 17.96533388 120.34070105 18.76912255 123.19921875 19.453125 C126.82421875 20.328125 126.82421875 20.328125 127.82421875 21.328125 C130.37177979 21.61118734 132.91931897 21.77628286 135.4765625 21.94921875 C137.82421875 22.328125 137.82421875 22.328125 139.82421875 24.328125 C142.1717319 24.557363 144.52932527 24.68775314 146.88671875 24.765625 C160.90613531 25.41004156 160.90613531 25.41004156 164.82421875 29.328125 C166.66459009 29.47385236 168.51012589 29.55540418 170.35546875 29.609375 C172.03576172 29.66544922 172.03576172 29.66544922 173.75 29.72265625 C174.92949219 29.75746094 176.10898437 29.79226562 177.32421875 29.828125 C179.64726841 29.89667401 181.97020097 29.96936031 184.29296875 30.046875 C185.84661133 30.09231445 185.84661133 30.09231445 187.43164062 30.13867188 C189.82421875 30.328125 189.82421875 30.328125 190.82421875 31.328125 C192.81760096 31.69898681 194.81934207 32.02550211 196.82421875 32.328125 C202.71310764 33.21701389 202.71310764 33.21701389 203.82421875 34.328125 C205.71449593 34.4619083 207.60937895 34.53164993 209.50390625 34.57421875 C210.66019531 34.60708984 211.81648437 34.63996094 213.0078125 34.67382812 C215.46084805 34.73482954 217.91397814 34.79214531 220.3671875 34.84570312 C222.10548828 34.89694336 222.10548828 34.89694336 223.87890625 34.94921875 C225.47968018 34.98680298 225.47968018 34.98680298 227.11279297 35.02514648 C229.82421875 35.328125 229.82421875 35.328125 232.82421875 37.328125 C234.6535644 37.47492434 236.48922118 37.54915135 238.32421875 37.578125 C249.10279129 38.34431269 258.18494047 44.97055546 265.82421875 52.328125 C265.82421875 52.988125 265.82421875 53.648125 265.82421875 54.328125 C266.38109375 54.575625 266.93796875 54.823125 267.51171875 55.078125 C270.24832788 56.55737318 272.50072744 58.26279939 274.82421875 60.328125 C274.82421875 60.988125 274.82421875 61.648125 274.82421875 62.328125 C275.38109375 62.43125 275.93796875 62.534375 276.51171875 62.640625 C278.82421875 63.328125 278.82421875 63.328125 281.046875 64.73828125 C284.16194529 66.52145088 287.12847359 67.46305795 290.57421875 68.453125 C296.72958153 70.23348778 296.72958153 70.23348778 297.82421875 71.328125 C300.37177979 71.61118734 302.91931897 71.77628286 305.4765625 71.94921875 C307.82421875 72.328125 307.82421875 72.328125 309.82421875 74.328125 C312.08357753 74.93651233 312.08357753 74.93651233 314.63671875 75.328125 C318.26973051 75.99955554 321.45238485 76.77890402 324.82421875 78.328125 C326.09411552 78.87198374 327.36500331 79.41353259 328.63671875 79.953125 C330.21453125 80.63375 330.21453125 80.63375 331.82421875 81.328125 C331.82421875 81.988125 331.82421875 82.648125 331.82421875 83.328125 C332.56115967 83.44784668 333.29810059 83.56756836 334.05737305 83.69091797 C341.5797318 85.42332389 348.28455052 90.81747604 354.51171875 95.203125 C355.59163086 95.93982422 355.59163086 95.93982422 356.69335938 96.69140625 C360.9144707 99.6542647 364.31329961 102.71650491 367.53540039 106.74975586 C368.9866571 108.58714662 368.9866571 108.58714662 371.57421875 111.015625 C373.59366314 113.09116507 374.74316878 114.67463871 375.82421875 117.328125 C376.48421875 117.328125 377.14421875 117.328125 377.82421875 117.328125 C378.80078125 119.11848958 379.77734375 120.90885417 380.75390625 122.69921875 C381.73831899 124.49430815 381.73831899 124.49430815 383.82421875 125.328125 C383.82421875 126.318125 383.82421875 127.308125 383.82421875 128.328125 C384.48421875 128.328125 385.14421875 128.328125 385.82421875 128.328125 C386.40171875 129.359375 386.97921875 130.390625 387.57421875 131.453125 C389.51226547 134.84984293 391.63835431 138.08458421 393.82421875 141.328125 C396.82421875 145.93526786 396.82421875 145.93526786 396.82421875 149.328125 C397.48421875 149.328125 398.14421875 149.328125 398.82421875 149.328125 C400.01964353 151.00937512 401.13134718 152.75060583 402.19921875 154.515625 C404.02370722 157.51759171 405.7698139 160.26427089 408.05078125 162.94140625 C409.82421875 165.328125 409.82421875 165.328125 409.82421875 169.328125 C410.81421875 169.658125 411.80421875 169.988125 412.82421875 170.328125 C413.95703125 172.796875 413.95703125 172.796875 414.94921875 175.828125 C415.90191913 179.35718207 415.90191913 179.35718207 417.82421875 182.328125 C418.04955185 184.3561229 418.2718906 186.38487374 418.4453125 188.41796875 C418.68644102 190.5610198 418.68644102 190.5610198 420.82421875 192.328125 C421.32304482 193.99087858 421.81485947 195.65640934 422.25390625 197.3359375 C422.84407983 199.39750275 423.58925742 201.33834285 424.38671875 203.328125 C425.79644876 206.95817978 426.29457694 210.46930611 426.82421875 214.328125 C427.48421875 215.318125 428.14421875 216.308125 428.82421875 217.328125 C429.10074348 220.2045523 429.2886593 223.00863386 429.38671875 225.890625 C429.36307481 231.27386648 429.36307481 231.27386648 430.82421875 236.328125 C430.92301995 238.94262854 430.96406816 241.52990086 430.95703125 244.14453125 C430.95798798 244.91619125 430.9589447 245.68785126 430.95993042 246.4828949 C430.96061121 248.11449261 430.95876395 249.74609303 430.95458984 251.37768555 C430.94923288 253.88401321 430.95454194 256.39016225 430.9609375 258.89648438 C430.96027684 260.47916706 430.95899594 262.06184964 430.95703125 263.64453125 C430.9600676 264.77575157 430.9600676 264.77575157 430.96316528 265.92982483 C430.93917499 271.21316876 430.93917499 271.21316876 429.82421875 272.328125 C429.54132694 274.58227878 429.37650685 276.83653156 429.203125 279.1015625 C428.82421875 281.328125 428.82421875 281.328125 426.82421875 284.328125 C426.51863213 286.2735033 426.51863213 286.2735033 426.55859375 288.3828125 C426.55601563 289.16269531 426.5534375 289.94257813 426.55078125 290.74609375 C426.55851562 291.55691406 426.56625 292.36773437 426.57421875 293.203125 C426.56648438 294.00621094 426.55875 294.80929687 426.55078125 295.63671875 C426.56477848 299.88487777 426.59091555 303.57380135 428.82421875 307.328125 C431.8403617 308.15044025 431.8403617 308.15044025 434.82421875 308.328125 C435.15421875 308.658125 435.48421875 308.988125 435.82421875 309.328125 C437.48626362 309.53588061 439.15451366 309.69530755 440.82421875 309.828125 C445.71310764 310.21701389 445.71310764 310.21701389 446.82421875 311.328125 C449.82781415 311.61439809 452.83161982 311.77678255 455.84375 311.94921875 C458.72323107 312.31528646 460.30274101 313.00512742 462.82421875 314.328125 C465.12084445 314.67839027 467.3861708 314.82808804 469.703125 314.984375 C471.82421875 315.328125 471.82421875 315.328125 474.82421875 317.328125 C477.15093729 318.01752309 479.48489469 318.68279422 481.82421875 319.328125 C483.50498106 319.95841087 485.17217419 320.62600606 486.82421875 321.328125 C487.87609375 321.740625 488.92796875 322.153125 490.01171875 322.578125 C498.20334251 326.13197479 506.30235124 331.21584337 512.82421875 337.328125 C512.82421875 337.988125 512.82421875 338.648125 512.82421875 339.328125 C513.81421875 339.328125 514.80421875 339.328125 515.82421875 339.328125 C515.82421875 339.988125 515.82421875 340.648125 515.82421875 341.328125 C516.81421875 341.658125 517.80421875 341.988125 518.82421875 342.328125 C518.82421875 342.988125 518.82421875 343.648125 518.82421875 344.328125 C521.15636023 345.53440508 523.32064014 346.4935988 525.82421875 347.328125 C526.15421875 348.978125 526.48421875 350.628125 526.82421875 352.328125 C527.48421875 352.328125 528.14421875 352.328125 528.82421875 352.328125 C530.44921875 353.703125 530.44921875 353.703125 531.82421875 355.328125 C531.82421875 355.988125 531.82421875 356.648125 531.82421875 357.328125 C532.48421875 357.328125 533.14421875 357.328125 533.82421875 357.328125 C533.82421875 358.318125 533.82421875 359.308125 533.82421875 360.328125 C534.81421875 360.328125 535.80421875 360.328125 536.82421875 360.328125 C536.82421875 361.318125 536.82421875 362.308125 536.82421875 363.328125 C538.47421875 363.988125 540.12421875 364.648125 541.82421875 365.328125 C541.82421875 366.318125 541.82421875 367.308125 541.82421875 368.328125 C542.81421875 368.328125 543.80421875 368.328125 544.82421875 368.328125 C544.82421875 369.318125 544.82421875 370.308125 544.82421875 371.328125 C545.48421875 371.555 546.14421875 371.781875 546.82421875 372.015625 C549.31233294 373.10417496 551.31517831 374.23474872 553.57421875 375.703125 C557.79105275 378.41509648 562.20059259 380.41231694 566.82421875 382.328125 C566.82421875 382.988125 566.82421875 383.648125 566.82421875 384.328125 C567.50484375 384.410625 568.18546875 384.493125 568.88671875 384.578125 C572.69890945 385.55145028 575.46492204 387.28619955 578.82421875 389.328125 C578.82421875 390.318125 578.82421875 391.308125 578.82421875 392.328125 C579.64599609 392.67037109 579.64599609 392.67037109 580.484375 393.01953125 C583.51088756 394.71215514 585.74249684 396.88616574 588.26171875 399.265625 C591.64328753 402.45906756 594.82770271 404.9764773 598.82421875 407.328125 C600.33323391 408.60619523 601.81269605 409.91991943 603.26171875 411.265625 C605.87111064 413.64374972 608.39589989 415.82500415 611.38671875 417.703125 C612.19109375 418.239375 612.99546875 418.775625 613.82421875 419.328125 C613.82421875 419.988125 613.82421875 420.648125 613.82421875 421.328125 C614.62859375 421.3075 615.43296875 421.286875 616.26171875 421.265625 C618.82421875 421.328125 618.82421875 421.328125 619.82421875 422.328125 C621.54780932 422.65111471 623.27851751 422.93647866 625.01171875 423.203125 C629.63895846 424.00341483 634.36558277 424.86948902 637.82421875 428.328125 C639.52969234 428.4874599 641.23911568 428.60527169 642.94921875 428.703125 C649.15866453 429.21723177 653.23083939 430.9186797 658.69921875 433.890625 C662.10732063 435.45835187 665.30106448 436.19807544 668.96875 436.8984375 C670.82421875 437.328125 670.82421875 437.328125 671.82421875 438.328125 C673.45678633 438.48527154 675.09557213 438.57897914 676.734375 438.64453125 C677.72373047 438.68642578 678.71308594 438.72832031 679.73242188 438.77148438 C680.77333984 438.81080078 681.81425781 438.85011719 682.88671875 438.890625 C683.93150391 438.93380859 684.97628906 438.97699219 686.05273438 439.02148438 C688.64308759 439.12793725 691.23354061 439.2299526 693.82421875 439.328125 C694.15421875 440.318125 694.48421875 441.308125 694.82421875 442.328125 C708.68421875 442.328125 722.54421875 442.328125 736.82421875 442.328125 C736.82421875 442.988125 736.82421875 443.648125 736.82421875 444.328125 C737.91734375 444.245625 739.01046875 444.163125 740.13671875 444.078125 C745.78596367 444.03755592 750.67065279 446.20606843 755.82421875 448.328125 C755.82421875 448.988125 755.82421875 449.648125 755.82421875 450.328125 C756.52546875 450.245625 757.22671875 450.163125 757.94921875 450.078125 C761.77612006 450.41089903 763.71941445 452.12888862 766.82421875 454.328125 C767.57058594 454.61945313 768.31695313 454.91078125 769.0859375 455.2109375 C772.47683631 456.59438552 775.52753327 458.41478009 778.63671875 460.328125 C779.23419922 460.68390625 779.83167969 461.0396875 780.44726562 461.40625 C781.94312289 462.32256942 783.38899737 463.31947747 784.82421875 464.328125 C784.82421875 464.988125 784.82421875 465.648125 784.82421875 466.328125 C785.41332031 466.44285156 786.00242187 466.55757813 786.609375 466.67578125 C788.97337483 467.37205633 790.30325087 468.29568363 792.26171875 469.765625 C797.67328963 473.29535262 803.54027928 473.58789141 809.82421875 474.328125 C810.74074219 474.52535156 811.65726563 474.72257812 812.6015625 474.92578125 C815.45036558 475.44146968 816.32597485 474.72420248 818.82421875 473.328125 C819.91734375 473.01875 821.01046875 472.709375 822.13671875 472.390625 C825.85491932 471.426016 825.85491932 471.426016 829.26171875 469.703125 C833.38509598 468.11164607 836.53653756 467.21569338 840.82421875 468.328125 C845.17295137 470.36915752 848.6322301 472.72107182 851.82421875 476.328125 C853.1811532 481.18949968 852.922374 485.70095329 852.57421875 490.703125 C852.53296875 491.98574219 852.49171875 493.26835937 852.44921875 494.58984375 C852.09998661 503.77658929 852.09998661 503.77658929 850.82421875 506.328125 C850.16421875 506.328125 849.50421875 506.328125 848.82421875 506.328125 C848.70046875 506.905625 848.57671875 507.483125 848.44921875 508.078125 C847.81773051 510.35148267 846.93563684 512.2534779 845.82421875 514.328125 C844.83421875 514.328125 843.84421875 514.328125 842.82421875 514.328125 C842.82421875 515.978125 842.82421875 517.628125 842.82421875 519.328125 C842.16421875 519.328125 841.50421875 519.328125 840.82421875 519.328125 C840.82421875 520.978125 840.82421875 522.628125 840.82421875 524.328125 C839.83421875 524.658125 838.84421875 524.988125 837.82421875 525.328125 C837.82421875 527.308125 837.82421875 529.288125 837.82421875 531.328125 C836.83421875 531.658125 835.84421875 531.988125 834.82421875 532.328125 C834.82421875 534.308125 834.82421875 536.288125 834.82421875 538.328125 C834.16421875 538.328125 833.50421875 538.328125 832.82421875 538.328125 C832.49421875 540.638125 832.16421875 542.948125 831.82421875 545.328125 C831.16421875 545.328125 830.50421875 545.328125 829.82421875 545.328125 C829.94796875 546.2871875 829.94796875 546.2871875 830.07421875 547.265625 C829.76666611 551.0331448 828.44539749 553.71540923 826.84375 557.10546875 C825.61655095 559.78085672 824.73314745 562.53142132 823.82421875 565.328125 C823.49421875 565.658125 823.16421875 565.988125 822.82421875 566.328125 C822.61489978 568.49108773 822.45624806 570.6590721 822.32421875 572.828125 C821.93532986 579.21701389 821.93532986 579.21701389 820.82421875 580.328125 C820.54034096 582.54958133 820.37656702 584.77130148 820.203125 587.00390625 C819.80180446 589.46561472 818.9587187 591.1258604 817.82421875 593.328125 C817.57671875 595.1225 817.57671875 595.1225 817.32421875 596.953125 C816.82421875 600.328125 816.82421875 600.328125 814.82421875 602.328125 C814.3997943 604.72805856 814.3997943 604.72805856 814.26171875 607.390625 C813.92144097 612.23090278 813.92144097 612.23090278 812.82421875 613.328125 C812.54132694 615.58227878 812.37650685 617.83653156 812.203125 620.1015625 C811.82421875 622.328125 811.82421875 622.328125 809.82421875 625.328125 C809.16263832 627.37396579 809.16263832 627.37396579 808.69921875 629.515625 C808.41046875 630.77375 808.12171875 632.031875 807.82421875 633.328125 C807.16421875 633.328125 806.50421875 633.328125 805.82421875 633.328125 C805.88609375 634.194375 805.94796875 635.060625 806.01171875 635.953125 C805.79615541 639.83326519 804.6614883 641.93624276 802.82421875 645.328125 C802.12449902 647.31680213 801.44757478 649.31420551 800.82421875 651.328125 C800.16421875 651.328125 799.50421875 651.328125 798.82421875 651.328125 C798.72109375 652.194375 798.61796875 653.060625 798.51171875 653.953125 C797.77863999 657.55187527 796.51559655 660.07763354 794.82421875 663.328125 C793.80236046 665.34844025 792.78152369 667.3692725 791.76171875 669.390625 C791.00181641 670.89302734 791.00181641 670.89302734 790.2265625 672.42578125 C788.96813768 675.03026493 787.85876378 677.62853967 786.82421875 680.328125 C786.56640625 680.99714844 786.30859375 681.66617188 786.04296875 682.35546875 C784.0828523 687.56469126 782.23783025 692.75123117 780.82421875 698.140625 C780.49421875 699.1925 780.16421875 700.244375 779.82421875 701.328125 C779.16421875 701.658125 778.50421875 701.988125 777.82421875 702.328125 C777.0978092 704.64355543 776.43990417 706.98082435 775.82421875 709.328125 C775.16849084 711.33173807 774.50546581 713.33304433 773.82421875 715.328125 C773.16421875 715.328125 772.50421875 715.328125 771.82421875 715.328125 C771.88609375 716.75125 771.88609375 716.75125 771.94921875 718.203125 C771.82421875 721.328125 771.82421875 721.328125 769.82421875 723.328125 C769.11055965 725.64751707 768.44948955 727.98335949 767.82421875 730.328125 C767.16849084 732.33173807 766.50546581 734.33304433 765.82421875 736.328125 C765.16421875 736.328125 764.50421875 736.328125 763.82421875 736.328125 C763.82421875 737.978125 763.82421875 739.628125 763.82421875 741.328125 C763.16421875 741.328125 762.50421875 741.328125 761.82421875 741.328125 C761.72109375 742.33875 761.61796875 743.349375 761.51171875 744.390625 C760.80280022 748.45079478 759.49866973 751.57735481 757.82421875 755.328125 C757.07991659 757.64726162 756.44912934 759.97269277 755.82421875 762.328125 C755.16421875 762.328125 754.50421875 762.328125 753.82421875 762.328125 C753.49421875 764.968125 753.16421875 767.608125 752.82421875 770.328125 C752.16421875 770.328125 751.50421875 770.328125 750.82421875 770.328125 C750.88609375 771.75125 750.88609375 771.75125 750.94921875 773.203125 C750.82421875 776.328125 750.82421875 776.328125 748.82421875 778.328125 C748.12681773 779.84716042 747.4878765 781.39349486 746.88671875 782.953125 C746.54253906 783.84 746.19835938 784.726875 745.84375 785.640625 C745.33908203 786.9709375 745.33908203 786.9709375 744.82421875 788.328125 C744.51871094 789.1325 744.21320313 789.936875 743.8984375 790.765625 C743.20070716 792.61742116 742.51151311 794.47243023 741.82421875 796.328125 C741.16421875 796.328125 740.50421875 796.328125 739.82421875 796.328125 C739.82421875 798.308125 739.82421875 800.288125 739.82421875 802.328125 C739.16421875 802.328125 738.50421875 802.328125 737.82421875 802.328125 C737.86546875 803.111875 737.90671875 803.895625 737.94921875 804.703125 C737.82421875 807.328125 737.82421875 807.328125 735.82421875 809.328125 C735.36415529 811.53063492 735.36415529 811.53063492 735.19921875 813.953125 C735.08707031 815.17902344 735.08707031 815.17902344 734.97265625 816.4296875 C734.92367188 817.05617188 734.8746875 817.68265625 734.82421875 818.328125 C734.16421875 818.328125 733.50421875 818.328125 732.82421875 818.328125 C732.80359375 819.276875 732.78296875 820.225625 732.76171875 821.203125 C732.00404922 826.72167322 728.41920105 831.23078709 724.82421875 835.328125 C723.83421875 835.658125 722.84421875 835.988125 721.82421875 836.328125 C721.82421875 837.318125 721.82421875 838.308125 721.82421875 839.328125 C718.49088542 842.328125 718.49088542 842.328125 715.82421875 842.328125 C715.82421875 842.988125 715.82421875 843.648125 715.82421875 844.328125 C712.86940383 847.07188171 712.04949967 847.328125 707.82421875 847.328125 C707.82421875 847.988125 707.82421875 848.648125 707.82421875 849.328125 C704.22895066 850.942327 700.75321872 852.41352252 696.94921875 853.453125 C693.97969512 854.00922822 693.97969512 854.00922822 692.82421875 855.328125 C689.62525485 855.61644363 686.42591061 855.77694841 683.21875 855.94921875 C679.86960425 856.18603045 679.86960425 856.18603045 677.0546875 857.34765625 C672.46317929 858.74120953 668.09425504 858.61804162 663.32421875 858.578125 C662.39996094 858.58585938 661.47570313 858.59359375 660.5234375 858.6015625 C659.62238281 858.59898437 658.72132812 858.59640625 657.79296875 858.59375 C656.98279297 858.59149414 656.17261719 858.58923828 655.33789062 858.58691406 C652.82421875 858.328125 652.82421875 858.328125 650.18188477 857.328125 C645.47655462 855.92675568 641.01656013 856.04235391 636.1328125 856.0625 C635.10994644 856.06058655 634.08708038 856.0586731 633.03321838 856.05670166 C630.87736769 856.05534439 628.72150869 856.05900876 626.56567383 856.06738281 C623.26950722 856.07809968 619.97388424 856.06746613 616.67773438 856.0546875 C614.57942588 856.05600896 612.48111773 856.05857107 610.3828125 856.0625 C608.90765419 856.05642731 608.90765419 856.05642731 607.4026947 856.05023193 C602.72776885 856.08222415 599.09163691 856.21363852 594.82421875 858.328125 C592.74813497 858.58368354 590.66247735 858.76975289 588.57421875 858.890625 C584.88318756 858.80058508 584.88318756 858.80058508 581.82421875 860.328125 C579.53737537 860.6100646 577.25058602 860.77589505 574.953125 860.94921875 C572.61494472 861.15589136 572.61494472 861.15589136 570.82421875 863.328125 C567.02375136 864.84831196 563.91475817 865.56874497 559.82421875 865.328125 C559.49421875 866.318125 559.16421875 867.308125 558.82421875 868.328125 C557.18387682 869.05716586 555.51119957 869.71467743 553.82421875 870.328125 C552.58671875 871.070625 552.58671875 871.070625 551.32421875 871.828125 C548.86842449 873.30160156 546.48711325 874.28894666 543.82421875 875.328125 C540.83033497 876.76269431 537.99276429 878.2197743 535.19921875 880.015625 C532.82421875 881.328125 532.82421875 881.328125 528.82421875 881.328125 C528.49421875 882.318125 528.16421875 883.308125 527.82421875 884.328125 C525.86328125 885.71484375 525.86328125 885.71484375 523.44921875 887.015625 C522.26199219 887.67111328 522.26199219 887.67111328 521.05078125 888.33984375 C518.82421875 889.328125 518.82421875 889.328125 515.82421875 889.328125 C515.49421875 890.318125 515.16421875 891.308125 514.82421875 892.328125 C514.16421875 892.328125 513.50421875 892.328125 512.82421875 892.328125 C512.82421875 892.988125 512.82421875 893.648125 512.82421875 894.328125 C511.83421875 894.328125 510.84421875 894.328125 509.82421875 894.328125 C509.49421875 895.318125 509.16421875 896.308125 508.82421875 897.328125 C505.37977431 900.328125 505.37977431 900.328125 502.82421875 900.328125 C502.82421875 900.988125 502.82421875 901.648125 502.82421875 902.328125 C501.83421875 902.328125 500.84421875 902.328125 499.82421875 902.328125 C499.49421875 903.318125 499.16421875 904.308125 498.82421875 905.328125 C497.30078125 906.71484375 497.30078125 906.71484375 495.44921875 908.015625 C494.84335938 908.45261719 494.2375 908.88960937 493.61328125 909.33984375 C491.82421875 910.328125 491.82421875 910.328125 488.82421875 910.328125 C488.49421875 911.318125 488.16421875 912.308125 487.82421875 913.328125 C485.93359375 914.64453125 485.93359375 914.64453125 483.57421875 915.890625 C482.7646875 916.31988281 481.95515625 916.74914062 481.12109375 917.19140625 C478.73313099 918.37320415 476.31864721 919.39271433 473.82421875 920.328125 C473.49421875 920.658125 473.16421875 920.988125 472.82421875 921.328125 C471.1580476 921.36876332 469.4903378 921.370846 467.82421875 921.328125 C467.82421875 921.988125 467.82421875 922.648125 467.82421875 923.328125 C460.75158082 925.82485717 454.36393747 926.77870654 446.88671875 926.890625 C445.04409149 926.92505471 443.20159368 926.9676565 441.359375 927.01953125 C440.55894775 927.03185791 439.75852051 927.04418457 438.93383789 927.05688477 C436.52315947 927.20811719 436.52315947 927.20811719 433.82421875 929.328125 C431.78710937 929.58691406 431.78710937 929.58691406 429.48046875 929.59375 C428.64644531 929.59632813 427.81242187 929.59890625 426.953125 929.6015625 C426.08558594 929.59382812 425.21804688 929.58609375 424.32421875 929.578125 C423.45667969 929.58585938 422.58914063 929.59359375 421.6953125 929.6015625 C420.86128906 929.59898437 420.02726562 929.59640625 419.16796875 929.59375 C418.40677734 929.59149414 417.64558594 929.58923828 416.86132812 929.58691406 C414.82421875 929.328125 414.82421875 929.328125 411.82421875 927.328125 C409.24375268 926.97684926 409.24375268 926.97684926 406.3515625 926.94921875 C404.75538086 926.89797852 404.75538086 926.89797852 403.12695312 926.84570312 C402.01642578 926.81927734 400.90589844 926.79285156 399.76171875 926.765625 C397.56238714 926.70583981 395.36315505 926.64223192 393.1640625 926.57421875 C392.18816162 926.55029053 391.21226074 926.5263623 390.20678711 926.50170898 C387.82421875 926.328125 387.82421875 926.328125 385.82421875 925.328125 C383.06903758 925.05260688 380.31404204 924.88206259 377.55078125 924.70703125 C374.8256857 924.32832886 373.22298668 923.60457781 370.82421875 922.328125 C369.25262997 921.90660615 367.66792793 921.5312416 366.07421875 921.203125 C364.87539062 920.95175781 364.87539062 920.95175781 363.65234375 920.6953125 C363.0490625 920.57414063 362.44578125 920.45296875 361.82421875 920.328125 C361.82421875 919.668125 361.82421875 919.008125 361.82421875 918.328125 C359.84421875 918.328125 357.86421875 918.328125 355.82421875 918.328125 C355.82421875 917.668125 355.82421875 917.008125 355.82421875 916.328125 C354.55578125 916.1734375 354.55578125 916.1734375 353.26171875 916.015625 C350.24045561 915.41137237 347.73859769 914.55035953 344.9453125 913.28125 C342.24263347 912.06678649 339.50282669 910.95302962 336.76171875 909.828125 C332.69147801 908.13772389 328.72114603 906.38483662 324.82421875 904.328125 C324.82421875 903.668125 324.82421875 903.008125 324.82421875 902.328125 C323.83421875 902.328125 322.84421875 902.328125 321.82421875 902.328125 C321.82421875 901.668125 321.82421875 901.008125 321.82421875 900.328125 C321.26734375 900.225 320.71046875 900.121875 320.13671875 900.015625 C317.34730865 899.18634092 315.21031235 897.98513444 312.82421875 896.328125 C312.82421875 895.668125 312.82421875 895.008125 312.82421875 894.328125 C312.22609375 894.204375 311.62796875 894.080625 311.01171875 893.953125 C308.82421875 893.328125 308.82421875 893.328125 305.82421875 891.328125 C305.82421875 890.668125 305.82421875 890.008125 305.82421875 889.328125 C305.10234375 889.10125 304.38046875 888.874375 303.63671875 888.640625 C300.22243068 887.04729057 298.42950661 885.05458904 295.82421875 882.328125 C293.70016028 880.48938782 291.55631616 878.67780324 289.3984375 876.87890625 C288.87894531 876.36714844 288.35945312 875.85539063 287.82421875 875.328125 C287.82421875 874.668125 287.82421875 874.008125 287.82421875 873.328125 C287.24285156 873.22886719 286.66148437 873.12960937 286.0625 873.02734375 C283.39398235 872.19372305 282.06017611 871.03054595 280.01171875 869.140625 C276.77342127 866.18788095 273.47153713 863.35774824 270.07421875 860.58984375 C268.82421875 859.328125 268.82421875 859.328125 268.82421875 857.328125 C268.24671875 857.204375 267.66921875 857.080625 267.07421875 856.953125 C264.80086108 856.32163676 262.89886585 855.43954309 260.82421875 854.328125 C260.82421875 853.668125 260.82421875 853.008125 260.82421875 852.328125 C260.24671875 852.225 259.66921875 852.121875 259.07421875 852.015625 C256.48130407 851.22334552 254.97626101 849.95846005 252.82421875 848.328125 C251.17624639 847.61650057 249.51256467 846.93780547 247.82421875 846.328125 C247.82421875 845.668125 247.82421875 845.008125 247.82421875 844.328125 C243.86421875 844.328125 239.90421875 844.328125 235.82421875 844.328125 C235.49421875 845.318125 235.16421875 846.308125 234.82421875 847.328125 C232.51421875 847.328125 230.20421875 847.328125 227.82421875 847.328125 C227.82421875 847.988125 227.82421875 848.648125 227.82421875 849.328125 C227.09976563 849.64265625 226.3753125 849.9571875 225.62890625 850.28125 C220.34507955 852.62022395 215.53684673 854.99480277 210.82421875 858.328125 C210.06109375 858.67875 209.29796875 859.029375 208.51171875 859.390625 C206.46524004 860.27885341 206.46524004 860.27885341 205.82421875 863.328125 C205.16421875 863.328125 204.50421875 863.328125 203.82421875 863.328125 C203.82421875 863.988125 203.82421875 864.648125 203.82421875 865.328125 C203.16421875 865.328125 202.50421875 865.328125 201.82421875 865.328125 C201.53546875 865.905625 201.24671875 866.483125 200.94921875 867.078125 C199.90755208 869.16145833 198.86588542 871.24479167 197.82421875 873.328125 C197.16421875 873.328125 196.50421875 873.328125 195.82421875 873.328125 C195.70199951 874.05555908 195.57978027 874.78299316 195.45385742 875.5324707 C194.83238287 878.29187555 193.96156656 880.50991105 192.75 883.05859375 C192.33242432 883.93966797 191.91484863 884.82074219 191.48461914 885.72851562 C191.03981201 886.64826172 190.59500488 887.56800781 190.13671875 888.515625 C189.68482178 889.45728516 189.2329248 890.39894531 188.76733398 891.36914062 C185.76155547 897.56671078 182.56873285 903.54220914 178.82421875 909.328125 C176.95038314 912.34708238 175.47488501 914.8145272 174.82421875 918.328125 C174.16421875 918.328125 173.50421875 918.328125 172.82421875 918.328125 C172.66953125 920.0915625 172.66953125 920.0915625 172.51171875 921.890625 C171.99298917 926.09233459 170.60656767 929.47825133 168.82421875 933.328125 C168.13585362 935.32076091 167.46140476 937.31853837 166.82421875 939.328125 C166.16421875 939.328125 165.50421875 939.328125 164.82421875 939.328125 C164.72109375 940.194375 164.61796875 941.060625 164.51171875 941.953125 C163.79023461 945.49495623 162.55298614 948.17124542 160.82421875 951.328125 C160.16421875 951.328125 159.50421875 951.328125 158.82421875 951.328125 C158.94796875 952.318125 158.94796875 952.318125 159.07421875 953.328125 C158.77379268 956.93323788 157.50658313 959.15270751 155.83203125 962.30859375 C154.38067899 965.21692367 153.64843748 968.18579108 152.82421875 971.328125 C152.16972344 973.6024962 151.50199006 975.87308128 150.82421875 978.140625 C150.49421875 979.26082031 150.16421875 980.38101563 149.82421875 981.53515625 C148.82421875 984.328125 148.82421875 984.328125 146.82421875 986.328125 C146.30746644 987.83011386 145.85759205 989.35562183 145.44921875 990.890625 C144.01632654 995.93881446 142.07601111 1000.59593192 139.82421875 1005.328125 C139.16421875 1005.328125 138.50421875 1005.328125 137.82421875 1005.328125 C137.90671875 1006.1325 137.98921875 1006.936875 138.07421875 1007.765625 C137.79236471 1011.78204503 136.64278784 1014.41016153 134.89453125 1017.984375 C133.75377498 1020.3574465 133.75377498 1020.3574465 132.94921875 1023.0859375 C131.53801021 1027.15296212 129.65754992 1030.87642134 127.69921875 1034.703125 C127.32667969 1035.43917969 126.95414063 1036.17523437 126.5703125 1036.93359375 C125.65860655 1038.73362858 124.74191943 1040.53113902 123.82421875 1042.328125 C123.16421875 1042.328125 122.50421875 1042.328125 121.82421875 1042.328125 C121.72882812 1043.01003906 121.6334375 1043.69195313 121.53515625 1044.39453125 C120.66953974 1047.9663884 119.13575923 1051.02844297 117.44921875 1054.265625 C117.145 1054.86052734 116.84078125 1055.45542969 116.52734375 1056.06835938 C115.62970458 1057.82335904 114.72700746 1059.57576874 113.82421875 1061.328125 C112.82149736 1063.32676199 111.82054959 1065.32629462 110.82421875 1067.328125 C110.16421875 1067.328125 109.50421875 1067.328125 108.82421875 1067.328125 C108.76234375 1068.00875 108.70046875 1068.689375 108.63671875 1069.390625 C107.54897266 1073.32324549 105.47848939 1076.25214781 102.82421875 1079.328125 C100.55240476 1080.46403199 99.25363585 1080.47174213 96.72924805 1080.50512695 C95.88464523 1080.51796219 95.04004242 1080.53079742 94.16984558 1080.54402161 C92.79799858 1080.55510201 92.79799858 1080.55510201 91.3984375 1080.56640625 C90.45869583 1080.574478 89.51895416 1080.58254974 88.55073547 1080.59086609 C86.55931445 1080.60471053 84.56786965 1080.61543107 82.57641602 1080.62329102 C79.53420907 1080.64049779 76.4930905 1080.68437982 73.45117188 1080.72851562 C71.51693508 1080.73864304 69.58268904 1080.74715899 67.6484375 1080.75390625 C66.28569954 1080.78016838 66.28569954 1080.78016838 64.89543152 1080.80696106 C60.67032784 1080.79248803 58.43756298 1080.71541456 54.79101562 1078.4128418 C52.08143299 1075.54080529 50.6424511 1072.83919436 48.82421875 1069.328125 C48.46231445 1068.75521729 48.10041016 1068.18230957 47.72753906 1067.59204102 C46.41698104 1064.30749926 46.53883574 1061.08835874 46.55859375 1057.60546875 C46.55572357 1056.49263268 46.55572357 1056.49263268 46.55279541 1055.35731506 C46.55143756 1053.79313822 46.55510607 1052.22894996 46.56347656 1050.66479492 C46.57419731 1048.27041368 46.56356034 1045.8767801 46.55078125 1043.48242188 C46.55210262 1041.96093585 46.55466454 1040.43945028 46.55859375 1038.91796875 C46.55454529 1038.20229233 46.55049683 1037.48661591 46.54632568 1036.74925232 C46.58120077 1033.05630936 46.71965909 1031.48496449 48.82421875 1028.328125 C49.14277539 1024.67558357 49.2878023 1021.06269329 49.390625 1017.40039062 C49.62366984 1011.52867391 49.62366984 1011.52867391 51.82421875 1009.328125 C52.24975036 1006.69835976 52.24975036 1006.69835976 52.38671875 1003.765625 C52.72699653 998.42534722 52.72699653 998.42534722 53.82421875 997.328125 C54.04955185 995.3001271 54.2718906 993.27137626 54.4453125 991.23828125 C54.82421875 989.328125 54.82421875 989.328125 56.82421875 987.328125 C57.07888299 984.80463393 57.24385627 982.35717956 57.32421875 979.828125 C57.55394848 972.59839527 57.55394848 972.59839527 59.82421875 970.328125 C60.08703067 968.38988712 60.343379 966.45006764 60.5390625 964.50390625 C60.95662176 961.3178719 61.86686953 958.39164252 62.82421875 955.328125 C62.31084961 955.81273193 61.79748047 956.29733887 61.26855469 956.79663086 C56.58841912 959.7289611 50.67854099 958.88582857 45.29003906 958.8840332 C43.09390216 958.89056644 40.90236251 958.94497318 38.70703125 959.00195312 C31.51487435 959.08757404 25.81740184 959.01814141 20.29589844 953.81616211 C19.81024414 953.32510986 19.32458984 952.83405762 18.82421875 952.328125 C17.83421875 951.668125 16.84421875 951.008125 15.82421875 950.328125 C15.82421875 949.338125 15.82421875 948.348125 15.82421875 947.328125 C14.83421875 947.328125 13.84421875 947.328125 12.82421875 947.328125 C9.18351903 941.52450035 7.42141907 937.1362087 6.82421875 930.328125 C6.16421875 929.668125 5.50421875 929.008125 4.82421875 928.328125 C4.49088542 925.99479167 4.15755208 923.66145833 3.82421875 921.328125 C2.93199279 918.28850775 1.8879956 915.31132529 0.82421875 912.328125 C-2.74467509 901.62144348 -0.7117136 886.82599671 2.82421875 876.328125 C3.15421875 875.998125 3.48421875 875.668125 3.82421875 875.328125 C4.10971524 872.29189245 4.27290689 869.25554715 4.4453125 866.2109375 C4.82421875 863.328125 4.82421875 863.328125 6.82421875 860.328125 C7.0943383 857.96109803 7.27189105 855.58274595 7.38671875 853.203125 C7.72626396 846.42607979 7.72626396 846.42607979 8.82421875 845.328125 C9.06365933 841.92274783 9.21846779 838.52438328 9.34179688 835.11328125 C9.51659272 831.36011758 9.8682548 827.9178314 10.828125 824.28125 C12.64984786 816.68757679 12.24359599 808.65473958 12.35595703 800.8828125 C12.38980012 798.75498797 12.43484097 796.62759928 12.48046875 794.5 C12.49916016 793.2428418 12.51785156 791.98568359 12.53710938 790.69042969 C12.81586129 787.4259982 13.58508127 785.31714799 14.82421875 782.328125 C15.16957957 779.48154827 15.16957957 779.48154827 15.203125 776.4765625 C15.23728516 775.37828125 15.27144531 774.28 15.30664062 773.1484375 C15.33306641 772.01148438 15.35949219 770.87453125 15.38671875 769.703125 C15.44661008 767.43999729 15.51023794 765.17696447 15.578125 762.9140625 C15.60205322 761.9142334 15.62598145 760.9144043 15.65063477 759.88427734 C15.82421875 757.328125 15.82421875 757.328125 16.82421875 754.328125 C16.9161056 752.85897566 16.9548859 751.38608097 16.95703125 749.9140625 C16.95832031 749.07101562 16.95960938 748.22796875 16.9609375 747.359375 C16.95707031 746.4828125 16.95320312 745.60625 16.94921875 744.703125 C16.95308594 743.81882812 16.95695313 742.93453125 16.9609375 742.0234375 C16.95964844 741.18296875 16.95835937 740.3425 16.95703125 739.4765625 C16.95590332 738.70489746 16.95477539 737.93323242 16.95361328 737.13818359 C17.02127395 735.30688451 17.02127395 735.30688451 15.82421875 734.328125 C15.67984375 733.19375 15.53546875 732.059375 15.38671875 730.890625 C15.17574324 727.28753503 15.17574324 727.28753503 12.82421875 725.328125 C12.55429969 722.63973115 12.73684518 720.03670564 12.82421875 717.328125 C12.09332031 717.0703125 11.36242187 716.8125 10.609375 716.546875 C7.72267139 715.28368913 5.68992063 713.82136202 3.26171875 711.828125 C0.54274357 709.60393733 -1.9708612 707.78160348 -5.17578125 706.328125 C-5.17578125 705.668125 -5.17578125 705.008125 -5.17578125 704.328125 C-6.62984375 704.3590625 -6.62984375 704.3590625 -8.11328125 704.390625 C-11.17578125 704.328125 -11.17578125 704.328125 -12.17578125 703.328125 C-14.99564626 703.0543517 -17.78587944 702.85025349 -20.61328125 702.703125 C-21.87664307 702.63665771 -21.87664307 702.63665771 -23.16552734 702.56884766 C-29.23427665 702.30115855 -35.2365027 702.36413189 -41.30078125 702.703125 C-42.07607178 702.74614746 -42.8513623 702.78916992 -43.65014648 702.83349609 C-47.213951 702.77633604 -47.213951 702.77633604 -50.17578125 704.328125 C-51.86187091 704.40018011 -53.55078784 704.41198568 -55.23828125 704.390625 C-56.15738281 704.38160156 -57.07648437 704.37257813 -58.0234375 704.36328125 C-59.08884766 704.34587891 -59.08884766 704.34587891 -60.17578125 704.328125 C-60.50578125 705.318125 -60.83578125 706.308125 -61.17578125 707.328125 C-63.43359375 708.390625 -63.43359375 708.390625 -66.30078125 709.328125 C-69.61712112 710.4493228 -72.86211631 711.56943847 -76.05078125 713.015625 C-78.80649642 714.17302537 -81.23302059 714.88225217 -84.17578125 715.328125 C-84.17578125 715.988125 -84.17578125 716.648125 -84.17578125 717.328125 C-84.77003906 717.61945312 -85.36429688 717.91078125 -85.9765625 718.2109375 C-91.61290938 720.99843098 -97.14601304 723.9244586 -102.6328125 726.99609375 C-105.10350525 728.29026614 -107.57458554 729.32766511 -110.17578125 730.328125 C-111.28953125 730.823125 -112.40328125 731.318125 -113.55078125 731.828125 C-116.10301326 732.884221 -118.41551496 733.7295068 -121.05078125 734.453125 C-124.02030488 735.00922822 -124.02030488 735.00922822 -125.17578125 736.328125 C-126.28953125 736.4725 -127.40328125 736.616875 -128.55078125 736.765625 C-132.26088672 737.08112717 -132.26088672 737.08112717 -135.17578125 739.328125 C-137.50492948 739.68954455 -139.83831603 740.02512025 -142.17578125 740.328125 C-142.50578125 740.658125 -142.83578125 740.988125 -143.17578125 741.328125 C-144.31015625 741.4725 -145.44453125 741.616875 -146.61328125 741.765625 C-150.21637122 741.97660051 -150.21637122 741.97660051 -152.17578125 744.328125 C-153.83853483 744.82695107 -155.50406559 745.31876572 -157.18359375 745.7578125 C-159.245159 746.34798608 -161.1859991 747.09316367 -163.17578125 747.890625 C-166.80363914 749.30224286 -170.32107916 749.78846671 -174.17578125 750.328125 C-174.83578125 750.988125 -175.49578125 751.648125 -176.17578125 752.328125 C-178.50735617 752.67354351 -180.84086486 753.00606757 -183.17578125 753.328125 C-184.52555974 753.96083367 -185.85931006 754.62874968 -187.17578125 755.328125 C-190.95294441 756.5629668 -194.54746284 757.42045413 -198.48828125 757.828125 C-202.20435832 757.95291184 -202.20435832 757.95291184 -204.17578125 760.328125 C-206.50396089 760.69573231 -208.83761975 761.03054081 -211.17578125 761.328125 C-211.50578125 761.658125 -211.83578125 761.988125 -212.17578125 762.328125 C-213.31015625 762.4725 -214.44453125 762.616875 -215.61328125 762.765625 C-219.21637122 762.97660051 -219.21637122 762.97660051 -221.17578125 765.328125 C-223.47937462 765.7063269 -225.75339151 765.83316463 -228.08203125 765.984375 C-230.39090384 766.15444307 -230.39090384 766.15444307 -232.17578125 768.328125 C-234.0859375 768.70703125 -234.0859375 768.70703125 -236.23828125 768.890625 C-239.94314742 768.88725948 -239.94314742 768.88725948 -241.17578125 770.328125 C-243.46262463 770.6100646 -245.74941398 770.77589505 -248.046875 770.94921875 C-250.38505528 771.15589136 -250.38505528 771.15589136 -252.17578125 773.328125 C-254.234375 773.671875 -254.234375 773.671875 -256.61328125 773.828125 C-260.11387809 774.05880683 -261.1180397 774.28963063 -264.17578125 776.328125 C-266.18359375 776.70703125 -266.18359375 776.70703125 -268.30078125 776.890625 C-271.95042091 776.89499399 -271.95042091 776.89499399 -273.17578125 778.328125 C-275.46262463 778.6100646 -277.74941398 778.77589505 -280.046875 778.94921875 C-282.38505528 779.15589136 -282.38505528 779.15589136 -284.17578125 781.328125 C-286.41796875 781.671875 -286.41796875 781.671875 -289.05078125 781.828125 C-292.67770536 782.04465778 -294.97077117 782.6708059 -298.17578125 784.328125 C-300.28125 784.70703125 -300.28125 784.70703125 -302.36328125 784.890625 C-305.95769064 784.90274034 -305.95769064 784.90274034 -307.17578125 786.328125 C-309.72334229 786.61118734 -312.27088147 786.77628286 -314.828125 786.94921875 C-317.36090898 787.12298224 -317.36090898 787.12298224 -319.17578125 789.328125 C-321.3828125 789.671875 -321.3828125 789.671875 -323.98828125 789.828125 C-327.8196465 790.13463422 -330.62001903 790.86935076 -334.17578125 792.328125 C-336.54338381 792.65934401 -338.90251088 792.88873717 -341.28515625 793.08203125 C-343.18481986 793.13385668 -343.18481986 793.13385668 -344.17578125 794.328125 C-347.2120138 794.61362149 -350.2483591 794.77681314 -353.29296875 794.94921875 C-356.36836959 795.13762652 -356.36836959 795.13762652 -359.17578125 797.328125 C-361.62109375 797.70703125 -361.62109375 797.70703125 -364.30078125 797.890625 C-367.544991 797.87297379 -367.544991 797.87297379 -370.17578125 799.328125 C-371.51845538 799.41444374 -372.86552447 799.43518973 -374.2109375 799.42578125 C-375.01982422 799.42255859 -375.82871094 799.41933594 -376.66210938 799.41601562 C-377.51224609 799.40763672 -378.36238281 799.39925781 -379.23828125 799.390625 C-380.09228516 799.38611328 -380.94628906 799.38160156 -381.82617188 799.37695312 C-383.94273788 799.36512873 -386.0592681 799.34719269 -388.17578125 799.328125 C-388.17578125 799.988125 -388.17578125 800.648125 -388.17578125 801.328125 C-390.78529361 802.63288118 -392.7027941 802.44114072 -395.62109375 802.42578125 C-396.69746094 802.42255859 -397.77382813 802.41933594 -398.8828125 802.41601562 C-400.01074219 802.40763672 -401.13867188 802.39925781 -402.30078125 802.390625 C-403.43644531 802.38611328 -404.57210938 802.38160156 -405.7421875 802.37695312 C-408.55343763 802.36514115 -411.36458355 802.34867007 -414.17578125 802.328125 C-414.17578125 802.988125 -414.17578125 803.648125 -414.17578125 804.328125 C-417.70608998 806.09327937 -421.94739805 805.73882888 -425.85351562 805.93359375 C-429.30832139 805.83005934 -429.30832139 805.83005934 -432.17578125 807.328125 C-434.98401324 807.61210352 -437.7922476 807.77659165 -440.609375 807.94921875 C-443.33639795 808.09124465 -443.33639795 808.09124465 -445.17578125 810.328125 C-447.41796875 810.671875 -447.41796875 810.671875 -450.05078125 810.828125 C-453.67839407 811.01340922 -453.67839407 811.01340922 -456.99584961 812.32592773 C-459.63769163 813.54048272 -461.66131874 813.62939014 -464.5625 813.70703125 C-466.09293945 813.75827148 -466.09293945 813.75827148 -467.65429688 813.81054688 C-468.71326172 813.83697266 -469.77222656 813.86339844 -470.86328125 813.890625 C-472.97147563 813.9502789 -475.07956382 814.01386083 -477.1875 814.08203125 C-478.12037842 814.10595947 -479.05325684 814.1298877 -480.0144043 814.15454102 C-482.15518616 814.09145304 -482.15518616 814.09145304 -483.17578125 815.328125 C-493.63598453 815.96683611 -502.67273341 816.15418263 -512.17578125 811.328125 C-514.504515 810.64556511 -516.83760916 809.97761725 -519.17578125 809.328125 C-525.47710981 807.25863604 -531.2901603 804.36102151 -537.17578125 801.328125 C-538.50820694 800.65964613 -539.8412258 799.99234182 -541.17578125 799.328125 C-541.17578125 798.668125 -541.17578125 798.008125 -541.17578125 797.328125 C-542.16578125 797.328125 -543.15578125 797.328125 -544.17578125 797.328125 C-544.50578125 796.668125 -544.83578125 796.008125 -545.17578125 795.328125 C-546.82629413 794.21178348 -546.82629413 794.21178348 -548.73828125 793.203125 C-549.87265625 792.584375 -551.00703125 791.965625 -552.17578125 791.328125 C-552.17578125 790.668125 -552.17578125 790.008125 -552.17578125 789.328125 C-553.16578125 789.328125 -554.15578125 789.328125 -555.17578125 789.328125 C-556.88686814 787.70709532 -558.54831431 786.03309037 -560.17578125 784.328125 C-561.10390625 783.60625 -562.03203125 782.884375 -562.98828125 782.140625 C-563.71015625 781.5425 -564.43203125 780.944375 -565.17578125 780.328125 C-565.17578125 779.668125 -565.17578125 779.008125 -565.17578125 778.328125 C-565.75714844 778.06644531 -566.33851563 777.80476562 -566.9375 777.53515625 C-569.30254465 776.25976568 -571.01261674 774.83033925 -572.98828125 773.015625 C-575.61755139 770.64780198 -578.25215335 768.50819898 -581.17578125 766.515625 C-582.16578125 765.79375 -583.15578125 765.071875 -584.17578125 764.328125 C-584.17578125 763.668125 -584.17578125 763.008125 -584.17578125 762.328125 C-584.98015625 762.039375 -585.78453125 761.750625 -586.61328125 761.453125 C-589.17578125 760.328125 -589.17578125 760.328125 -590.17578125 758.328125 C-592.19247952 757.19461966 -592.19247952 757.19461966 -594.17578125 756.328125 C-594.17578125 755.668125 -594.17578125 755.008125 -594.17578125 754.328125 C-594.73007812 754.10253906 -595.284375 753.87695312 -595.85546875 753.64453125 C-598.8608428 751.93946214 -600.90565128 749.75012549 -603.30078125 747.265625 C-606.4168389 743.86359017 -606.4168389 743.86359017 -610.17578125 741.328125 C-610.17578125 740.668125 -610.17578125 740.008125 -610.17578125 739.328125 C-611.16578125 738.998125 -612.15578125 738.668125 -613.17578125 738.328125 C-613.17578125 737.668125 -613.17578125 737.008125 -613.17578125 736.328125 C-613.83578125 736.328125 -614.49578125 736.328125 -615.17578125 736.328125 C-615.50578125 735.668125 -615.83578125 735.008125 -616.17578125 734.328125 C-617.83426302 733.31460836 -619.50244086 732.31691705 -621.17578125 731.328125 C-623.98828125 729.265625 -623.98828125 729.265625 -626.17578125 727.328125 C-626.17578125 726.668125 -626.17578125 726.008125 -626.17578125 725.328125 C-626.85640625 725.1425 -627.53703125 724.956875 -628.23828125 724.765625 C-631.67625618 723.08321174 -633.66375423 721.00279347 -636.28515625 718.26171875 C-640.39609672 714.05734781 -644.95986044 710.32191845 -649.48828125 706.578125 C-653.69342831 703.05753676 -653.69342831 703.05753676 -655.17578125 701.328125 C-655.17578125 700.668125 -655.17578125 700.008125 -655.17578125 699.328125 C-656.16578125 698.998125 -657.15578125 698.668125 -658.17578125 698.328125 C-658.17578125 697.668125 -658.17578125 697.008125 -658.17578125 696.328125 C-658.83578125 696.328125 -659.49578125 696.328125 -660.17578125 696.328125 C-660.17578125 695.668125 -660.17578125 695.008125 -660.17578125 694.328125 C-661.16578125 693.998125 -662.15578125 693.668125 -663.17578125 693.328125 C-663.17578125 692.668125 -663.17578125 692.008125 -663.17578125 691.328125 C-663.83578125 691.328125 -664.49578125 691.328125 -665.17578125 691.328125 C-666.7265625 689.7890625 -666.7265625 689.7890625 -668.48828125 687.703125 C-669.06191406 687.03023437 -669.63554688 686.35734375 -670.2265625 685.6640625 C-670.86980469 684.89320313 -671.51304687 684.12234375 -672.17578125 683.328125 C-673.51189453 682.11576172 -673.51189453 682.11576172 -674.875 680.87890625 C-678.7838729 676.17426394 -677.8150904 669.91878848 -677.67578125 664.140625 C-677.67835938 662.95275391 -677.6809375 661.76488281 -677.68359375 660.54101562 C-677.58563598 651.90603852 -677.58563598 651.90603852 -676.01307678 649.68865967 C-673.4234783 647.77103757 -671.56333727 647.94291695 -668.35913086 647.92749023 C-667.16456772 647.91415146 -665.97000458 647.90081268 -664.73924255 647.8870697 C-663.44857376 647.88695389 -662.15790497 647.88683807 -660.828125 647.88671875 C-659.49197437 647.87494835 -658.15583691 647.86158495 -656.81971741 647.84669495 C-653.30403651 647.81050212 -649.7884723 647.79030393 -646.27264404 647.77514648 C-640.64147677 647.75031644 -635.01056731 647.710763 -629.37964058 647.65324593 C-627.41093788 647.63688753 -625.44214138 647.63349305 -623.47337341 647.63023376 C-622.28196243 647.62004715 -621.09055145 647.60986053 -619.86303711 647.59936523 C-618.28443153 647.59295265 -618.28443153 647.59295265 -616.67393494 647.58641052 C-614.00285589 647.57562427 -614.00285589 647.57562427 -612.17578125 645.328125 C-609.99267578 645.04101562 -609.99267578 645.04101562 -607.30859375 644.984375 C-605.85646484 644.93990234 -605.85646484 644.93990234 -604.375 644.89453125 C-603.36050781 644.87261719 -602.34601563 644.85070312 -601.30078125 644.828125 C-599.30317966 644.78464328 -597.3057371 644.73287672 -595.30859375 644.671875 C-594.42059082 644.65318359 -593.53258789 644.63449219 -592.61767578 644.61523438 C-590.18707738 644.48070745 -590.18707738 644.48070745 -588.31347656 643.32911682 C-585.87704918 642.18824148 -584.21034217 642.05957339 -581.53076172 642.02514648 C-580.15946609 642.00018349 -580.15946609 642.00018349 -578.76046753 641.97471619 C-577.29155563 641.96209496 -577.29155563 641.96209496 -575.79296875 641.94921875 C-574.27704636 641.92372704 -574.27704636 641.92372704 -572.73049927 641.89772034 C-569.50398996 641.84461144 -566.2774934 641.80429559 -563.05078125 641.765625 C-559.81699288 641.72171765 -556.58330482 641.67504746 -553.34963989 641.62281799 C-551.33757048 641.59082729 -549.32541225 641.56394773 -547.3132019 641.54258728 C-546.40530914 641.52909744 -545.49741638 641.5156076 -544.56201172 641.50170898 C-543.7613327 641.49219711 -542.96065369 641.48268524 -542.13571167 641.47288513 C-540.09708067 641.44715635 -540.09708067 641.44715635 -538.17578125 640.328125 C-536.22106479 640.21819646 -534.2626619 640.17165757 -532.30493164 640.15454102 C-531.07347916 640.14105118 -529.84202667 640.12756134 -528.57325745 640.11366272 C-527.91345949 640.10860277 -527.25366154 640.10354282 -526.57386971 640.09832954 C-524.51029125 640.08192675 -522.4468955 640.05868988 -520.38340759 640.03343201 C-514.51619559 639.96263307 -508.64890935 639.90251155 -502.78149414 639.85131836 C-499.19347586 639.81953345 -495.60566818 639.77826049 -492.01782036 639.73112297 C-490.64991478 639.71510106 -489.2819607 639.70278033 -487.91398811 639.69421577 C-486.00125676 639.68206736 -484.08862157 639.65688458 -482.17602539 639.63110352 C-481.0872963 639.62079605 -479.9985672 639.61048859 -478.87684631 639.59986877 C-475.95433549 639.518946 -475.95433549 639.518946 -473.17578125 637.328125 C-471.2988739 637.06311035 -471.2988739 637.06311035 -469.16674805 637.04101562 C-468.36548996 637.02760132 -467.56423187 637.01418701 -466.73869324 637.00036621 C-465.87617447 636.99508911 -465.0136557 636.98981201 -464.125 636.984375 C-463.23343704 636.9697522 -462.34187408 636.95512939 -461.42329407 636.94006348 C-458.57000209 636.89353894 -455.71677903 636.85936855 -452.86328125 636.828125 C-449.11693398 636.78687615 -445.37106778 636.73311827 -441.625 636.671875 C-440.76855392 636.6665979 -439.91210785 636.6613208 -439.02970886 636.65588379 C-435.49183102 636.59734509 -432.64348726 636.48905398 -429.27587891 635.33032227 C-424.6025145 633.8195205 -420.00752977 633.98966064 -415.125 633.94921875 C-414.0704512 633.93222427 -413.0159024 633.9152298 -411.92939758 633.89772034 C-408.57408564 633.84474508 -405.21878569 633.80433773 -401.86328125 633.765625 C-398.48998421 633.72173496 -395.11678387 633.67512417 -391.74360657 633.62281799 C-389.64699082 633.59078702 -387.55028888 633.56392023 -385.45353699 633.54258728 C-384.51198257 633.52909744 -383.57042816 633.5156076 -382.6003418 633.50170898 C-381.76794479 633.49219711 -380.93554779 633.48268524 -380.07792664 633.47288513 C-378.16557682 633.53505714 -378.16557682 633.53505714 -377.17578125 632.328125 C-375.04224951 632.22809211 -372.90540583 632.19731452 -370.76953125 632.1953125 C-369.46886719 632.19402344 -368.16820312 632.19273437 -366.828125 632.19140625 C-365.8069458 632.19454834 -365.8069458 632.19454834 -364.76513672 632.19775391 C-362.6844961 632.2031026 -360.60407136 632.1978082 -358.5234375 632.19140625 C-356.57244141 632.19333984 -356.57244141 632.19333984 -354.58203125 632.1953125 C-353.37869141 632.19644043 -352.17535156 632.19756836 -350.93554688 632.19873047 C-348.17578125 632.328125 -348.17578125 632.328125 -347.17578125 633.328125 C-336.90081959 634.01211808 -336.90081959 634.01211808 -327.17578125 631.328125 C-325.69714224 629.6370618 -324.49905119 627.90784977 -323.30859375 626.00390625 C-321.91701101 623.94532351 -320.15509984 622.79428692 -318.17578125 621.328125 C-317.83177146 618.36262073 -317.83177146 618.36262073 -319.53125 616.8984375 C-320.43810547 616.18300781 -320.43810547 616.18300781 -321.36328125 615.453125 C-323.64336638 613.60341738 -325.67792263 611.81373627 -327.73828125 609.703125 C-330.17632641 607.17898203 -330.17632641 607.17898203 -333.48828125 605.140625 C-334.81859375 604.2434375 -334.81859375 604.2434375 -336.17578125 603.328125 C-336.17578125 602.668125 -336.17578125 602.008125 -336.17578125 601.328125 C-336.69140625 601.245625 -337.20703125 601.163125 -337.73828125 601.078125 C-341.29208094 599.98464817 -344.03688706 598.34175524 -347.17578125 596.328125 C-347.50578125 595.338125 -347.83578125 594.348125 -348.17578125 593.328125 C-349.16578125 593.328125 -350.15578125 593.328125 -351.17578125 593.328125 C-351.17578125 592.668125 -351.17578125 592.008125 -351.17578125 591.328125 C-352.16578125 590.998125 -353.15578125 590.668125 -354.17578125 590.328125 C-354.17578125 589.668125 -354.17578125 589.008125 -354.17578125 588.328125 C-355.16578125 588.328125 -356.15578125 588.328125 -357.17578125 588.328125 C-357.17578125 587.668125 -357.17578125 587.008125 -357.17578125 586.328125 C-357.83578125 586.328125 -358.49578125 586.328125 -359.17578125 586.328125 C-360.8671875 584.68359375 -360.8671875 584.68359375 -362.73828125 582.515625 C-363.35832031 581.80792969 -363.97835938 581.10023438 -364.6171875 580.37109375 C-366.17578125 578.328125 -366.17578125 578.328125 -367.17578125 575.328125 C-368.16578125 574.998125 -369.15578125 574.668125 -370.17578125 574.328125 C-370.17578125 573.668125 -370.17578125 573.008125 -370.17578125 572.328125 C-370.83578125 572.328125 -371.49578125 572.328125 -372.17578125 572.328125 C-373.69140625 570.82421875 -373.69140625 570.82421875 -375.42578125 568.765625 C-376.05097656 568.03472656 -376.67617188 567.30382812 -377.3203125 566.55078125 C-378.45390196 565.19286041 -379.57864342 563.82741001 -380.6875 562.44921875 C-383.83653121 558.59273395 -387.10979287 555.81949912 -391.15625 552.93359375 C-394.03236196 550.64716819 -396.28964285 547.96561966 -398.63671875 545.15234375 C-400.24703658 543.18336212 -400.24703658 543.18336212 -402.55078125 541.015625 C-404.17578125 539.328125 -404.17578125 539.328125 -405.17578125 536.328125 C-405.83578125 535.998125 -406.49578125 535.668125 -407.17578125 535.328125 C-410.17578125 529.90504808 -410.17578125 529.90504808 -410.17578125 527.328125 C-410.83578125 527.328125 -411.49578125 527.328125 -412.17578125 527.328125 C-414.2174761 524.42263618 -415.17578125 522.92670454 -415.17578125 519.328125 C-415.83578125 519.328125 -416.49578125 519.328125 -417.17578125 519.328125 C-417.17578125 517.678125 -417.17578125 516.028125 -417.17578125 514.328125 C-418.16578125 514.328125 -419.15578125 514.328125 -420.17578125 514.328125 C-423.17578125 508.578125 -423.17578125 508.578125 -423.17578125 506.328125 C-423.83578125 506.328125 -424.49578125 506.328125 -425.17578125 506.328125 C-425.17578125 505.338125 -425.17578125 504.348125 -425.17578125 503.328125 C-426.16578125 502.998125 -427.15578125 502.668125 -428.17578125 502.328125 C-434.52587271 494.88868731 -439.64355752 486.43681218 -443.17578125 477.328125 C-443.8415591 475.64027413 -444.50822357 473.95277272 -445.17578125 472.265625 C-445.50578125 471.42902344 -445.83578125 470.59242188 -446.17578125 469.73046875 C-447.1168739 467.35573149 -447.1168739 467.35573149 -448.26953125 465.3046875 C-449.59920385 462.40462571 -449.61958022 459.59880525 -449.83203125 456.44921875 C-450.07326086 454.03291957 -450.07326086 454.03291957 -452.17578125 451.328125 C-452.5546875 448.6640625 -452.5546875 448.6640625 -452.73828125 445.703125 C-452.67853254 442.2030719 -452.67853254 442.2030719 -454.17578125 439.328125 C-454.27417339 437.7987787 -454.30376664 436.26492934 -454.30517578 434.73242188 C-454.30832794 433.75470825 -454.3114801 432.77699463 -454.31472778 431.76965332 C-454.31169144 430.17437805 -454.31169144 430.17437805 -454.30859375 428.546875 C-454.30955048 427.46305542 -454.3105072 426.37923584 -454.31149292 425.26257324 C-454.3121749 422.9659011 -454.31031936 420.66922705 -454.30615234 418.37255859 C-454.30080437 414.84338072 -454.30609675 411.31433013 -454.3125 407.78515625 C-454.31183922 405.55989555 -454.31055807 403.33463493 -454.30859375 401.109375 C-454.31061798 400.04585815 -454.31264221 398.98234131 -454.31472778 397.88659668 C-454.30999954 396.42002625 -454.30999954 396.42002625 -454.30517578 394.92382812 C-454.30438019 394.05858521 -454.30358459 393.19334229 -454.30276489 392.30187988 C-454.17578125 390.328125 -454.17578125 390.328125 -453.17578125 389.328125 C-452.96681808 387.52001316 -452.80797764 385.70596468 -452.67578125 383.890625 C-452.28570491 378.54797233 -452.28570491 378.54797233 -451.17578125 376.328125 C-450.51578125 376.328125 -449.85578125 376.328125 -449.17578125 376.328125 C-449.25828125 375.214375 -449.34078125 374.100625 -449.42578125 372.953125 C-449.39290341 363.59937947 -443.63322033 355.22807857 -439.17578125 347.328125 C-438.84578125 346.668125 -438.51578125 346.008125 -438.17578125 345.328125 C-437.51578125 345.328125 -436.85578125 345.328125 -436.17578125 345.328125 C-435.84578125 344.338125 -435.51578125 343.348125 -435.17578125 342.328125 C-434.51578125 342.328125 -433.85578125 342.328125 -433.17578125 342.328125 C-432.84578125 341.338125 -432.51578125 340.348125 -432.17578125 339.328125 C-431.51578125 339.328125 -430.85578125 339.328125 -430.17578125 339.328125 C-430.17578125 338.668125 -430.17578125 338.008125 -430.17578125 337.328125 C-428.56640625 335.7421875 -428.56640625 335.7421875 -426.42578125 333.953125 C-424.10674423 331.99054773 -421.92358841 330.0692955 -419.80078125 327.890625 C-418.17578125 326.328125 -418.17578125 326.328125 -416.17578125 326.328125 C-415.84578125 325.338125 -415.51578125 324.348125 -415.17578125 323.328125 C-414.04795191 322.23447231 -412.91848195 321.14246584 -411.78125 320.05859375 C-407.77423816 315.73960046 -403.81556486 310.60769222 -401.17578125 305.328125 C-400.51578125 305.328125 -399.85578125 305.328125 -399.17578125 305.328125 C-399.06105469 304.74546875 -398.94632812 304.1628125 -398.828125 303.5625 C-398.12754063 301.16289365 -397.1938553 299.59951567 -395.73828125 297.578125 C-395.09052734 296.65773438 -395.09052734 296.65773438 -394.4296875 295.71875 C-394.01589844 295.25984375 -393.60210937 294.8009375 -393.17578125 294.328125 C-392.51578125 294.328125 -391.85578125 294.328125 -391.17578125 294.328125 C-390.84578125 292.678125 -390.51578125 291.028125 -390.17578125 289.328125 C-389.51578125 289.328125 -388.85578125 289.328125 -388.17578125 289.328125 C-388.03140625 288.750625 -387.88703125 288.173125 -387.73828125 287.578125 C-387.21744792 285.49479167 -386.69661458 283.41145833 -386.17578125 281.328125 C-385.51578125 281.328125 -384.85578125 281.328125 -384.17578125 281.328125 C-384.12679688 280.48507812 -384.0778125 279.64203125 -384.02734375 278.7734375 C-383.95257813 277.67773438 -383.8778125 276.58203125 -383.80078125 275.453125 C-383.73117187 274.36257813 -383.6615625 273.27203125 -383.58984375 272.1484375 C-383.17578125 269.328125 -383.17578125 269.328125 -381.17578125 267.328125 C-380.97729054 264.78277359 -380.8972635 262.37095741 -380.92578125 259.828125 C-380.91804688 259.13847656 -380.9103125 258.44882812 -380.90234375 257.73828125 C-380.79965075 253.57598114 -380.79965075 253.57598114 -383.17578125 250.328125 C-383.51953125 247.61328125 -383.51953125 247.61328125 -383.67578125 244.390625 C-383.88682324 239.55309603 -383.88682324 239.55309603 -386.17578125 235.328125 C-387.69698924 230.84901259 -388.40637784 227.05535506 -388.17578125 222.328125 C-389.16578125 221.998125 -390.15578125 221.668125 -391.17578125 221.328125 C-391.17578125 219.348125 -391.17578125 217.368125 -391.17578125 215.328125 C-391.83578125 215.328125 -392.49578125 215.328125 -393.17578125 215.328125 C-395.61003363 210.35819306 -396.52194123 206.98207131 -396.17578125 201.328125 C-397.16578125 200.998125 -398.15578125 200.668125 -399.17578125 200.328125 C-401.3202799 194.7776579 -401.90200835 188.89318784 -402.7109375 183.0234375 C-402.89350497 180.41818676 -402.89350497 180.41818676 -404.17578125 179.328125 C-404.46135408 175.0436672 -404.40778204 170.74593701 -404.42578125 166.453125 C-404.45671875 164.66648438 -404.45671875 164.66648438 -404.48828125 162.84375 C-404.55275777 148.1108658 -400.46644634 134.02473603 -390.1015625 123.15234375 C-383.51462221 117.04821584 -376.71186463 113.05240693 -368.17578125 110.328125 C-366.83335475 109.67996352 -365.50049163 109.01176571 -364.17578125 108.328125 C-359.5236949 105.95802798 -355.19642439 104.38783437 -349.98828125 103.828125 C-346.11318414 103.60546824 -346.11318414 103.60546824 -343.17578125 101.328125 C-340.30166417 101.13268504 -337.54695408 101.04936534 -334.67578125 101.078125 C-333.90363281 101.07039063 -333.13148438 101.06265625 -332.3359375 101.0546875 C-328.43946657 101.06819347 -326.48590878 101.12137331 -323.17578125 103.328125 C-320.99939785 103.5629174 -320.99939785 103.5629174 -318.61328125 103.578125 C-313.27716164 103.9981694 -309.90901978 105.94564149 -305.48828125 108.83984375 C-302.48027676 110.77573853 -299.50003458 112.01096802 -296.17578125 113.328125 C-295.00015625 113.84375 -293.82453125 114.359375 -292.61328125 114.890625 C-289.21788541 116.36050432 -289.21788541 116.36050432 -285.80078125 117.453125 C-283.17578125 118.328125 -283.17578125 118.328125 -282.17578125 119.328125 C-280.10805391 119.52754368 -280.10805391 119.52754368 -277.73828125 119.515625 C-276.53365234 119.53689453 -276.53365234 119.53689453 -275.3046875 119.55859375 C-272.95947492 119.52974856 -272.95947492 119.52974856 -271.17578125 117.328125 C-269.51695342 116.59824075 -267.85577376 115.87292359 -266.1796875 115.18359375 C-262.7659858 113.7262825 -259.48192793 112.01187393 -256.17578125 110.328125 C-255.19158203 109.89693359 -255.19158203 109.89693359 -254.1875 109.45703125 C-251.73905437 108.08304914 -250.12043146 106.34493997 -248.17578125 104.328125 C-246.86300864 103.2403235 -245.52855328 102.17826264 -244.17578125 101.140625 C-243.38816406 100.53605469 -242.60054688 99.93148437 -241.7890625 99.30859375 C-235.84517369 94.80403228 -229.8820278 90.32518508 -223.8828125 85.89453125 C-222.82449219 85.10949219 -221.76617187 84.32445313 -220.67578125 83.515625 C-219.71671875 82.80792969 -218.75765625 82.10023437 -217.76953125 81.37109375 C-215.37193909 79.48262884 -213.31568417 77.49717056 -211.17578125 75.328125 C-209.32002285 73.72228248 -207.4439904 72.13963983 -205.55078125 70.578125 C-204.58914063 69.77890625 -203.6275 68.9796875 -202.63671875 68.15625 C-200.17578125 66.328125 -200.17578125 66.328125 -198.17578125 66.328125 C-198.17578125 65.668125 -198.17578125 65.008125 -198.17578125 64.328125 C-196.19071611 62.61470035 -194.20573976 61.02533369 -192.11328125 59.453125 C-191.27120117 58.80150391 -191.27120117 58.80150391 -190.41210938 58.13671875 C-186.49952884 55.15868602 -182.4802148 52.70298489 -178.17578125 50.328125 C-177.52609375 49.93367188 -176.87640625 49.53921875 -176.20703125 49.1328125 C-172.30540369 46.76396719 -168.58040646 45.4508726 -164.17578125 44.328125 C-163.51578125 43.998125 -162.85578125 43.668125 -162.17578125 43.328125 C-160.57289399 43.22301764 -158.96826283 43.1439222 -157.36328125 43.078125 C-150.25011874 42.50417935 -141.35532304 40.50766679 -136.17578125 35.328125 C-134.17610579 34.61948821 -132.15018516 33.9838286 -130.11328125 33.390625 C-128.95183594 33.04515625 -127.79039062 32.6996875 -126.59375 32.34375 C-125.46582031 32.00859375 -124.33789062 31.6734375 -123.17578125 31.328125 C-117.7695368 30.00668938 -117.7695368 30.00668938 -113.17578125 27.328125 C-111.11848955 27.00889008 -109.05964604 26.81651148 -106.98828125 26.609375 C-105.15902795 26.50814457 -105.15902795 26.50814457 -104.17578125 25.328125 C-102.14778335 25.1027919 -100.11903251 24.88045315 -98.0859375 24.70703125 C-95.94288645 24.46590273 -95.94288645 24.46590273 -94.17578125 22.328125 C-92.17089287 22.073536 -90.16380052 21.82255635 -88.1484375 21.671875 C-85.86145764 21.41008424 -85.86145764 21.41008424 -83.17578125 19.328125 C-80.84663302 18.96670545 -78.51324647 18.63112975 -76.17578125 18.328125 C-75.84578125 17.998125 -75.51578125 17.668125 -75.17578125 17.328125 C-72.10691508 17.04338484 -69.03802828 16.87940701 -65.9609375 16.70703125 C-63.03993692 16.5958356 -63.03993692 16.5958356 -61.17578125 14.328125 C-60.10328125 14.204375 -59.03078125 14.080625 -57.92578125 13.953125 C-53.69506549 13.24800571 -51.64811388 11.76614578 -48.17578125 9.328125 C-46.19452275 8.60766736 -44.19074032 7.94811241 -42.17578125 7.328125 C-40.63140914 6.68878816 -39.09002145 6.04222029 -37.55078125 5.390625 C-24.92087848 0.40792492 -13.39531069 -0.09312334 0 0 Z " fill="#E66E50" transform="translate(677.17578125,-0.328125)"/>
<path d="M0 0 C0.6953125 1.7734375 0.6953125 1.7734375 1 4 C-1.82350341 8.15633731 -6.03029482 11.89562107 -11 13 C-11.99 12.67 -12.98 12.34 -14 12 C-8.25 7 -8.25 7 -6 7 C-6 6.34 -6 5.68 -6 5 C-4.04072937 3.2856382 -2.04119788 1.61594832 0 0 Z " fill="#D7462A" transform="translate(485,59)"/>
<path d="M0 0 C1.15822266 -0.01740234 1.15822266 -0.01740234 2.33984375 -0.03515625 C8.06492077 -0.00538982 8.06492077 -0.00538982 10.24414062 1.89990234 C10.65857422 2.38668457 11.07300781 2.8734668 11.5 3.375 C9.16705225 3.41741723 6.83297433 3.41592937 4.5 3.375 C4.17 3.045 3.84 2.715 3.5 2.375 C1.73146708 2.27561137 -0.04118275 2.24530777 -1.8125 2.25 C-3.26076172 2.24613281 -3.26076172 2.24613281 -4.73828125 2.2421875 C-7.16143705 2.35871833 -9.18644969 2.68258352 -11.5 3.375 C-8.21581493 -0.48251287 -4.77547006 -0.07175164 0 0 Z " fill="#EB502B" transform="translate(342.5,100.625)"/>
<path d="M0 0 C0.66 0 1.32 0 2 0 C1.66579964 3.11920338 1.05211466 3.95474254 -1.375 6.0625 C-2.24125 6.701875 -3.1075 7.34125 -4 8 C-5.0173873 8.98230498 -6.02596117 9.97469597 -7 11 C-7.66 10.67 -8.32 10.34 -9 10 C-7.5484451 8.32742645 -6.08855591 6.66208242 -4.625 5 C-3.81289063 4.071875 -3.00078125 3.14375 -2.1640625 2.1875 C-1.44992187 1.465625 -0.73578125 0.74375 0 0 Z " fill="#EB452D" transform="translate(290,120)"/>
<path d="M0 0 C1.91789713 0.28346278 3.83429183 0.5771028 5.75 0.875 C7.35101562 1.11863281 7.35101562 1.11863281 8.984375 1.3671875 C11.67708871 1.93223882 13.63572439 2.63422914 16 4 C16 4.33 16 4.66 16 5 C13.66705225 5.04241723 11.33297433 5.04092937 9 5 C8.67 4.67 8.34 4.34 8 4 C6.65252916 3.76924918 5.29622435 3.58846937 3.9375 3.4375 C2.638125 3.293125 1.33875 3.14875 0 3 C0 2.01 0 1.02 0 0 Z " fill="#D9432C" transform="translate(1293,421)"/>
<path d="M0 0 C2.97 0.495 2.97 0.495 6 1 C6 1.66 6 2.32 6 3 C6.99 3 7.98 3 9 3 C9 3.66 9 4.32 9 5 C9.99 5 10.98 5 12 5 C12.33 6.32 12.66 7.64 13 9 C12.34 9 11.68 9 11 9 C11 8.34 11 7.68 11 7 C10.01 7 9.02 7 8 7 C7.67 6.34 7.34 5.68 7 5 C5.34948712 3.88365848 5.34948712 3.88365848 3.4375 2.875 C2.303125 2.25625 1.16875 1.6375 0 1 C0 0.67 0 0.34 0 0 Z " fill="#E04329" transform="translate(125,790)"/>
<path d="M0 0 C0.66 0.33 1.32 0.66 2 1 C-1.4095941 7.00738007 -1.4095941 7.00738007 -4 9 C-6.6875 9.6875 -6.6875 9.6875 -9 10 C-8.67 9.34 -8.34 8.68 -8 8 C-7.34 8 -6.68 8 -6 8 C-5.67 7.01 -5.34 6.02 -5 5 C-4.34 5 -3.68 5 -3 5 C-3 4.34 -3 3.68 -3 3 C-1.5 1.375 -1.5 1.375 0 0 Z " fill="#F24A27" transform="translate(250,334)"/>
<path d="M0 0 C0 0.99 0 1.98 0 3 C-0.721875 3.061875 -1.44375 3.12375 -2.1875 3.1875 C-5.84657625 4.24456647 -7.49211602 6.20550071 -10 9 C-10.99 8.34 -11.98 7.68 -13 7 C-3.48854962 0 -3.48854962 0 0 0 Z " fill="#ED4227" transform="translate(305,112)"/>
<path d="M0 0 C0 3.60122522 -1.17797949 5.02873556 -3.48828125 7.703125 C-5.79204004 9.67947621 -8.04101995 9.86237302 -11 10 C-7.50640535 6.40365256 -3.88901869 3.16548033 0 0 Z " fill="#DA3E27" transform="translate(439,96)"/>
<path d="M0 0 C0.66 0.33 1.32 0.66 2 1 C-0.21928194 3.90802461 -1.92969143 5.95312762 -5 8 C-6.32 7.67 -7.64 7.34 -9 7 C-6.03 4.69 -3.06 2.38 0 0 Z " fill="#F34120" transform="translate(496,51)"/>
<path d="M0 0 C0.66 0.66 1.32 1.32 2 2 C1.79296875 3.98828125 1.79296875 3.98828125 1.1875 6.3125 C0.88779297 7.51132812 0.88779297 7.51132812 0.58203125 8.734375 C0.38996094 9.48203125 0.19789063 10.2296875 0 11 C-0.33986667 12.66534667 -0.67702486 14.33129513 -1 16 C-1.33 16 -1.66 16 -2 16 C-1.85936865 13.70800823 -1.71234057 11.41640814 -1.5625 9.125 C-1.48128906 7.84882812 -1.40007813 6.57265625 -1.31640625 5.2578125 C-1 2 -1 2 0 0 Z " fill="#DF291F" transform="translate(689,819)"/>
<path d="M0 0 C1.98 0.99 1.98 0.99 4 2 C4 2.66 4 3.32 4 4 C4.61875 4.268125 5.2375 4.53625 5.875 4.8125 C8 6 8 6 10 9 C5.06789169 7.76697292 2.78225429 6.28039122 0 2 C0 1.34 0 0.68 0 0 Z " fill="#C13522" transform="translate(939,50)"/>
<path d="M0 0 C0 0.66 0 1.32 0 2 C-3.46153846 5 -3.46153846 5 -6 5 C-6 5.66 -6 6.32 -6 7 C-6.99 7.33 -7.98 7.66 -9 8 C-8.875 6.25 -8.875 6.25 -8 4 C-2.77777778 0 -2.77777778 0 0 0 Z " fill="#DC4A31" transform="translate(1399,837)"/>
<path d="M0 0 C-1.93171878 1.93171878 -5.39995789 1.64745192 -8 2 C-9.33917261 2.30903983 -10.67653254 2.62942911 -12 3 C-12 2.01 -12 1.02 -12 0 C-3.42857143 -1.28571429 -3.42857143 -1.28571429 0 0 Z " fill="#C44B2A" transform="translate(474,759)"/>
<path d="M0 0 C0.66 0.33 1.32 0.66 2 1 C0.98545548 3.5363613 0.3146444 4.79351461 -2 6.3125 C-2.66 6.539375 -3.32 6.76625 -4 7 C-4.66 6.67 -5.32 6.34 -6 6 C-4.71034824 4.62437146 -3.37310707 3.29233607 -2 2 C-1.34 2 -0.68 2 0 2 C0 1.34 0 0.68 0 0 Z " fill="#D43F2A" transform="translate(261,324)"/>
<path d="M0 0 C0.99 0.33 1.98 0.66 3 1 C3 1.99 3 2.98 3 4 C3.66 4 4.32 4 5 4 C5.99 5.98 6.98 7.96 8 10 C6.68 9.34 5.36 8.68 4 8 C4 7.34 4 6.68 4 6 C3.01 5.67 2.02 5.34 1 5 C0.67 3.35 0.34 1.7 0 0 Z " fill="#F24025" transform="translate(1058,124)"/>
<path d="M0 0 C2.64 0 5.28 0 8 0 C8 0.66 8 1.32 8 2 C9.32 2.33 10.64 2.66 12 3 C10.56344146 3.08131463 9.1255517 3.13933559 7.6875 3.1875 C6.48673828 3.23970703 6.48673828 3.23970703 5.26171875 3.29296875 C2.52148416 2.93801608 1.70828921 2.10633718 0 0 Z " fill="#CD492E" transform="translate(1089,926)"/>
<path d="M0 0 C3.3 1.98 6.6 3.96 10 6 C6 7 6 7 3.875 5.8125 C2 4 2 4 0 0 Z " fill="#F5412C" transform="translate(1464,466)"/>
<path d="M0 0 C1.32 0 2.64 0 4 0 C4.99 1.98 5.98 3.96 7 6 C2.32307692 4.52307692 2.32307692 4.52307692 0.6875 1.875 C0.460625 1.25625 0.23375 0.6375 0 0 Z " fill="#E94129" transform="translate(730,1074)"/>
<path d="M0 0 C0.66 0.33 1.32 0.66 2 1 C0.02 3.97 0.02 3.97 -2 7 C-3.32 6.67 -4.64 6.34 -6 6 C-4 4 -2 2 0 0 Z " fill="#E14A29" transform="translate(358,622)"/>
<path d="M0 0 C0.515625 0.2475 1.03125 0.495 1.5625 0.75 C-0.4375 2.75 -0.4375 2.75 -3.0625 2.875 C-3.84625 2.83375 -4.63 2.7925 -5.4375 2.75 C-5.4375 3.41 -5.4375 4.07 -5.4375 4.75 C-6.7575 4.42 -8.0775 4.09 -9.4375 3.75 C-3.0375 -0.31153846 -3.0375 -0.31153846 0 0 Z " fill="#F25323" transform="translate(508.4375,46.25)"/>
<path d="M0 0 C0.66 0 1.32 0 2 0 C1.67 1.32 1.34 2.64 1 4 C0.34 4 -0.32 4 -1 4 C-1 5.65 -1 7.3 -1 9 C-1.99 9 -2.98 9 -4 9 C-4 8.34 -4 7.68 -4 7 C-3.34 7 -2.68 7 -2 7 C-1.855625 6.030625 -1.71125 5.06125 -1.5625 4.0625 C-1 1 -1 1 0 0 Z " fill="#DB552F" transform="translate(1442,732)"/>
<path d="M0 0 C1.98 0 3.96 0 6 0 C2.63576723 2.96052484 -0.69159287 3.92289822 -5 5 C-5 4.01 -5 3.02 -5 2 C-3.35 2 -1.7 2 0 2 C0 1.34 0 0.68 0 0 Z " fill="#E23E28" transform="translate(602,709)"/>
<path d="M0 0 C2.95409701 1.37154504 5.44008376 2.98863724 8 5 C7.67 5.66 7.34 6.32 7 7 C3.535 5.02 3.535 5.02 0 3 C0 2.01 0 1.02 0 0 Z " fill="#CE3C20" transform="translate(1272,405)"/>
<path d="M0 0 C1.98 0.99 3.96 1.98 6 3 C6 3.99 6 4.98 6 6 C4.125 5.8125 4.125 5.8125 2 5 C0.75 2.4375 0.75 2.4375 0 0 Z " fill="#CB4126" transform="translate(1250,386)"/>
<path d="M0 0 C0.33 0.99 0.66 1.98 1 3 C-0.9375 6.1875 -0.9375 6.1875 -3 9 C-4 7 -4 7 -3.1875 3.9375 C-2 1 -2 1 0 0 Z " fill="#E1351A" transform="translate(798,1043)"/>
<path d="M0 0 C-0.33 0.66 -0.66 1.32 -1 2 C-2.65 2 -4.3 2 -6 2 C-6 2.66 -6 3.32 -6 4 C-6.99 4 -7.98 4 -9 4 C-8.67 3.01 -8.34 2.02 -8 1 C-5.07175348 0.02391783 -3.04386724 -0.08226668 0 0 Z " fill="#E65131" transform="translate(1151,919)"/>
<path d="M0 0 C1.32 0 2.64 0 4 0 C4.12375 0.804375 4.2475 1.60875 4.375 2.4375 C4.684375 3.7059375 4.684375 3.7059375 5 5 C5.66 5.33 6.32 5.66 7 6 C6.01 6 5.02 6 4 6 C1.8125 3 1.8125 3 0 0 Z " fill="#B53B20" transform="translate(1,677)"/>
<path d="M0 0 C1.65 0 3.3 0 5 0 C5 0.66 5 1.32 5 2 C6.32 2.66 7.64 3.32 9 4 C5.30581799 4 3.22163822 2.71820705 0 1 C0 0.67 0 0.34 0 0 Z " fill="#F73E19" transform="translate(144,802)"/>
<path d="M0 0 C1.32 0.33 2.64 0.66 4 1 C2 3 2 3 -0.3828125 3.1953125 C-1.28773438 3.17210937 -2.19265625 3.14890625 -3.125 3.125 C-4.49011719 3.09792969 -4.49011719 3.09792969 -5.8828125 3.0703125 C-6.58148438 3.04710937 -7.28015625 3.02390625 -8 3 C-8 2.67 -8 2.34 -8 2 C-5.36 2 -2.72 2 0 2 C0 1.34 0 0.68 0 0 Z " fill="#E84C2D" transform="translate(391,778)"/>
<path d="M0 0 C6.875 3.75 6.875 3.75 8 6 C5.61435923 5.42415568 3.33317216 4.77772405 1 4 C0.3125 1.9375 0.3125 1.9375 0 0 Z " fill="#EC3726" transform="translate(1280,412)"/>
<path d="M0 0 C3.60296594 -0.41176754 4.78402067 -0.1535853 7.8125 2 C8.534375 2.66 9.25625 3.32 10 4 C8.68 4.33 7.36 4.66 6 5 C6 4.34 6 3.68 6 3 C4.02 2.34 2.04 1.68 0 1 C0 0.67 0 0.34 0 0 Z " fill="#DA462D" transform="translate(1165,323)"/>
<path d="M0 0 C0.66 0.33 1.32 0.66 2 1 C0.68 3.31 -0.64 5.62 -2 8 C-2.66 8 -3.32 8 -4 8 C-3.67 6.68 -3.34 5.36 -3 4 C-2.34 4 -1.68 4 -1 4 C-0.67 2.68 -0.34 1.36 0 0 Z " fill="#ED3D2C" transform="translate(290,285)"/>
<path d="M0 0 C0.33 0 0.66 0 1 0 C1 1.98 1 3.96 1 6 C0.01 6.33 -0.98 6.66 -2 7 C-2.125 4.625 -2.125 4.625 -2 2 C-1.34 1.34 -0.68 0.68 0 0 Z " fill="#E6422D" transform="translate(296,267)"/>
<path d="M0 0 C0.33 0.99 0.66 1.98 1 3 C-0.375 4.5 -0.375 4.5 -2 6 C-2.66 6 -3.32 6 -4 6 C-3.6875 4.125 -3.6875 4.125 -3 2 C-2.01 1.34 -1.02 0.68 0 0 Z " fill="#C04E33" transform="translate(454,85)"/>
<path d="M0 0 C5.53846154 -0.36923077 5.53846154 -0.36923077 7.875 1.5 C8.24625 1.995 8.6175 2.49 9 3 C2.25 2.25 2.25 2.25 0 0 Z " fill="#EB472A" transform="translate(833,27)"/>
</svg>
